<svg width="1107" height="648" viewBox="0 0 1107 648" fill="none" xmlns="http://www.w3.org/2000/svg">
<g clip-path="url(#clip0_422_6133)">
<path d="M6.01855 0.00878906V0.00976562L6.0166 1.00977L10.0273 1.01562L10.0283 0.015625L14.04 0.0214844V0.0224609L14.0381 1.02246L18.0488 1.02832L18.0508 0.0283203V0.0273438L22.0605 0.0341797V1.03418L26.0713 1.04102L26.0723 0.0410156V0.0400391L30.082 0.046875V1.04688L34.0928 1.05371L34.0947 0.0537109V0.0527344L38.1045 0.0595703L38.1035 1.05957L42.1143 1.06641L42.1162 0.0664062V0.0654297L46.126 0.0722656L46.125 1.07227L50.1357 1.07812L50.1367 0.078125L54.1484 0.0839844V0.0849609L54.1475 1.08496L58.1582 1.09082V0.0908203L62.1699 0.0966797V0.0976562L62.1689 1.09766L66.1797 1.10352L66.1807 0.103516L70.1924 0.109375V0.110352L70.1904 1.11035L74.2012 1.11621L74.2021 0.116211L78.2139 0.12207V0.123047L78.2119 1.12305L82.2227 1.12891L82.2246 0.128906V0.12793L86.2344 0.134766V1.13477L90.2451 1.1416L90.2461 0.141602V0.140625L94.2559 0.147461V1.14746L98.2666 1.1543L98.2686 0.154297V0.15332L102.278 0.160156L102.277 1.16016L106.288 1.16699L106.29 0.166992V0.166016L110.3 0.172852L110.299 1.17285L114.31 1.17969L114.312 0.179688V0.178711L118.322 0.18457V0.185547L118.321 1.18555L122.332 1.19141V0.191406L126.344 0.197266V0.198242L126.343 1.19824L130.354 1.2041V0.204102L134.366 0.209961V0.210938L134.364 1.21094L138.375 1.2168L138.376 0.216797L142.388 0.222656V0.223633L142.386 1.22363L146.396 1.22949L146.397 0.229492L150.408 0.235352L150.407 1.23535L154.419 1.24219L154.42 0.242188V0.241211L158.43 0.248047V1.24805L162.44 1.25488L162.441 0.254883V0.253906L166.452 0.260742L166.451 1.26074L170.462 1.26758L170.464 0.267578V0.266602L174.474 0.273438L174.473 1.27344L178.483 1.28027L178.485 0.280273V0.279297L182.496 0.285156V0.286133L182.494 1.28613L186.506 1.29199V0.291992L190.518 0.297852V0.298828L190.517 1.29883L194.527 1.30469V0.304688L198.539 0.310547V0.311523L198.538 1.31152L202.549 1.31738L202.55 0.317383L206.562 0.323242V0.324219L206.56 1.32422L210.57 1.33008L210.571 0.330078L214.582 0.335938L214.581 1.33594L218.592 1.34277L218.594 0.342773V0.341797L222.604 0.348633V1.34863L226.614 1.35547L226.615 0.355469V0.354492L230.625 0.361328V1.36133L234.636 1.36816L234.638 0.368164V0.367188L238.647 0.374023L238.646 1.37402L242.657 1.38086L242.659 0.380859V0.379883L246.67 0.385742V0.386719L246.668 1.38672L250.679 1.39258L250.68 0.392578L254.691 0.398438V0.399414L254.69 1.39941L258.701 1.40527V0.405273L262.713 0.411133V0.412109L262.712 1.41211L266.723 1.41797L266.724 0.417969L270.735 0.423828V0.424805L270.733 1.4248L274.744 1.43066L274.745 0.430664L278.757 0.436523V0.4375L278.755 1.4375L282.766 1.44336L282.768 0.443359V0.442383L286.777 0.449219V1.44922L290.788 1.45605L290.789 0.456055V0.455078L294.799 0.461914V1.46191L298.81 1.46875L298.812 0.46875V0.467773L302.821 0.474609L302.82 1.47461L306.831 1.48145L306.833 0.481445V0.480469L310.844 0.486328V0.487305L310.842 1.4873L314.853 1.49316L314.854 0.493164L318.865 0.499023V0.5L318.864 1.5L322.875 1.50586V0.505859L326.887 0.511719V0.512695L326.886 1.5127L330.896 1.51855V0.518555L334.909 0.524414V0.525391L334.907 1.52539L338.918 1.53125L338.919 0.53125L342.931 0.537109V0.538086L342.929 1.53809L346.939 1.54395L346.941 0.543945V0.542969L350.951 0.549805L350.95 1.5498L354.962 1.55664L354.963 0.556641V0.555664L358.973 0.5625V1.5625L362.983 1.56934L362.984 0.569336V0.568359L366.995 0.575195L366.994 1.5752L371.005 1.58203L371.007 0.582031V0.581055L375.018 0.586914V0.587891L375.016 1.58789L379.026 1.59375L379.027 0.59375L383.039 0.599609V0.600586L383.037 1.60059L387.049 1.60645V0.606445L391.061 0.612305V0.613281L391.06 1.61328L395.07 1.61914V0.619141L399.082 0.625V0.625977L399.081 1.62598L403.092 1.63184L403.093 0.631836L407.104 0.637695V0.638672L407.103 1.63867L411.113 1.64453L411.115 0.644531V0.643555L415.125 0.650391L415.124 1.65039L419.135 1.65723L419.137 0.657227V0.65625L423.146 0.663086V1.66309L427.157 1.66992L427.158 0.669922V0.668945L431.168 0.675781V1.67578L435.179 1.68262L435.181 0.682617V0.681641L439.19 0.688477L439.189 1.68848L443.2 1.69434L443.202 0.695312V0.694336L447.213 0.700195V0.701172L447.211 1.70117L451.222 1.70703L451.223 0.707031L455.234 0.712891V0.713867L455.233 1.71387L459.244 1.71973V0.719727L463.256 0.725586V0.726562L463.255 1.72656L467.266 1.73242L467.267 0.732422L471.278 0.738281V0.739258L471.276 1.73926L475.287 1.74512L475.289 0.745117V0.744141L479.299 0.750977L479.298 1.75098L483.309 1.75781L483.311 0.757812V0.756836L487.32 0.763672V1.76367L491.331 1.77051L491.332 0.770508V0.769531L495.342 0.776367V1.77637L499.353 1.7832L499.354 0.783203V0.782227L503.364 0.789062L503.363 1.78906L507.374 1.7959L507.376 0.795898V0.794922L511.387 0.800781V0.801758L511.385 1.80176L515.396 1.80762L515.396 0.807617L519.408 0.813477V0.814453L519.407 1.81445L523.418 1.82031V0.820312L527.43 0.826172V0.827148L527.429 1.82715L531.439 1.83301V0.833008L535.452 0.838867V0.839844L535.45 1.83984L539.461 1.8457L539.463 0.845703V0.844727L543.473 0.851562L543.472 1.85156L547.482 1.8584L547.484 0.858398V0.857422L551.494 0.864258L551.493 1.86426L555.505 1.87109L555.506 0.871094V0.870117L559.516 0.876953V1.87695L563.526 1.88379L563.527 0.883789V0.882812L567.538 0.889648L567.537 1.88965L571.548 1.89648L571.55 0.896484V0.895508L575.561 0.901367V0.902344L575.559 1.90234L579.569 1.9082L579.57 0.908203L583.582 0.914062V0.915039L583.58 1.91504L587.592 1.9209V0.920898L591.604 0.926758V0.927734L591.603 1.92773L595.613 1.93359V0.933594L599.625 0.939453V0.94043L599.624 1.94043L603.635 1.94629L603.637 0.946289V0.945312L607.646 0.952148L607.646 1.95215L611.656 1.95898L611.658 0.958984V0.958008L615.668 0.964844L615.667 1.96484L619.679 1.97168L619.68 0.97168V0.970703L623.689 0.977539V1.97754L627.7 1.98438L627.701 0.984375V0.983398L631.711 0.990234V1.99023L635.722 1.99707L635.724 0.99707V0.996094L639.734 1.00195V1.00293L639.732 2.00293L643.743 2.00879L643.744 1.00879L647.756 1.01465V1.01562L647.754 2.01562L651.765 2.02148L651.766 1.02148L655.777 1.02734V1.02832L655.776 2.02832L659.787 2.03418V1.03418L663.799 1.04004V1.04102L663.798 2.04102L667.809 2.04688L667.811 1.04688V1.0459L671.821 1.05273V1.05371L671.819 2.05371L675.83 2.05957L675.832 1.05957V1.05859L679.842 1.06543L679.841 2.06543L683.852 2.07227L683.854 1.07227V1.07129L687.863 1.07812V2.07812L691.874 2.08496L691.875 1.08496V1.08398L695.885 1.09082V2.09082L699.896 2.09766L699.896 1.09766V1.09668L703.908 1.10254V1.10352L703.906 2.10352L707.917 2.10938L707.918 1.10938L711.93 1.11523V1.11621L711.928 2.11621L715.938 2.12207L715.939 1.12207L719.951 1.12793V1.12891L719.95 2.12891L723.961 2.13477V1.13477L727.973 1.14062V1.1416L727.972 2.1416L731.982 2.14746V1.14746L735.995 1.15332V1.1543L735.993 2.1543L740.004 2.16016L740.006 1.16016V1.15918L744.016 1.16602L744.015 2.16602L748.025 2.17285L748.027 1.17285V1.17188L752.037 1.17871L752.036 2.17871L756.048 2.18555L756.049 1.18555V1.18457L760.059 1.19141V2.19141L764.069 2.19824L764.07 1.19824V1.19727L768.082 1.20312V1.2041L768.08 2.2041L772.091 2.20996L772.092 1.20996L776.104 1.21582V1.2168L776.102 2.2168L780.112 2.22266L780.113 1.22266L784.125 1.22852V1.22949L784.123 2.22949L788.135 2.23535V1.23535L792.146 1.24121V1.24219L792.146 2.24219L796.156 2.24805V1.24805L800.168 1.25391V1.25488L800.167 2.25488L804.178 2.26074L804.18 1.26074V1.25977L808.189 1.2666L808.188 2.2666L812.199 2.27344L812.201 1.27344V1.27246L816.211 1.2793L816.21 2.2793L820.222 2.28613L820.223 1.28613V1.28516L824.232 1.29199V2.29199L828.243 2.29883L828.244 1.29883V1.29785L832.255 1.30371V1.30469L832.254 2.30469L836.265 2.31152L836.267 1.31152V1.31055L840.277 1.31641V1.31738L840.275 2.31738L844.286 2.32324L844.287 1.32324L848.299 1.3291V1.33008L848.297 2.33008L852.308 2.33594L852.309 1.33594L856.32 1.3418V1.34277L856.319 2.34277L860.33 2.34863V1.34863L864.342 1.35449V1.35547L864.341 2.35547L868.352 2.36133L868.354 1.36133V1.36035L872.363 1.36719L872.362 2.36719L876.373 2.37402L876.375 1.37402V1.37305L880.385 1.37988L880.384 2.37988L884.396 2.38672L884.396 1.38672V1.38574L888.406 1.39258V2.39258L892.417 2.39941L892.418 1.39941V1.39844L896.43 1.4043V1.40527L896.428 2.40527L900.438 2.41211L900.44 1.41211V1.41113L904.451 1.41699V1.41797L904.449 2.41797L908.46 2.42383L908.461 1.42383L912.473 1.42969V1.43066L912.472 2.43066L916.482 2.43652V1.43652L920.494 1.44238V1.44336L920.493 2.44336L924.504 2.44922L924.505 1.44922L928.517 1.45508V1.45605L928.515 2.45605L932.525 2.46191L932.527 1.46191V1.46094L936.537 1.46777L936.536 2.46777L940.547 2.47461L940.549 1.47461V1.47363L944.559 1.48047V2.48047L948.569 2.4873L948.57 1.4873V1.48633L952.58 1.49316V2.49316L956.591 2.5L956.593 1.5V1.49902L960.604 1.50488V1.50586L960.602 2.50586L964.612 2.5127L964.614 1.5127V1.51172L968.625 1.51758V1.51855L968.623 2.51855L972.635 2.52441V1.52441L976.646 1.53027V1.53125L976.646 2.53125L980.656 2.53711V1.53711L984.669 1.54297V1.54395L984.667 2.54395L988.678 2.5498L988.679 1.5498L992.69 1.55566V1.55664L992.688 2.55664L996.699 2.5625L996.701 1.5625V1.56152L1000.71 1.56836V1.56934L1000.71 2.56934L1004.72 2.5752L1004.72 1.5752V1.57422L1008.73 1.58105V2.58105L1012.74 2.58789L1012.74 1.58789V1.58691L1016.75 1.59375L1016.75 2.59375L1020.76 2.60059L1020.77 1.60059V1.59961L1024.78 1.60645L1024.78 2.60645L1028.79 2.61328L1028.79 1.61328V1.6123L1032.8 1.61816V1.61914L1032.8 2.61914L1036.81 2.625V1.625L1040.82 1.63086V1.63184L1040.82 2.63184L1044.83 2.6377V1.6377L1048.84 1.64355V1.64453L1048.84 2.64453L1052.85 2.65039L1052.85 1.65039L1056.86 1.65625V1.65723L1056.86 2.65723L1060.87 2.66309L1060.88 1.66309V1.66211L1064.89 1.66895V1.66992L1064.88 2.66992L1068.9 2.67578L1068.9 1.67578V1.6748L1072.91 1.68164V2.68164L1076.92 2.68848L1076.92 1.68848V1.6875L1080.93 1.69434L1080.93 2.69434L1084.94 2.70117L1084.94 1.70117V1.7002L1088.95 1.70703L1088.95 2.70703L1092.96 2.71387L1092.96 1.71387V1.71289L1096.97 1.71875V1.71973L1096.97 2.71973L1100.98 2.72559V1.72559L1104.99 1.73145V1.73242L1104.99 2.73242L1106 2.7334V3.73047L1107 3.73145L1107 7.7207H1106L1106 11.7109H1107V15.7012H1106L1106 19.6914H1107L1107 23.6816L1106 23.6807V27.6709H1107L1107 31.6611H1106L1105.99 35.6514H1106.99V39.6416H1105.99L1105.99 43.6318H1106.99L1106.99 47.6211H1105.99L1105.99 51.6113H1106.99V55.6016H1105.99L1105.99 59.5918H1106.99L1106.99 63.582H1105.99V67.5713L1106.99 67.5723L1106.99 71.5615H1105.99L1105.99 75.5518H1106.99V79.542H1105.99L1105.99 83.5322H1106.99L1106.99 87.5225L1105.99 87.5215V91.5117H1106.99L1106.98 95.502H1105.98L1105.98 99.4922H1106.98V103.482H1105.98L1105.98 107.473H1106.98L1106.98 111.462H1105.98V115.452H1106.98L1106.98 119.442H1105.98L1105.98 123.433H1106.98V127.423H1105.98L1105.98 131.412L1106.98 131.413L1106.98 135.402H1105.98L1105.98 139.393H1106.98V143.383H1105.98L1105.98 147.373H1106.98L1106.97 151.363L1105.97 151.362V155.353H1106.97L1106.97 159.343H1105.97L1105.97 163.333H1106.97V167.323H1105.97L1105.97 171.313H1106.97L1106.97 175.303H1105.97V179.293H1106.97L1106.97 183.283H1105.97L1105.97 187.273H1106.97V191.264H1105.97L1105.97 195.253L1106.97 195.254L1106.97 199.243H1105.97V203.233H1106.97L1106.97 207.224H1105.97L1105.96 211.214H1106.96V215.204L1105.96 215.203L1105.96 219.193H1106.96L1106.96 223.184H1105.96L1105.96 227.174H1106.96L1106.96 231.164H1105.96L1105.96 235.153L1106.96 235.154L1106.96 239.144H1105.96V243.134H1106.96L1106.96 247.124H1105.96L1105.96 251.114H1106.96V255.104H1105.96L1105.96 259.094L1106.96 259.095L1106.96 263.084H1105.96V267.074H1106.96L1106.96 271.064H1105.96L1105.95 275.055H1106.95V279.045L1105.95 279.044L1105.95 283.034H1106.95L1106.95 287.024H1105.95V291.015H1106.95L1106.95 295.005H1105.95L1105.95 298.994L1106.95 298.995V302.984H1105.95L1105.95 306.975H1106.95L1106.95 310.965H1105.95L1105.95 314.955H1106.95L1106.95 318.945H1105.95L1105.95 322.935L1106.95 322.936L1106.95 326.925H1105.95V330.915H1106.95L1106.94 334.905H1105.94L1105.94 338.896H1106.94V342.886L1105.94 342.885L1105.94 346.875H1106.94L1106.94 350.865H1105.94V354.855H1106.94L1106.94 358.846H1105.94L1105.94 362.835L1106.94 362.836V366.825H1105.94L1105.94 370.815H1106.94L1106.94 374.806H1105.94V378.796H1106.94L1106.94 382.786H1105.94L1105.94 386.775L1106.94 386.776L1106.93 390.766H1105.93V394.756H1106.93L1106.93 398.746H1105.93L1105.93 402.736H1106.93L1106.93 406.727L1105.93 406.726L1105.93 410.716H1106.93V414.706H1105.93V418.696H1106.93L1106.93 422.687H1105.93L1105.93 426.676L1106.93 426.677V430.666H1105.93L1105.93 434.656H1106.93L1106.93 438.646H1105.93V442.637H1106.93L1106.93 446.627H1105.93L1105.92 450.616L1106.92 450.617V454.606H1105.92L1105.92 458.597H1106.92L1106.92 462.587H1105.92V466.577H1106.92L1106.92 470.567H1105.92L1105.92 474.557L1106.92 474.558V478.547H1105.92V482.537H1106.92L1106.92 486.527H1105.92L1105.92 490.518H1106.92L1106.92 494.508L1105.92 494.507L1105.92 498.497H1106.92V502.487H1105.92V506.478H1106.92L1106.92 510.468H1105.92L1105.91 514.458H1106.91V518.447H1105.91L1105.91 522.438H1106.91L1106.91 526.428H1105.91V530.418H1106.91L1106.91 534.408H1105.91L1105.91 538.397L1106.91 538.398V542.388H1105.91L1105.91 546.378H1106.91L1106.91 550.368H1105.91V552.014C1105.55 552.463 1105.19 552.91 1104.83 553.354L1105.6 553.985C1104.72 555.059 1103.82 556.117 1102.9 557.158L1102.15 556.498C1101.24 557.531 1100.31 558.551 1099.37 559.561L1100.1 560.241C1099.15 561.256 1098.19 562.261 1097.22 563.256L1096.5 562.56C1095.54 563.552 1094.56 564.536 1093.59 565.516L1094.29 566.222C1093.31 567.206 1092.32 568.184 1091.34 569.16L1090.63 568.452C1089.65 569.431 1088.66 570.41 1087.68 571.389L1088.38 572.098L1088.38 572.099C1087.39 573.082 1086.41 574.066 1085.44 575.054L1085.44 575.053L1084.73 574.352C1083.75 575.35 1082.78 576.352 1081.82 577.363L1082.55 578.051H1082.55C1081.59 579.064 1080.65 580.085 1079.73 581.116L1079.73 581.115L1078.98 580.449C1078.04 581.497 1077.13 582.558 1076.23 583.633L1077 584.271L1077 584.271C1076.11 585.345 1075.25 586.434 1074.42 587.539L1074.42 587.538L1073.62 586.938C1073.2 587.5 1072.78 588.068 1072.37 588.641L1072.19 588.904L1072.19 589.227C1072.19 589.931 1072.19 590.626 1072.19 591.313L1073.19 591.316C1073.19 592.698 1073.17 594.046 1073.13 595.362L1072.14 595.338C1072.1 596.743 1072.05 598.11 1071.98 599.44L1072.98 599.49C1072.91 600.888 1072.82 602.246 1072.71 603.566L1071.72 603.487C1071.61 604.865 1071.48 606.199 1071.33 607.491L1072.32 607.604C1072.16 609.002 1071.98 610.353 1071.77 611.657L1070.79 611.503C1070.57 612.885 1070.33 614.215 1070.06 615.492L1071.04 615.696C1070.75 617.08 1070.43 618.405 1070.09 619.675L1069.13 619.413C1068.76 620.755 1068.37 622.031 1067.94 623.245L1068.88 623.576C1068.41 624.908 1067.91 626.17 1067.36 627.364L1066.45 626.95C1065.88 628.201 1065.27 629.373 1064.62 630.472L1065.48 630.979C1064.77 632.186 1064.01 633.31 1063.19 634.356L1062.41 633.746C1061.58 634.812 1060.7 635.792 1059.78 636.694L1060.47 637.408C1059.49 638.367 1058.45 639.242 1057.35 640.039L1056.77 639.232C1055.71 640.004 1054.59 640.702 1053.42 641.332L1053.89 642.211C1052.71 642.847 1051.47 643.414 1050.19 643.92L1049.82 642.991C1048.61 643.466 1047.36 643.886 1046.05 644.257L1046.32 645.218C1045.04 645.581 1043.71 645.895 1042.34 646.168L1042.15 645.189C1040.86 645.445 1039.54 645.663 1038.17 645.848L1038.3 646.836C1036.98 647.014 1035.63 647.162 1034.23 647.281L1034.15 646.286C1032.83 646.399 1031.49 646.487 1030.11 646.554L1030.15 647.551C1028.82 647.615 1027.46 647.659 1026.07 647.687L1026.05 646.688C1024.72 646.714 1023.37 646.725 1021.99 646.722L1021.98 647.719C1020.65 647.716 1019.29 647.701 1017.9 647.676L1017.92 646.679C1016.58 646.655 1015.23 646.622 1013.85 646.581L1013.82 647.579C1012.48 647.54 1011.12 647.494 1009.73 647.443L1009.77 646.445C1008.43 646.396 1007.07 646.341 1005.69 646.284L1005.65 647.28C1004.3 647.225 1002.94 647.166 1001.56 647.106L1001.6 646.111C1000.25 646.053 998.885 645.994 997.502 645.935L997.46 646.933C996.119 646.876 994.762 646.822 993.389 646.767L993.39 646.765L993.43 645.766C992.084 645.712 990.722 645.659 989.345 645.609L989.309 646.607C987.959 646.559 986.594 646.515 985.215 646.473L985.216 646.472L985.247 645.473C983.894 645.431 982.525 645.393 981.143 645.36L981.118 646.36H981.117C979.773 646.328 978.415 646.302 977.044 646.28L977.045 646.279L977.062 645.279C976.417 645.269 975.768 645.26 975.117 645.252L975.124 645.249C974.927 644.932 974.718 644.366 974.528 643.522L973.555 643.741C973.293 642.576 973.102 641.095 972.968 639.437L973.964 639.356C973.856 638.025 973.783 636.571 973.735 635.066L972.737 635.098C972.692 633.668 972.67 632.198 972.661 630.751L973.659 630.746C973.65 629.257 973.656 627.79 973.668 626.414L972.669 626.405C972.683 624.792 972.702 623.305 972.716 622.057L973.716 622.067C973.725 621.226 973.73 620.486 973.728 619.886L973.723 618.898L972.735 618.891C972.035 618.885 971.344 618.88 970.66 618.875L970.652 619.875H970.651C969.248 619.864 967.879 619.856 966.543 619.847L966.544 619.844L966.551 618.844C965.149 618.834 963.782 618.824 962.448 618.815L962.441 619.815L962.44 619.817C961.031 619.808 959.657 619.798 958.315 619.79L958.316 619.789L958.323 618.789C956.917 618.781 955.547 618.773 954.208 618.766L954.203 619.766L954.202 619.769C952.8 619.761 951.433 619.754 950.096 619.748L950.097 619.746L950.102 618.746C948.697 618.74 947.325 618.734 945.98 618.729L945.978 619.729L945.977 619.73C944.579 619.726 943.212 619.722 941.867 619.719H941.868L941.87 618.719C940.476 618.716 939.106 618.713 937.755 618.712L937.754 619.712C936.366 619.711 934.998 619.711 933.641 619.712V618.712C932.26 618.713 930.892 618.715 929.527 618.718L929.529 619.718C928.157 619.721 926.788 619.725 925.416 619.729V619.729L925.412 618.729C924.048 618.733 922.68 618.739 921.3 618.746L921.305 619.746V619.747C919.947 619.754 918.578 619.76 917.19 619.769L917.185 618.769C915.833 618.777 914.464 618.786 913.07 618.796L913.077 619.796V619.799C911.733 619.808 910.365 619.817 908.968 619.828V619.826L908.96 618.826C907.616 618.837 906.244 618.848 904.84 618.86L904.849 619.86V619.861C903.511 619.873 902.144 619.886 900.742 619.898V619.897L900.733 618.897C899.395 618.91 898.025 618.922 896.619 618.936L896.629 619.936C895.288 619.948 893.914 619.962 892.504 619.976V619.975L892.494 618.975C891.16 618.988 889.794 619.001 888.393 619.015L888.402 620.015V620.016C887.066 620.029 885.697 620.042 884.294 620.056L884.284 619.056C883.601 619.062 882.908 619.069 882.208 619.076L881.221 619.087L881.219 620.074L881.213 622.269L882.213 622.271L882.202 626.659L881.202 626.657L881.191 631.046L882.19 631.047L882.18 635.437L881.18 635.435L881.169 639.823L882.169 639.825L882.157 644.213L881.158 644.212L881.154 645.411C880.806 645.412 880.458 645.413 880.112 645.415L880.118 646.415V646.417C878.771 646.425 877.441 646.437 876.13 646.456L876.115 645.456C874.747 645.476 873.398 645.503 872.068 645.534L872.092 646.534V646.535C870.735 646.567 869.398 646.604 868.081 646.646V646.645L868.05 645.645C866.697 645.687 865.364 645.733 864.053 645.783L864.091 646.783C862.728 646.835 861.387 646.889 860.068 646.946L860.025 645.947C858.661 646.006 857.319 646.067 856.002 646.129L856.049 647.128V647.13C854.689 647.194 853.354 647.256 852.043 647.319L851.994 646.32C850.635 646.386 849.303 646.451 847.997 646.513L848.043 647.51C846.683 647.574 845.351 647.636 844.047 647.691L844.006 646.693C842.639 646.752 841.303 646.805 839.999 646.85L840.032 647.848C838.66 647.895 837.322 647.932 836.016 647.958L835.996 646.96C834.628 646.987 833.298 647.002 832.004 647L832.003 647.997C830.627 647.995 829.291 647.977 827.994 647.935L828.026 646.937C826.663 646.892 825.344 646.824 824.071 646.727L823.995 647.724H823.994C822.611 647.618 821.277 647.476 819.991 647.298L820.129 646.31C818.781 646.122 817.491 645.892 816.258 645.612L816.037 646.586C814.694 646.281 813.412 645.918 812.188 645.488L812.519 644.547C811.27 644.109 810.09 643.602 808.975 643.017L808.51 643.9C807.318 643.275 806.193 642.56 805.133 641.748L805.739 640.956C804.738 640.19 803.796 639.331 802.912 638.37L802.178 639.045C801.302 638.094 800.481 637.049 799.714 635.898L800.546 635.345C799.859 634.315 799.214 633.194 798.609 631.976L797.714 632.419C797.144 631.27 796.613 630.041 796.117 628.726L797.052 628.374C796.61 627.201 796.196 625.954 795.811 624.63L794.851 624.909C794.492 623.68 794.159 622.387 793.85 621.028L794.824 620.808C794.543 619.575 794.283 618.286 794.041 616.938L793.058 617.112C792.831 615.849 792.622 614.535 792.429 613.17L793.417 613.031C793.238 611.763 793.073 610.449 792.923 609.088L791.93 609.196C791.786 607.9 791.655 606.562 791.537 605.181L792.533 605.096C792.423 603.806 792.324 602.478 792.235 601.11L791.238 601.174C791.155 599.884 791.079 598.561 791.015 597.201L792.014 597.153C791.951 595.844 791.898 594.5 791.854 593.123L790.854 593.155C790.812 591.857 790.777 590.529 790.75 589.17L791.749 589.15C791.735 588.473 791.724 587.788 791.714 587.095L791.7 586.122L790.728 586.109L788.688 586.083L788.675 587.082L788.674 587.083C787.316 587.065 785.962 587.049 784.611 587.032L784.612 587.031L784.625 586.031C783.27 586.015 781.917 585.999 780.569 585.983L780.559 586.983H780.558C779.198 586.968 777.843 586.952 776.491 586.938H776.492L776.503 585.938C775.149 585.923 773.799 585.908 772.452 585.895L772.441 586.894C771.081 586.88 769.724 586.868 768.371 586.854L768.372 586.854L768.382 585.854C767.029 585.841 765.679 585.828 764.333 585.816L764.324 586.815C762.964 586.803 761.607 586.794 760.253 586.782L760.254 586.781L760.262 585.781C758.908 585.77 757.556 585.758 756.209 585.748L756.202 586.748H756.201C754.842 586.738 753.486 586.729 752.134 586.72L752.135 586.719L752.142 585.719C750.787 585.709 749.435 585.699 748.087 585.69L748.08 586.69L748.079 586.691C746.721 586.683 745.367 586.674 744.015 586.666H744.016L744.021 585.666C742.666 585.658 741.314 585.651 739.965 585.644L739.959 586.643C738.602 586.635 737.247 586.629 735.896 586.623H735.896L735.901 585.623C734.546 585.617 733.193 585.61 731.843 585.604L731.839 586.604L731.838 586.605C730.481 586.6 729.128 586.595 727.776 586.59L727.777 586.589L727.781 585.589C726.426 585.584 725.072 585.58 723.722 585.576L723.719 586.576H723.718C722.362 586.572 721.008 586.569 719.657 586.565L719.658 586.564L719.66 585.564C718.305 585.561 716.952 585.558 715.601 585.556L715.599 586.556L715.598 586.557C714.242 586.554 712.889 586.552 711.538 586.55L711.539 586.549L711.54 585.549C710.185 585.547 708.831 585.545 707.479 585.544L707.479 586.544H707.478C706.123 586.543 704.77 586.543 703.419 586.542V586.541L703.42 585.541C702.065 585.54 700.71 585.54 699.358 585.54V586.543C698.004 586.543 696.651 586.543 695.3 586.544V586.541L695.299 585.541C693.944 585.542 692.59 585.542 691.238 585.543L691.239 586.543V586.545C689.885 586.546 688.532 586.547 687.18 586.549V586.548L687.179 585.548C685.824 585.55 684.471 585.552 683.118 585.554L683.119 586.554V586.556C681.765 586.558 680.412 586.56 679.06 586.562V586.561L679.058 585.561C677.703 585.563 676.35 585.566 674.997 585.569L675 586.569V586.57C673.646 586.573 672.293 586.576 670.94 586.58L670.938 585.58C669.584 585.584 668.23 585.587 666.877 585.591L666.88 586.591V586.593C665.526 586.597 664.173 586.6 662.82 586.604V586.604L662.817 585.604C661.464 585.608 660.11 585.612 658.757 585.617L658.761 586.617C657.408 586.622 656.054 586.627 654.701 586.632L654.697 585.632C653.344 585.637 651.99 585.642 650.637 585.647L650.641 586.647V586.648C649.288 586.654 647.935 586.658 646.581 586.664L646.577 585.664C645.224 585.67 643.87 585.675 642.517 585.681L642.521 586.681C641.169 586.686 639.816 586.692 638.462 586.698L638.457 585.698C637.105 585.704 635.751 585.711 634.397 585.717L634.401 586.717C633.049 586.723 631.696 586.729 630.342 586.735L630.338 585.735C628.986 585.742 627.632 585.748 626.277 585.754L626.282 586.754C624.93 586.76 623.576 586.766 622.222 586.772L622.218 585.773C620.866 585.78 619.512 585.786 618.157 585.793L618.161 586.792C616.81 586.798 615.457 586.805 614.103 586.812L614.099 585.812C612.747 585.819 611.393 585.826 610.038 585.832L610.042 586.83C608.691 586.837 607.337 586.843 605.982 586.85L605.979 585.852C604.627 585.858 603.274 585.865 601.919 585.871L601.922 586.869C600.571 586.876 599.218 586.881 597.862 586.888L597.859 585.89C596.508 585.896 595.154 585.902 593.799 585.908L593.803 586.907C592.452 586.913 591.099 586.92 589.743 586.926L589.739 585.927C588.389 585.933 587.036 585.939 585.681 585.944L585.684 586.942C584.332 586.948 582.978 586.954 581.622 586.96L581.619 585.961C580.269 585.967 578.917 585.972 577.562 585.978L577.564 586.977C576.213 586.982 574.859 586.987 573.502 586.992L573.499 585.993C572.15 585.998 570.797 586.003 569.442 586.008L569.445 587.006C568.093 587.011 566.739 587.015 565.381 587.02L565.379 586.022C564.031 586.027 562.679 586.031 561.324 586.035L561.326 587.033C559.974 587.037 558.618 587.042 557.259 587.046L557.257 586.047C555.91 586.051 554.56 586.054 553.206 586.058L553.207 587.056C551.854 587.059 550.497 587.061 549.137 587.064L549.135 586.068C547.789 586.071 546.44 586.073 545.087 586.076L545.088 587.074C543.735 587.077 542.379 587.081 541.019 587.083L541.018 586.084C539.671 586.086 538.321 586.088 536.968 586.09V587.088C535.616 587.09 534.261 587.089 532.901 587.091V586.095C531.554 586.096 530.203 586.098 528.848 586.099V587.095C527.497 587.096 526.143 587.098 524.785 587.099V586.101H520.724V587.1L516.68 587.099V586.1L512.636 586.099V587.098L508.592 587.097V586.098L504.548 586.097V587.096L500.504 587.095V586.096L496.46 586.095V587.094L492.416 587.093V586.094L488.372 586.093V587.092L484.328 587.091V586.092L480.284 586.091V587.09L476.24 587.089V586.09L472.196 586.089V587.088L468.152 587.087V586.088L464.108 586.087V587.086L460.064 587.085V586.086L456.021 586.085V587.084L451.976 587.083L451.977 586.084L447.933 586.083L447.932 587.082L443.888 587.081L443.889 586.082L439.845 586.08L439.844 587.08L435.8 587.079L435.801 586.079L431.757 586.078L431.756 587.078L427.712 587.077L427.713 586.077L423.669 586.076L423.668 587.076L419.624 587.075L419.625 586.075L415.58 586.074V587.074L411.536 587.073V586.073H409.516C408.896 586.072 408.261 586.072 407.611 586.071L407.61 587.071L407.609 587.072C406.384 587.071 405.109 587.072 403.795 587.071L403.796 587.068V586.068C402.555 586.068 401.281 586.068 399.982 586.067V587.07C398.73 587.07 397.456 587.068 396.169 587.068V587.067L396.168 586.067C394.906 586.067 393.632 586.067 392.354 586.067V587.067C391.083 587.068 389.809 587.067 388.54 587.067V586.068C387.26 586.069 385.985 586.069 384.726 586.069V587.068C383.435 587.069 382.161 587.069 380.912 587.069V586.071C379.61 586.072 378.335 586.072 377.099 586.072V587.071C375.779 587.072 374.503 587.072 373.285 587.072V586.073H371.217L371.061 586.126C370.46 586.329 369.857 586.531 369.251 586.732L369.566 587.679C368.364 588.079 367.152 588.478 365.931 588.875L365.622 587.925C364.418 588.316 363.205 588.708 361.983 589.099L362.287 590.05C361.079 590.436 359.864 590.823 358.642 591.211L358.34 590.26C357.131 590.644 355.915 591.029 354.692 591.416L354.994 592.369C353.784 592.753 352.568 593.139 351.347 593.528V593.527L351.043 592.575C349.832 592.961 348.616 593.35 347.396 593.743L347.702 594.694C346.493 595.084 345.279 595.477 344.062 595.876L343.751 594.926C342.541 595.322 341.327 595.723 340.11 596.13L340.428 597.078V597.079C339.222 597.482 338.014 597.892 336.804 598.308V598.307L336.479 597.361C335.273 597.775 334.066 598.196 332.856 598.624L333.19 599.567C331.992 599.992 330.792 600.426 329.591 600.866L329.59 600.864L329.245 599.926C328.817 600.083 328.39 600.24 327.962 600.399C327.609 600.133 327.242 599.856 326.863 599.566L326.258 600.358C325.304 599.629 324.271 598.834 323.174 597.979L323.789 597.19C322.82 596.435 321.8 595.633 320.737 594.794L320.118 595.577C319.137 594.802 318.119 593.996 317.072 593.163L317.695 592.382C316.707 591.596 315.693 590.785 314.658 589.957L314.032 590.738C313.038 589.943 312.026 589.131 310.999 588.307L311.626 587.526C310.629 586.725 309.618 585.912 308.6 585.092L307.973 585.868C306.971 585.061 305.959 584.248 304.945 583.43L305.573 582.653C304.567 581.842 303.558 581.026 302.549 580.211L301.921 580.988H301.92C300.91 580.173 299.901 579.358 298.896 578.547L298.897 578.546L299.525 577.768C298.511 576.948 297.501 576.132 296.501 575.324L295.873 576.103L295.871 576.104C294.851 575.28 293.841 574.464 292.846 573.66L292.848 573.659L293.476 572.881C292.449 572.053 291.438 571.237 290.447 570.439L289.82 571.219L289.818 571.22C288.784 570.387 287.771 569.575 286.787 568.785L286.79 568.782L287.416 568.002C286.369 567.162 285.354 566.349 284.378 565.57L283.754 566.352L283.753 566.353C282.69 565.504 281.672 564.695 280.711 563.935L280.713 563.934L281.334 563.149C280.81 562.735 280.302 562.334 279.812 561.949L278.193 560.677V564.699H279.191C279.191 565.922 279.189 567.244 279.188 568.648H278.19C278.189 569.904 278.188 571.225 278.187 572.6H279.184C279.182 573.873 279.181 575.193 279.18 576.549H278.182C278.18 577.835 278.178 579.154 278.177 580.496H279.176C279.174 581.793 279.173 583.111 279.172 584.445H278.173C278.172 585.75 278.17 587.069 278.169 588.395H279.169C279.168 589.706 279.168 591.025 279.167 592.344H278.166C278.165 593.662 278.164 594.981 278.164 596.293H279.167C279.167 597.618 279.166 598.937 279.166 600.242H278.164C278.164 601.575 278.164 602.894 278.165 604.191L279.165 604.19V604.654C279.166 605.835 279.168 606.998 279.169 608.136L279.168 608.137L278.168 608.139C278.17 609.493 278.172 610.814 278.175 612.09L279.175 612.088V612.087C279.178 613.459 279.182 614.779 279.187 616.037L279.186 616.038L278.186 616.042C278.187 616.368 278.187 616.69 278.188 617.007L277.196 617.008L277.197 618.008L273.204 618.012L273.203 617.012L269.21 617.017L269.212 618.017L265.219 618.021L265.218 617.021L261.225 617.025L261.226 618.025L257.233 618.029L257.232 617.029L253.239 617.034L253.24 618.034L249.247 618.038L249.246 617.038L245.254 617.043L245.255 618.043L241.262 618.047L241.261 617.047L237.269 617.052L237.27 618.052L233.276 618.056L233.275 617.056L229.282 617.061L229.283 618.061L225.291 618.064L225.29 617.064L221.297 617.069L221.298 618.069L217.306 618.073L217.304 617.073L213.312 617.078L213.312 618.078L209.319 618.082L209.318 617.082L205.326 617.087L205.327 618.087L201.334 618.091L201.333 617.091L197.34 617.096L197.341 618.096L193.349 618.1L193.348 617.1L189.354 617.104L189.355 618.104L185.363 618.108L185.362 617.108L181.369 617.113L181.37 618.113L177.377 618.117L177.376 617.117L173.384 617.122L173.385 618.122L169.392 618.126L169.391 617.126L165.397 617.131L165.399 618.131L161.406 618.135L161.405 617.135L157.412 617.14L157.413 618.14L153.42 618.144V617.145L149.427 617.148L149.428 618.148L145.435 618.152L145.434 617.153L141.441 617.157L141.442 618.157L137.448 618.161V617.162L133.456 617.166L133.457 618.166L129.463 618.17V617.171L127.467 617.173C126.909 617.173 126.223 617.173 125.42 617.173V618.173C124.257 618.173 122.85 618.174 121.236 618.174V617.174C119.966 617.174 118.568 617.174 117.061 617.175V618.175C115.744 618.175 114.344 618.175 112.872 618.176L112.871 617.176C111.537 617.176 110.144 617.176 108.701 617.177V618.177C107.352 618.177 105.96 618.177 104.531 618.178L104.53 617.178C103.168 617.178 101.774 617.178 100.353 617.179V618.18C98.9819 618.18 97.5868 618.18 96.1729 618.181V618.18L96.1719 617.18C94.7953 617.18 93.401 617.18 91.9941 617.181V618.182C90.6136 618.182 89.2209 618.182 87.8213 618.183V617.183C86.4353 617.183 85.0424 617.183 83.6475 617.184V618.184C82.2559 618.184 80.8624 618.184 79.4717 618.185V617.185C78.0751 617.185 76.6809 617.185 75.2949 617.186V618.186C73.8931 618.186 72.4991 618.186 71.1182 618.187V617.188C69.7113 617.188 68.3179 617.188 66.9434 617.188V618.188C65.5309 618.188 64.1384 618.188 62.7715 618.188V617.189C61.3528 617.19 59.9613 617.19 58.6045 617.19L58.6055 618.19C57.1677 618.191 55.7683 618.191 54.415 618.191V617.192C52.9669 617.193 51.5714 617.193 50.2383 617.193V618.192C48.7684 618.193 47.3742 618.193 46.0684 618.193V617.194C44.5555 617.195 43.1611 617.195 41.9053 617.195V618.194C40.2515 618.195 38.8377 618.195 37.709 618.195V617.196C37.3232 617.196 36.9707 617.196 36.6533 617.196C36.6534 616.877 36.6531 616.527 36.6533 616.149H35.6553C35.6559 615.017 35.6569 613.632 35.6582 612.043L36.6562 612.044C36.6573 610.795 36.6588 609.419 36.6602 607.94L35.6621 607.939C35.6633 606.644 35.6646 605.269 35.666 603.831L36.6641 603.832C36.6654 602.512 36.6665 601.138 36.668 599.724L35.6699 599.723C35.6713 598.389 35.6724 597.018 35.6738 595.621L36.6729 595.622C36.6742 594.274 36.6753 592.901 36.6768 591.513L35.6768 591.512C35.6782 590.155 35.6792 588.783 35.6807 587.404L36.6807 587.405C36.6821 586.04 36.6841 584.668 36.6855 583.298L35.6855 583.297L35.6846 583.296C35.686 581.922 35.6861 580.551 35.6875 579.189L35.6895 579.19L36.6895 579.191C36.6908 577.808 36.692 576.435 36.6934 575.082L35.6934 575.081L35.6914 575.08C35.6928 573.687 35.6931 572.314 35.6943 570.972L35.6973 570.973L36.6973 570.974C36.6986 569.57 36.7 568.198 36.7012 566.871L35.7012 566.87L35.6973 566.869C35.6985 565.447 35.7002 564.074 35.7012 562.766H35.7041L36.7041 562.767C36.7052 561.314 36.7062 559.939 36.707 558.661H35.707L35.7041 558.66C35.7051 557.138 35.7076 555.753 35.708 554.536H36.709L36.71 552.504V551.504H33.4814L33.4824 552.504V552.505C32.0174 552.505 30.53 552.507 29.0264 552.508V552.506L29.0254 551.506C27.5536 551.507 26.0663 551.509 24.5693 551.51L24.5703 552.51C23.0925 552.511 21.6053 552.512 20.1143 552.513L20.1133 551.513C18.63 551.514 17.1425 551.515 15.6572 551.516V552.515C14.1686 552.515 12.6817 552.515 11.2021 552.515V551.517C9.70768 551.516 8.22074 551.516 6.74707 551.515L6.74609 552.513C5.24499 552.511 3.75762 552.509 2.29004 552.507L2.29199 551.509C1.88058 551.508 1.47065 551.507 1.0625 551.506V550.503H0.0625L0.0615234 546.499H1.06152V542.495H0.0615234L0.0605469 538.492L1.06055 538.491V534.488H0.0605469L0.0595703 530.484H1.05957V526.48H0.0595703L0.0585938 522.477H1.05859V518.474H0.0585938V514.47H1.05762V510.466H0.0576172V506.463L1.05762 506.462L1.05664 502.459H0.0566406V498.455H1.05664L1.05566 494.451H0.0556641V490.448L1.05566 490.447L1.05469 486.444H0.0546875V482.44H1.05469L1.05371 478.437H0.0537109V474.434L1.05371 474.433L1.05273 470.43H0.0527344V466.426H1.05273L1.05176 462.422H0.0527344L0.0517578 458.419L1.05176 458.418V454.415H0.0517578L0.0507812 450.411H1.05078V446.407H0.0507812L0.0498047 442.404L1.0498 442.403V438.4H0.0498047L0.0488281 434.396H1.04883V430.393H0.0488281L0.0478516 426.39L1.04785 426.389V422.386H0.0478516L0.046875 418.382H1.04688V414.378H0.046875L0.0458984 410.374H1.0459V406.371H0.0458984V402.367H1.04492V398.363H0.0449219V394.36L1.04492 394.359L1.04395 390.356H0.0439453V386.353H1.04395L1.04297 382.349H0.0429688V378.346L1.04297 378.345L1.04199 374.342H0.0419922V370.338H1.04199L1.04102 366.334H0.0410156V362.331L1.04102 362.33L1.04004 358.327H0.0410156L0.0400391 354.323H1.04004L1.03906 350.319H0.0400391L0.0390625 346.316L1.03906 346.315V342.312H0.0390625L0.0380859 338.309H1.03809V334.305H0.0380859L0.0371094 330.302L1.03711 330.301V326.298H0.0371094L0.0361328 322.294H1.03613V318.29H0.0361328L0.0351562 314.287L1.03516 314.286V310.283H0.0351562L0.0341797 306.279H1.03418V302.275H0.0341797L0.0332031 298.271H1.0332V294.269H0.0332031V290.265H1.0332L1.03223 286.261H0.0322266V282.258L1.03223 282.257L1.03125 278.254H0.03125V274.25H1.03125L1.03027 270.246H0.0302734V266.243L1.03027 266.242L1.0293 262.239H0.0292969V258.235H1.0293L1.02832 254.231H0.0283203V250.229L1.02832 250.228L1.02734 246.225H0.0283203L0.0273438 242.221H1.02734V238.217H0.0273438L0.0263672 234.214H1.02637V230.21H0.0263672L0.0253906 226.206H1.02539V222.202H0.0253906L0.0244141 218.199H1.02441V214.195H0.0244141L0.0234375 210.191H1.02344V206.188L0.0234375 206.188L0.0224609 202.185H1.02246V198.181H0.0224609L0.0214844 194.177H1.02148V190.173L0.0214844 190.174V186.17H1.02148L1.02051 182.166H0.0205078V178.162H1.02051L1.01953 174.159H0.0195312V170.155H1.01953L1.01855 166.151H0.0185547V162.147H1.01855L1.01758 158.145H0.0175781V154.141H1.01758L1.0166 150.137H0.0166016V146.133H1.0166L1.01562 142.13H0.015625V138.126H1.01562L1.01465 134.122H0.015625L0.0146484 130.119L1.01465 130.118V126.115H0.0146484L0.0136719 122.111H1.01367V118.107H0.0136719L0.0126953 114.104L1.0127 114.104V110.101H0.0126953L0.0117188 106.097H1.01172V102.093H0.0117188L0.0107422 98.0898H1.01074V94.0859H0.0107422L0.00976562 90.082H1.00977V86.0781H0.00976562V82.0752H1.00879V78.0713H0.00878906V74.0674H1.00879L1.00781 70.0635H0.0078125V66.0605H1.00781L1.00684 62.0566H0.00683594V58.0527H1.00684L1.00586 54.0488H0.00585938V50.0459H1.00586L1.00488 46.042H0.00488281V42.0381H1.00488L1.00391 38.0342L0.00390625 38.0352V34.0312H1.00391L1.00293 30.0273H0.00292969V26.0234H1.00293V22.0195L0.00292969 22.0205L0.00195312 18.0166H1.00195V14.0127H0.00195312L0.000976562 10.0088H1.00098V6.00488L0.000976562 6.00586L0 2.00195H1V1.00098L2.00586 1.00293L2.00684 0.00292969L6.01855 0.00878906ZM974.986 645.861L974.806 646.132L974.451 645.896L974.714 645.503L974.993 645.33L974.986 645.861Z" stroke="#6E6E6E" stroke-width="2" stroke-dasharray="4 4"/>
</g>
<defs>
<clipPath id="clip0_422_6133">
<rect width="1107" height="648" fill="white"/>
</clipPath>
</defs>
</svg>
