<svg width="609" height="412" viewBox="0 0 609 412" fill="none" xmlns="http://www.w3.org/2000/svg">
<path d="M608.993 40.5479C608.996 41.8135 608.996 43.0791 608.997 44.3447L607.999 44.3457C608 45.6109 608 46.8763 607.999 48.1416H608.997C608.996 49.4072 608.993 50.6728 608.991 51.9385L607.996 51.9375C607.994 53.2029 607.992 54.4688 607.989 55.7344L608.986 55.7354C608.984 57.0012 608.982 58.2672 608.979 59.5332L607.98 59.5312C607.977 60.7972 607.975 62.0628 607.972 63.3291L608.971 63.3301C608.968 64.5962 608.966 65.8625 608.963 67.1289L607.963 67.127C607.962 67.7597 607.96 68.3925 607.959 69.0254V69.0264L607.957 71.0977L608.957 71.0986L608.953 75.2412L607.953 75.2402L607.95 79.3818H608.949L608.945 83.5244H607.946L607.942 87.667L608.942 87.668L608.938 91.8096L607.938 91.8086L607.936 95.9512H608.935L608.932 100.094H607.932L607.928 104.235L608.928 104.236L608.924 108.378H607.925L607.921 112.521H608.921L608.916 116.662H607.917L607.913 120.805L608.913 120.806L608.909 124.947H607.91L607.906 129.089H608.905L608.901 133.231H607.902L607.898 137.373L608.898 137.374L608.895 141.516H607.896L607.892 145.658H608.891L608.887 149.8H607.888L607.886 151.871V151.872L607.887 153.843H608.886L608.887 157.783H607.887L607.888 161.724L608.887 161.723L608.888 165.663L607.888 165.664L607.889 169.604H608.889V173.544H607.889L607.89 177.484H608.89V181.425H607.891V185.365H608.891L608.892 189.306H607.892V193.246H608.892L608.893 197.186L607.893 197.187L607.894 201.127L608.893 201.126L608.894 205.066H607.894L607.895 209.007H608.895V212.947H607.895L607.896 216.888H608.896V220.828H607.896L607.896 224.769H608.896L608.897 228.709H607.897V232.649H608.897L608.898 236.589L607.898 236.59V240.529H608.898L608.899 244.47H607.899L607.9 248.41H608.899L608.9 252.351H607.9L607.901 256.291H608.901V260.231H607.901L607.902 264.172H608.902V268.112H607.903V272.053L608.903 272.052L608.904 275.992H607.904V279.933H608.904L608.905 283.873H607.905V287.813H608.905L608.906 291.754H607.906L607.907 295.694H608.907V299.635H607.907L607.908 303.575H608.908V307.515L607.908 307.516L607.909 311.455H608.909L608.91 315.396H607.91V319.336H608.91L608.911 323.276H607.911V327.217H608.911L608.912 331.157H607.912V335.098H608.912L608.913 339.038H607.913L607.914 342.979L608.914 342.978V346.918H607.914L607.915 350.858H608.915V354.799H607.915L607.916 358.739H608.916L608.917 362.68H607.917V366.62H608.917L608.918 370.561H607.918V374.501H608.918L608.919 378.44L607.919 378.441V382.381H608.92V386.321H607.92L607.921 390.262H608.921V394.202H607.921L607.922 398.143H608.922L608.923 402.083H607.922L607.923 406.023H608.923L608.924 409.964H607.924V410.934H606.935V411.933H602.955V410.934H598.976V411.933H594.997V410.934H591.018V411.933H587.038V410.934H583.059V411.933H579.08V410.934L575.101 410.933V411.933H571.121V410.933H567.143V411.933H563.163V410.933H559.184V411.933H555.204V410.933H551.226V411.933L547.246 411.932V410.933H543.267V411.932H539.288V410.933H535.309V411.932H531.329V410.933H527.35V411.932H523.371V410.933H519.392V411.932H515.412V410.932H511.434V411.932H507.454V410.932H503.475V411.932H499.495V410.932H495.517V411.932H491.537V410.932H487.558V411.932L483.578 411.931L483.579 410.932H479.6V411.931H475.62V410.932H471.641V411.931H467.662V410.932H463.683V411.931H459.703V410.932L455.724 410.931V411.931H451.745V410.931H447.766V411.931H443.786V410.931H439.808V411.931H435.828V410.931H431.849V411.931H427.869V410.931H423.891V411.93H419.911V410.931H415.932V411.93H411.953V410.931H407.974V411.93H403.994V410.931H400.015V411.93H396.036V410.93H392.057V411.93H388.077V410.93H384.099V411.93H380.119V410.93H376.14V411.93H372.16V410.93H368.182V411.93L364.202 411.929V410.93H360.223V411.929H356.244V410.93H352.265V411.929H348.285V410.93H344.306V411.929H340.327V410.929H336.348V411.929H332.368V410.929H328.39V411.929H324.41V410.929H320.431V411.929H316.451V410.929H312.473V411.929H308.493V410.929H304.514V411.929L300.535 411.928V410.929H296.556V411.928H292.576V410.929H288.597V411.928H284.618V410.929L280.639 410.928V411.928H276.659V410.928H272.681V411.928H268.701V410.928H264.722V411.928H260.742V410.928H256.764V411.928H252.784V410.928H248.805V411.928H244.826V410.928H242.835L240.946 410.931L240.947 411.931L237.171 411.937L237.169 410.937L233.392 410.942L233.394 411.942L229.616 411.948L229.615 410.948L225.838 410.954L225.839 411.954L222.062 411.96L222.061 410.961L218.283 410.967L218.284 411.966L214.507 411.972V410.973L210.729 410.979L210.73 411.978L206.953 411.983L206.952 410.984L203.176 410.99V411.989L199.398 411.995V410.996L197.51 410.999C196.8 411 196.102 411.001 195.414 411L195.413 411.997C193.993 411.996 192.617 411.99 191.284 411.981L191.29 410.985C189.869 410.976 188.496 410.963 187.17 410.943L187.155 411.941C185.73 411.92 184.357 411.892 183.033 411.854L183.061 410.856C181.641 410.817 180.28 410.766 178.973 410.704L178.925 411.703H178.914C177.474 411.634 176.099 411.548 174.781 411.447L174.857 410.452C173.436 410.343 172.085 410.213 170.799 410.06L170.681 411.05C169.244 410.878 167.883 410.679 166.589 410.442L166.769 409.459C165.377 409.205 164.069 408.91 162.832 408.569L162.567 409.53C161.19 409.151 159.891 408.719 158.657 408.218H158.658L159.034 407.292C157.775 406.781 156.588 406.2 155.455 405.541L154.953 406.405C153.769 405.718 152.64 404.946 151.547 404.082L152.167 403.299C151.151 402.496 150.164 401.607 149.189 400.623L148.48 401.325C147.55 400.386 146.635 399.363 145.721 398.253L146.49 397.62C145.668 396.622 144.845 395.547 144.01 394.391L143.2 394.975C142.433 393.911 141.657 392.783 140.867 391.584L141.702 391.035C140.981 389.941 140.247 388.785 139.492 387.566L138.642 388.092C137.946 386.968 137.235 385.792 136.504 384.562L137.363 384.052C136.69 382.918 135.999 381.737 135.286 380.507L134.424 381.006C133.758 379.855 133.072 378.663 132.367 377.426L133.234 376.933C132.575 375.776 131.896 374.58 131.197 373.344L130.329 373.835C129.671 372.672 128.994 371.475 128.298 370.24L129.167 369.749C128.828 369.149 128.484 368.54 128.136 367.923L127.146 366.171L126.275 366.661L124.297 363.158L125.167 362.667L123.188 359.164L122.317 359.654L120.338 356.151L121.209 355.66L119.229 352.156L118.359 352.647L116.38 349.144L117.251 348.653L115.271 345.149L114.4 345.641L112.421 342.138L113.292 341.646L111.313 338.143L110.442 338.634L108.463 335.131L109.334 334.639L107.354 331.136L106.483 331.627L104.505 328.123L105.376 327.632L103.396 324.129L102.525 324.62L100.547 321.116L101.418 320.625L99.4385 317.121L98.5674 317.612L96.5879 314.109H96.5889L97.459 313.618L95.4805 310.114L94.6094 310.605L92.6299 307.102L93.501 306.61L91.5215 303.107L90.6504 303.6L88.6709 300.096L89.543 299.604L87.5635 296.101L86.6924 296.591L84.7129 293.089L85.584 292.597L83.6055 289.093L82.7334 289.585L80.7549 286.081L81.626 285.59L79.6465 282.086L78.7754 282.578L76.7959 279.074L77.668 278.583L75.6885 275.079L74.8184 275.571H74.8174L72.8379 272.067H72.8389L73.709 271.575L71.7305 268.072L70.8594 268.563L68.8799 265.061H68.8809L69.751 264.568L67.7715 261.065L66.9014 261.557H66.9004L64.9209 258.054L65.793 257.562L63.8135 254.058L62.9434 254.55H62.9424L60.9629 251.047L61.835 250.555L59.8555 247.051L58.9834 247.543L57.0049 244.039H57.0059L57.876 243.548L56.8867 241.796L56.7393 241.534L56.4727 241.397L54.6953 240.479L54.2334 241.365C53.0499 240.749 51.8669 240.123 50.6846 239.489L51.1572 238.609C49.9838 237.981 48.8105 237.344 47.6377 236.7L47.1572 237.576H47.1562C45.9855 236.934 44.8172 236.281 43.6475 235.627L44.1348 234.758C42.971 234.107 41.8068 233.451 40.6436 232.79L40.1514 233.656C38.9894 232.996 37.8271 232.333 36.666 231.666L37.1641 230.801C36.0061 230.135 34.848 229.466 33.6904 228.796L33.1895 229.66C32.0319 228.99 30.8745 228.318 29.7178 227.645L30.2207 226.781C29.0644 226.108 27.9088 225.435 26.7529 224.762L26.25 225.626H26.249C25.0922 224.952 23.9353 224.28 22.7793 223.608L22.7803 223.607L23.2822 222.743C22.1238 222.07 20.9658 221.398 19.8076 220.729L19.3076 221.596L19.3066 221.597C18.146 220.927 16.9852 220.26 15.8252 219.597L15.8271 219.596L16.3242 218.728C15.1593 218.061 13.9939 217.399 12.8291 216.742L12.3379 217.612L12.3359 217.615C11.1679 216.956 10.0014 216.3 8.83398 215.653H8.83496L9.31934 214.778C8.14369 214.127 6.96759 213.481 5.79199 212.844L5.31543 213.723H5.31445C4.13483 213.083 2.95547 212.451 1.77637 211.828L2.24414 210.944C1.83028 210.726 1.41583 210.509 1.00195 210.293C1.00359 209.815 1.00514 209.337 1.00684 208.859L0.00683594 208.856C0.0116542 207.496 0.0172131 206.134 0.0224609 204.771L1.02246 204.775C1.0277 203.416 1.03247 202.054 1.03809 200.692L0.0380859 200.688C0.0393382 200.385 0.0407224 200.081 0.0419922 199.777L0.0556641 196.605L1.05566 196.609C1.0616 195.249 1.068 193.888 1.07422 192.525L0.0742188 192.521C0.0804319 191.16 0.0853451 189.798 0.0917969 188.436L0.0927734 188.437L1.09277 188.441C1.09921 187.081 1.10568 185.72 1.1123 184.358L0.112305 184.354C0.118927 182.993 0.126045 181.632 0.132812 180.271L1.13281 180.275C1.13957 178.915 1.14646 177.553 1.15332 176.191L0.15332 176.187C0.160173 174.826 0.166922 173.465 0.173828 172.103L1.17383 172.107C1.18073 170.747 1.18743 169.386 1.19434 168.024L0.194336 168.02C0.201238 166.658 0.207003 165.297 0.213867 163.935L0.214844 163.936L1.21484 163.94C1.2217 162.58 1.22858 161.218 1.23535 159.856L0.235352 159.852L0.234375 159.851C0.241144 158.49 0.247265 157.128 0.253906 155.767L0.255859 155.768L1.25586 155.772C1.2625 154.412 1.26893 153.051 1.27539 151.689L0.275391 151.685L0.273438 151.684C0.279898 150.323 0.286725 148.961 0.292969 147.6L0.294922 147.601L1.29492 147.605C1.30116 146.244 1.30652 144.883 1.3125 143.521L0.3125 143.517C0.318476 142.156 0.323433 140.794 0.329102 139.433L0.330078 139.434L1.33008 139.438C1.33574 138.076 1.34136 136.715 1.34668 135.354L0.34668 135.35L0.345703 135.349C0.351017 133.987 0.35641 132.626 0.361328 131.265L0.362305 131.266L1.3623 131.27C1.36722 129.908 1.3715 128.547 1.37598 127.186L0.375977 127.183L0.374023 127.182C0.3785 125.82 0.383705 124.459 0.387695 123.098L0.388672 123.099L1.38867 123.102C1.39266 121.74 1.39693 120.379 1.40039 119.018L0.400391 119.015L0.398438 119.014C0.401897 117.653 0.404342 116.292 0.407227 114.931L0.410156 114.932L1.41016 114.934C1.41304 113.572 1.41473 112.211 1.41699 110.85L0.416992 110.848L0.416016 110.847C0.418282 109.485 0.419297 108.124 0.420898 106.763L0.422852 106.764L1.42285 106.765C1.42445 105.403 1.42587 104.042 1.42676 102.681L0.426758 102.68H0.424805C0.425696 101.318 0.428576 99.9574 0.428711 98.5967H1.42871C1.42885 97.2348 1.4284 95.8728 1.42773 94.5117L0.427734 94.5127H0.425781C0.425114 93.1509 0.42339 91.7896 0.421875 90.4287H0.424805L1.4248 90.4277C1.42329 89.0659 1.42136 87.7046 1.41895 86.3438L0.418945 86.3457H0.416992C0.41458 84.9838 0.41058 83.6225 0.407227 82.2617H0.410156L1.41016 82.2598C1.4068 80.8977 1.40278 79.5357 1.39844 78.1748L0.398438 78.1777H0.396484C0.392136 76.8157 0.38722 75.4544 0.381836 74.0938H0.383789L1.38379 74.0898C1.3784 72.7281 1.37268 71.3671 1.36621 70.0068L0.366211 70.0107H0.362305C0.355825 68.6486 0.351361 67.2873 0.34375 65.9268H0.344727L1.34473 65.9209C1.33711 64.5586 1.32911 63.1966 1.32031 61.8359L0.320312 61.8428H0.317383C0.308573 60.4809 0.298124 59.1199 0.288086 57.7598H0.291992L1.29199 57.752C1.28194 56.39 1.2711 55.029 1.25977 53.6689L0.258789 53.6768C0.247436 52.3141 0.235339 50.9524 0.222656 49.5918L1.22363 49.583C1.21093 48.2203 1.19768 46.8585 1.18359 45.498L0.182617 45.5088C0.168518 44.1466 0.154202 42.7856 0.138672 41.4258H0.139648L1.13965 41.4141C1.12409 40.0515 1.10786 38.6902 1.09082 37.3301L0.0908203 37.3428H0.0898438C0.0727678 35.9802 0.0547457 34.6188 0.0361328 33.2588H0.0371094L1.03711 33.2451C1.03059 32.7686 1.02332 32.2917 1.0166 31.8154C1.43813 31.5922 1.86002 31.3696 2.28125 31.1455L1.81152 30.2617L1.81055 30.2598C3.01139 29.621 4.21142 28.9793 5.41016 28.334L5.41113 28.3359L5.88477 29.2168C7.08386 28.5713 8.28248 27.9225 9.47949 27.2715L9.00195 26.3926L9.00098 26.3916C10.1937 25.7429 11.3861 25.0929 12.5771 24.4395L12.584 24.4355L13.0654 25.3125C14.2592 24.6576 15.4524 24.0004 16.6445 23.3418L16.1602 22.4658L16.1592 22.4648C17.3502 21.8068 18.5407 21.1473 19.7305 20.4863L19.7314 20.4873L20.2168 21.3623C21.4069 20.7012 22.5972 20.038 23.7861 19.375L23.2988 18.502L23.2969 18.5C24.4855 17.8371 25.6744 17.1747 26.8623 16.5107L26.8633 16.5117L27.3506 17.3848C28.5387 16.7207 29.7267 16.0558 30.9141 15.3916L30.4258 14.5195C31.6137 13.855 32.8017 13.1912 33.9893 12.5273L34.4775 13.3994C35.6655 12.7354 36.8534 12.0715 38.041 11.4092L37.5537 10.5361L37.5527 10.5352C38.742 9.87192 39.9327 9.21249 41.1221 8.55176L41.6064 9.42383C42.7959 8.76303 43.9852 8.10357 45.1748 7.44629L44.6914 6.57227C45.8833 5.91372 47.0752 5.25676 48.2676 4.60254L48.749 5.47852C49.3448 5.15164 49.9402 4.82462 50.5361 4.49902L50.5371 4.5C51.0739 4.20675 51.6585 3.93412 52.2871 3.68262L51.916 2.75391C53.103 2.27903 54.4182 1.88327 55.8311 1.55273L56.0586 2.52539C57.2979 2.23546 58.6218 1.99647 60.0088 1.80078L59.8691 0.810547C61.1847 0.624939 62.5504 0.478493 63.9482 0.364258L64.0293 1.36133C65.3544 1.25303 66.7111 1.17337 68.084 1.11719L68.043 0.119141C69.4021 0.0635196 70.7746 0.0311535 72.1455 0.0146484L72.1572 1.0127C73.5239 0.996242 74.8909 0.996956 76.2422 1.00781L76.249 0.0107422C77.64 0.021912 79.0136 0.0419735 80.3535 0.0693359L80.334 1.06836C81.7427 1.09713 83.1142 1.13187 84.4326 1.16406L84.457 0.164062V0.163086C85.8996 0.198309 87.2748 0.230553 88.5576 0.250977V0.251953L88.542 1.25195C89.258 1.26335 89.9474 1.27137 90.6045 1.27344H90.6055L92.6738 1.27637L92.6748 0.276367L96.8115 0.282227V1.28223L100.948 1.28906L100.95 0.289062V0.288086L105.086 0.294922V1.29492L109.223 1.30078L109.224 0.300781L113.36 0.306641V1.30664L117.497 1.31348V0.313477L121.635 0.319336L121.634 1.31934L125.771 1.3252V0.325195L129.91 0.331055V0.332031L129.908 1.33203L134.046 1.33789V0.337891L138.184 0.34375L138.183 1.34375L142.319 1.34961L142.32 0.349609L146.457 0.356445V1.35645L150.594 1.3623L150.595 0.362305L154.731 0.368164V1.36816L156.8 1.37207H156.801L158.801 1.37109V0.371094H162.801V1.37109H166.801V0.371094L170.801 0.370117V1.37109L174.801 1.37012V0.370117H178.801V1.37012H182.801V0.370117L186.801 0.369141V1.36914H190.801V0.369141H194.801V1.36914H198.801V0.368164H202.801V1.36816H206.801V0.368164H210.801V1.36816L214.801 1.36719V0.367188H218.801V1.36719H222.801V0.367188L226.801 0.366211V1.36719L230.801 1.36621V0.366211H234.801V1.36621H238.801V0.366211L242.801 0.365234V1.36523H246.801V0.365234H250.801V1.36523H254.801V0.364258H258.801V1.36426H262.801V0.364258H266.801V1.36426L270.801 1.36328V0.363281H274.801V1.36328H278.801V0.363281L282.801 0.362305V1.36328L286.801 1.3623V0.362305H290.801V1.3623H294.801V0.362305L298.801 0.361328V1.3623L302.801 1.36133V0.361328H306.801V1.36133H308.801C309.337 1.36129 309.97 1.36106 310.695 1.36035L310.694 0.360352L310.693 0.357422C311.829 0.356313 313.191 0.3532 314.763 0.350586L314.764 0.354492L314.765 1.35449C315.98 1.35247 317.322 1.34951 318.781 1.34668L318.779 0.34668L318.778 0.34375C320.044 0.3413 321.399 0.339912 322.838 0.336914L322.839 0.338867L322.841 1.33887C324.151 1.33614 325.531 1.33322 326.978 1.33008L326.976 0.330078C328.24 0.327334 329.554 0.324318 330.917 0.321289L330.919 1.32129C332.243 1.31835 333.613 1.31569 335.026 1.3125L335.024 0.3125L335.023 0.311523C336.318 0.308604 337.648 0.305838 339.014 0.302734L339.016 1.30273C340.348 1.29971 341.713 1.29713 343.109 1.29395L343.107 0.293945C344.412 0.29097 345.743 0.287277 347.101 0.28418L347.102 0.285156L347.104 1.28516C348.448 1.28209 349.819 1.27856 351.214 1.27539L351.212 0.275391C352.517 0.272421 353.843 0.269651 355.189 0.266602L355.191 1.2666C356.538 1.26355 357.904 1.25995 359.29 1.25684L359.288 0.256836C360.604 0.253874 361.938 0.251061 363.288 0.248047L363.29 1.24805C364.624 1.24507 365.974 1.24228 367.34 1.23926L367.338 0.240234C368.679 0.23727 370.034 0.234441 371.403 0.231445L371.406 1.23047C372.73 1.22757 374.066 1.22459 375.415 1.22168L375.413 0.222656C376.762 0.219741 378.123 0.216794 379.495 0.213867L379.497 1.21289C380.826 1.21006 382.166 1.20694 383.516 1.2041L383.514 0.205078C384.849 0.20227 386.195 0.20007 387.55 0.197266L387.552 1.19531C388.904 1.19251 390.266 1.19029 391.637 1.1875L391.635 0.188477C392.961 0.185777 394.296 0.18237 395.638 0.179688L395.641 1.17969C396.983 1.177 398.332 1.17356 399.688 1.1709L399.687 0.170898C401.034 0.168256 402.388 0.165699 403.749 0.163086L403.751 1.16309C405.085 1.16052 406.425 1.15878 407.771 1.15625L407.769 0.15625C409.114 0.153723 410.465 0.151901 411.82 0.149414L411.822 1.14844C413.168 1.14597 414.519 1.14305 415.874 1.14062L415.872 0.142578C417.211 0.140184 418.554 0.139063 419.9 0.136719L419.901 1.13379C421.248 1.13145 422.599 1.12924 423.952 1.12695L423.95 0.129883C425.296 0.127607 426.646 0.125262 427.998 0.123047L427.999 1.12012C429.341 1.11792 430.687 1.11541 432.034 1.11328L432.032 0.116211C433.379 0.114078 434.728 0.111437 436.079 0.109375L436.081 1.10742C437.428 1.10537 438.777 1.10354 440.127 1.10156L440.125 0.103516C441.47 0.101542 442.817 0.0985725 444.164 0.0966797L444.166 1.0957C445.513 1.09381 446.861 1.09165 448.209 1.08984L448.208 0.0898438C449.556 0.0880374 450.904 0.0856993 452.252 0.0839844L452.253 0.0849609L452.254 1.08496C453.602 1.08325 454.951 1.0817 456.298 1.08008L456.297 0.0800781C457.644 0.0784596 458.991 0.0767116 460.336 0.0751953L460.337 1.0752C461.687 1.07367 463.035 1.07173 464.382 1.07031L464.381 0.0712891C465.732 0.0698715 467.081 0.0677094 468.429 0.0664062L468.43 1.06641C469.777 1.0651 471.122 1.06368 472.464 1.0625V0.0625C473.815 0.061309 475.164 0.0596579 476.509 0.0585938V0.0595703L476.51 1.05957C477.864 1.0585 479.215 1.05758 480.562 1.05664L480.561 0.0566406C481.908 0.0557039 483.251 0.0554843 484.59 0.0546875L484.591 1.05371C485.945 1.05291 487.295 1.05241 488.64 1.05176V0.0527344C489.996 0.0520721 491.347 0.0503096 492.692 0.0498047L492.693 1.0498C494.039 1.0493 495.379 1.04917 496.713 1.04883V0.0478516C498.073 0.0475035 499.426 0.0480236 500.772 0.0478516L500.773 1.04785C502.13 1.04768 503.481 1.04784 504.823 1.04785V0.0488281C506.166 0.04884 507.501 0.0486246 508.828 0.0488281V1.04785C510.197 1.04806 511.558 1.04841 512.909 1.04883V0.0498047C514.265 0.0502272 515.612 0.050139 516.948 0.0507812V1.05078C518.296 1.05143 519.635 1.05186 520.962 1.05273V0.0527344C522.335 0.0536437 523.697 0.0564526 525.047 0.0576172V1.05566C526.397 1.05683 527.734 1.05814 529.059 1.05957V0.0615234C530.426 0.0629982 531.78 0.0646415 533.119 0.0664062V1.06445C534.486 1.06625 535.838 1.0682 537.173 1.07031V0.0712891C538.521 0.0734223 539.853 0.0746877 541.168 0.0771484L541.167 1.07715C542.554 1.07974 543.922 1.08297 545.27 1.08594L545.271 0.0859375C546.618 0.0889102 547.946 0.0913662 549.252 0.0947266L549.25 1.09473C550.643 1.09831 552.012 1.10241 553.355 1.10645L553.357 0.107422C554.717 0.11151 556.05 0.115549 557.356 0.120117L557.354 1.11914C558.749 1.12402 560.111 1.12932 561.441 1.13477L561.444 0.135742C562.811 0.141335 564.144 0.146136 565.439 0.152344L565.436 1.15234C566.847 1.1591 568.215 1.16631 569.537 1.17383L569.542 0.174805C570.903 0.182537 572.215 0.189685 573.478 0.198242L573.472 1.19824C574.921 1.20807 576.303 1.21854 577.615 1.22949L577.623 0.231445C579.061 0.243446 580.414 0.256127 581.679 0.269531L581.669 1.26758C583.127 1.28304 584.467 1.29998 585.68 1.31738L585.693 0.319336C587.267 0.341916 588.629 0.364612 589.763 0.390625L589.74 1.38965C590.42 1.40525 591.016 1.42167 591.525 1.43848C592.131 1.57776 592.718 1.72984 593.286 1.89648L593.566 0.9375C594.886 1.32479 596.115 1.78427 597.254 2.31641L596.831 3.22266C598.013 3.77481 599.088 4.40582 600.062 5.1123L600.649 4.30273C601.734 5.08889 602.704 5.9681 603.565 6.93945L602.818 7.60254C603.635 8.52403 604.349 9.5353 604.963 10.6367L605.836 10.1494V10.1484C606.459 11.266 606.981 12.4691 607.409 13.7559L606.461 14.0713C606.843 15.2204 607.147 16.4454 607.374 17.7471L608.358 17.5752C608.575 18.8181 608.722 20.1226 608.803 21.4883L607.807 21.5479C607.844 22.1752 607.867 22.8168 607.875 23.4727C607.883 24.105 607.89 24.7378 607.897 25.3701L608.894 25.3584C608.908 26.6242 608.923 27.8898 608.934 29.1553H608.935L607.935 29.1641C607.945 30.4291 607.955 31.6941 607.963 32.959L608.96 32.9531C608.968 34.2188 608.974 35.4845 608.979 36.75L607.982 36.7539C607.988 38.0191 607.991 39.2846 607.994 40.5498L608.993 40.5479Z" stroke="#6E6E6E" stroke-width="2" stroke-dasharray="4 4"/>
</svg>
