<svg width="584" height="381" viewBox="0 0 584 381" fill="none" xmlns="http://www.w3.org/2000/svg">
<path d="M0.180664 98.4443C0.176075 99.784 0.171448 101.123 0.166992 102.462H0.166016L1.16602 102.466C1.16156 103.805 1.15756 105.145 1.15332 106.483L0.155273 106.479C0.151026 107.819 0.147505 109.158 0.143555 110.497L1.14062 110.5C1.13667 111.84 1.13346 113.179 1.12988 114.518L0.131836 114.515C0.128258 115.855 0.124209 117.194 0.121094 118.533L1.11914 118.535C1.11602 119.875 1.1139 121.214 1.11133 122.553L0.112305 122.551C0.10973 123.891 0.107413 125.23 0.105469 126.568L1.10449 126.569C1.10255 127.909 1.10084 129.249 1.09961 130.587L0.101562 130.586C0.10033 131.926 0.0980883 133.265 0.0976562 134.604H1.09668C1.09646 135.273 1.09668 135.942 1.09668 136.611L1.0957 138.58H0.0966797L0.0957031 142.517L1.09473 142.518L1.09375 146.455L0.0947266 146.454L0.09375 150.392H1.09277L1.0918 154.329H0.0927734L0.0917969 158.267H1.09082L1.08984 162.204H0.0908203L0.0898438 166.142H1.08984L1.08887 170.079H0.0888672L0.0878906 174.016L1.08789 174.017L1.08691 177.954L0.0869141 177.953L0.0859375 181.891H1.08594L1.08496 185.828H0.0849609L0.0839844 189.766H1.08398L1.08301 193.703H0.0830078L0.0820312 197.641H1.08203L1.08105 201.578H0.0810547L0.0800781 205.515L1.08008 205.516L1.0791 209.453L0.0791016 209.452L0.078125 213.39H1.07812L1.07715 217.327H0.0771484L0.0761719 221.265H1.07617L1.0752 225.202H0.0751953L0.0742188 229.14H1.07422L1.07324 233.077H0.0732422L0.0722656 237.014L1.07227 237.015L1.07129 240.952L0.0712891 240.951L0.0703125 244.889H1.07031L1.06934 248.826H0.0693359L0.0683594 252.764H1.06836L1.06738 256.701H0.0673828L0.0664062 260.639H1.06641L1.06543 264.576H0.0654297L0.0644531 268.513L1.06445 268.514L1.06348 272.451L0.0634766 272.45L0.0625 276.388H1.0625L1.06152 280.325H0.0615234L0.0605469 284.263H1.06055L1.05957 288.2H0.0595703L0.0585938 292.138H1.05859L1.05762 296.075L0.0576172 296.074L0.0566406 300.012L1.05664 300.013L1.05566 303.949H0.0556641L0.0546875 307.887H1.05469L1.05371 311.824H0.0537109L0.0527344 315.762H1.05273L1.05176 319.699H0.0517578L0.0507812 323.637H1.05078L1.0498 327.574L0.0498047 327.573L0.0488281 331.511L1.04883 331.512L1.04785 335.448H0.0478516L0.046875 339.386H1.04688L1.0459 343.323H0.0458984L0.0449219 347.261H1.04492L1.04395 351.198H0.0439453L0.0429688 355.136H1.04297L1.04199 359.073L0.0419922 359.072L0.0410156 363.01H1.04102L1.04004 366.947H0.0400391L0.0390625 370.885H1.04004L1.03906 374.822H0.0380859V378.76H1.03809V379.729H2.04199V380.728H6.05078V379.728H10.0605V380.728H14.0693V379.728H18.0781L18.0791 380.727H22.0879V379.727H26.0967V380.727H30.1064V379.727H34.1152V380.726H38.125L38.124 379.726H42.1338V380.726H46.1426V379.726H50.1523V380.725H54.1611V379.725H58.1709V380.725H62.1797V379.725L66.1885 379.724V380.724H70.1982V379.724H74.207V380.724H78.2168V379.724L82.2256 379.723V380.723H86.2344V379.723H90.2441V380.723L94.2529 380.722V379.723L98.2627 379.722V380.722H102.271V379.722H106.28V380.722H106.281L110.29 380.721V379.722L114.299 379.721V380.721H118.309V379.721H122.317V380.721L126.327 380.72L126.326 379.721L130.336 379.72V380.72H134.345V379.72H138.354V380.72L142.363 380.719V379.72L146.372 379.719L146.373 380.719H150.382V379.719H154.391V380.719L158.4 380.718V379.719L162.409 379.718V380.718H166.419V379.718H170.428V380.718L174.437 380.717V379.718L178.446 379.717V380.717H182.455V379.717H186.465V380.717L190.474 380.716V379.717L194.482 379.716V380.716H198.492V379.716H202.501V380.716L206.511 380.715V379.716L210.52 379.715V380.715H214.528V379.715H218.538V380.715L222.547 380.714V379.715L226.557 379.714V380.714H230.565V379.714H234.574V380.714H234.575L238.584 380.713V379.714L242.593 379.713V380.713H246.603V379.713H250.611V380.713L254.621 380.712L254.62 379.713L258.63 379.712V380.712H262.639V379.712H266.648V380.712L270.657 380.711V379.712L274.666 379.711L274.667 380.711H278.676V379.711H282.685V380.71H286.694V379.711L290.703 379.71V380.71H294.713V379.71H298.722V380.709H302.73V379.71L306.74 379.709V380.709H310.749V379.709H314.759V380.708H318.768V379.709L322.776 379.708V380.708H326.786V379.708H330.795V380.707H334.805V379.708L338.813 379.707V380.707H342.822V379.707H346.832V380.706H350.841V379.707L354.851 379.706V380.706H358.859V379.706H360.864C361.497 379.706 362.134 379.708 362.772 379.71L362.769 380.71V380.712C364.029 380.717 365.3 380.724 366.58 380.735V380.734L366.589 379.734C367.853 379.745 369.125 379.759 370.404 379.774L370.392 380.774V380.778C371.656 380.794 372.927 380.807 374.203 380.824L374.217 379.824C375.495 379.842 376.741 379.859 378.027 379.876L378.016 380.875C379.283 380.892 380.554 380.908 381.826 380.924L381.838 379.926C383.106 379.941 384.376 379.954 385.646 379.966L385.638 380.964C386.908 380.975 388.179 380.984 389.449 380.99L389.453 379.993C390.724 379.999 391.993 380.001 393.259 379.999L393.261 380.997C394.535 380.995 395.806 380.989 397.072 380.978L397.062 379.98C398.335 379.969 399.603 379.952 400.864 379.929L400.883 380.927C402.16 380.903 403.431 380.874 404.693 380.836L404.663 379.838C405.938 379.8 407.204 379.754 408.46 379.699L408.503 380.696C409.783 380.641 411.052 380.578 412.31 380.503L412.25 379.505C412.884 379.467 413.514 379.427 414.142 379.384L414.6 379.349C415.053 379.309 415.494 379.255 415.921 379.19L416.07 380.179C417.384 379.98 418.589 379.669 419.697 379.261L419.352 378.325C420.501 377.902 421.531 377.367 422.458 376.736L423.021 377.562C424.068 376.85 424.994 376.021 425.814 375.093L425.065 374.432C425.831 373.565 426.502 372.601 427.089 371.552L427.96 372.039C428.557 370.973 429.068 369.832 429.503 368.631L428.563 368.291C428.963 367.188 429.299 366.026 429.581 364.819L430.554 365.045C430.832 363.852 431.059 362.623 431.24 361.367L430.25 361.226C430.423 360.029 430.555 358.807 430.654 357.568L431.65 357.647C431.75 356.411 431.817 355.162 431.86 353.911L430.862 353.878C430.905 352.642 430.924 351.402 430.927 350.169L431.927 350.17C431.93 348.988 431.918 347.814 431.898 346.658L431.894 346.429L430.895 346.446C430.872 345.177 430.84 343.928 430.81 342.71L431.81 342.685L431.811 342.684C431.778 341.393 431.747 340.141 431.727 338.942L431.726 338.943L430.726 338.96C430.715 338.321 430.707 337.695 430.705 337.086C430.7 336.42 430.695 335.754 430.69 335.088L431.69 335.081L431.692 335.08C431.683 333.748 431.674 332.416 431.667 331.084L431.666 331.085L430.666 331.091C430.659 329.758 430.652 328.425 430.647 327.093L431.647 327.09L431.648 327.089C431.644 325.757 431.64 324.425 431.638 323.093L431.637 323.094L430.637 323.096L430.632 319.099H431.632L431.634 319.098C431.633 317.766 431.633 316.434 431.635 315.103H431.634L430.634 315.102C430.635 313.769 430.638 312.437 430.642 311.104L431.642 311.106H431.643C431.646 309.775 431.651 308.443 431.657 307.111L430.656 307.106C430.662 305.774 430.669 304.442 430.677 303.109L431.677 303.115H431.678C431.686 301.784 431.695 300.452 431.705 299.12H431.704L430.704 299.112C430.709 298.446 430.714 297.78 430.72 297.114L430.724 296.717L430.999 296.43L432.333 295.044L433.053 295.738L433.056 295.74C433.941 294.823 434.833 293.902 435.73 292.981L435.729 292.98L435.013 292.282C435.905 291.367 436.802 290.45 437.705 289.532L438.418 290.233H438.419C439.314 289.323 440.215 288.413 441.12 287.5L441.118 287.499L440.408 286.795C441.308 285.887 442.213 284.978 443.121 284.067L443.829 284.773L443.831 284.774C444.734 283.87 445.641 282.964 446.551 282.058L446.549 282.057L445.843 281.349C446.749 280.446 447.659 279.542 448.571 278.638L449.274 279.349L449.276 279.35C450.185 278.449 451.095 277.546 452.009 276.645L451.307 275.934C452.218 275.035 453.131 274.135 454.046 273.235L454.747 273.949H454.748C455.661 273.052 456.576 272.154 457.491 271.257H457.49L456.791 270.543C457.706 269.646 458.622 268.749 459.538 267.854L460.237 268.568L460.239 268.569C461.156 267.674 462.073 266.779 462.989 265.884L462.987 265.883L462.289 265.167C463.206 264.272 464.123 263.376 465.04 262.482L465.738 263.198C466.657 262.303 467.575 261.408 468.491 260.515L467.793 259.8C468.712 258.904 469.629 258.009 470.545 257.116L471.244 257.832C472.163 256.936 473.079 256.04 473.994 255.146L473.296 254.433C474.215 253.536 475.131 252.641 476.045 251.747L476.742 252.459C477.66 251.561 478.577 250.667 479.489 249.772L478.789 249.06C479.707 248.16 480.621 247.262 481.531 246.366L482.232 247.078C483.149 246.177 484.061 245.277 484.969 244.38L484.267 243.67C484.723 243.219 485.178 242.77 485.632 242.32V242.319L487.062 240.906L487.765 241.616L490.622 238.789L489.919 238.079L492.777 235.251L493.48 235.961L496.339 233.134L495.636 232.424L498.493 229.597L499.197 230.307L502.055 227.479L501.352 226.77L504.21 223.942L504.913 224.652L507.771 221.825L507.068 221.115L509.926 218.287L510.629 218.998H510.63L513.488 216.171L512.784 215.46L515.643 212.633L516.346 213.343L519.204 210.516L518.5 209.806L521.358 206.979L522.062 207.688L524.92 204.861L524.217 204.151L527.075 201.324L527.778 202.034L530.637 199.207H530.636L529.933 198.496L532.791 195.669L533.495 196.38L536.353 193.552L535.649 192.842L538.507 190.015L539.211 190.725L542.068 187.897L541.365 187.188L544.224 184.36L544.927 185.07L547.786 182.243L547.082 181.532L549.939 178.705L550.643 179.416H550.644L553.502 176.589L552.798 175.878L555.656 173.051L556.359 173.761L559.218 170.934L558.514 170.224L561.372 167.396L562.076 168.107L564.935 165.279H564.934L564.23 164.568L567.089 161.741L567.793 162.452L570.65 159.625H570.649L569.946 158.914L572.805 156.087L573.509 156.798L576.367 153.971L575.663 153.26L578.521 150.433L579.225 151.143L582.083 148.315H582.082L581.379 147.604L582.521 146.476C582.532 145.933 582.544 145.389 582.556 144.845L583.555 144.864C583.583 143.508 583.61 142.148 583.636 140.784L582.637 140.767C582.662 139.411 582.685 138.051 582.707 136.688L583.707 136.703C583.729 135.346 583.749 133.985 583.769 132.622L582.77 132.609C582.789 131.253 582.807 129.893 582.823 128.53L583.822 128.541C583.839 127.183 583.854 125.823 583.868 124.46L582.868 124.451C582.882 123.094 582.895 121.735 582.906 120.373L583.905 120.38C583.917 119.022 583.927 117.662 583.937 116.3L582.937 116.295C582.946 114.937 582.954 113.577 582.961 112.216L583.961 112.22C583.968 110.861 583.972 109.501 583.977 108.139L582.979 108.137C582.984 106.778 582.988 105.418 582.991 104.057L583.989 104.058C583.992 102.699 583.996 101.338 583.997 99.9766H582.998C582.999 98.6179 583 97.2575 583 95.8965H583.997C583.997 94.5369 584 93.1761 583.998 91.8145L583.997 91.8154L582.997 91.8164C582.995 90.4576 582.993 89.0978 582.99 87.7373L583.988 87.7344L583.979 83.6543L582.979 83.6572C582.975 82.2978 582.971 80.9376 582.966 79.5771L583.965 79.5732C583.96 78.2135 583.954 76.8535 583.947 75.4932L582.948 75.4971C582.942 74.1372 582.935 72.7771 582.928 71.417L583.928 71.4121C583.921 70.0517 583.913 68.6913 583.905 67.3311L582.905 67.3369C582.897 65.9768 582.889 64.6166 582.881 63.2568L583.881 63.25L583.882 63.249C583.873 61.8889 583.864 60.5292 583.855 59.1699L582.855 59.1758C582.846 57.8153 582.837 56.4551 582.827 55.0957L583.827 55.0889L583.828 55.0879C583.819 53.7268 583.809 52.3664 583.8 51.0068L583.799 51.0078L582.799 51.0156C582.789 49.6545 582.779 48.2938 582.77 46.9346L583.77 46.9268L583.771 46.9258C583.761 45.5643 583.751 44.2039 583.741 42.8447L583.74 42.8457L582.74 42.8535C582.73 41.492 582.721 40.1314 582.711 38.7725L583.711 38.7656L583.712 38.7646C583.702 37.4028 583.693 36.0424 583.684 34.6836L583.682 34.6846L582.682 34.6914C582.672 33.3295 582.663 31.9689 582.653 30.6104L583.653 30.6035L583.657 30.6025C583.648 29.2407 583.64 27.8806 583.631 26.5225L583.626 26.5234L582.626 26.5303C582.617 25.1681 582.609 23.8073 582.601 22.4492L583.601 22.4434L583.604 22.4424C583.596 21.0801 583.585 19.72 583.577 18.3623L582.577 18.3682C582.57 17.0051 582.562 15.6443 582.556 14.2861L583.556 14.2812L583.558 14.2803C583.551 12.9173 583.543 11.5568 583.537 10.1992L583.536 10.2002L582.536 10.2041C582.53 8.84057 582.525 7.47981 582.521 6.12207L583.521 6.11816L583.523 6.11719C583.519 4.75373 583.514 3.39332 583.511 2.03613L583.509 2.03711L582.509 2.04004C582.508 1.69317 582.507 1.34645 582.506 1H581.506V0H577.51V1H573.513V0H569.517V1L565.52 1.00098V0H561.522V1.00098H557.526V0H553.529V0.000976562L553.53 1.00098H549.533V0L545.537 0.000976562V1.00098H541.54V0.000976562H537.543V1.00098H533.547V0.000976562H529.55V0.00195312L529.551 1.00195H525.554V0.000976562H521.557V0.00195312L521.558 1.00195H517.561V0.000976562L513.563 0.00195312V1.00195H509.567V0.00195312H505.57V1.00195H501.574V0.00195312H497.577V1.00293H493.581V0.00195312H489.584V1.00293H485.588V0.00195312H481.591V1.00293H477.595V0.00292969H473.598V1.00293H469.602V0.00292969H465.604V1.00293L461.608 1.00391V0.00292969H457.611V1.00391H453.615V0.00292969H449.618V1.00391H445.621V0.00390625H441.625V1.00391H437.628V0.00390625H433.632V1.00391L429.635 1.00488V0.00390625H425.639V1.00488H421.642V0.00390625H417.646V1.00488H413.648V0.00390625L409.652 0.00488281V1.00488H405.655V0.00488281H401.659V1.00488L397.662 1.00586V0.00488281H393.666V1.00586H389.669V0.00488281H385.672V1.00586H381.676V0.00488281H377.679V1.00586H373.683V0.00585938H369.686V1.00586H365.689V0.00585938H361.692V1.00684H357.696V0.00585938H353.699V1.00684H349.703V0.00585938H345.706V1.00684H341.71V0.00683594H337.713V1.00684H333.717V0.00683594H329.72V1.00781H325.724V0.00683594H321.727V1.00781H317.729V0.00683594H313.733V1.00781H309.736V0.00683594L305.74 0.0078125V1.00781H301.743V0.0078125H297.747V1.00781L293.75 1.00879V0.0078125H289.754V1.00879H285.757V0.0078125H281.761V1.00879H277.764V0.0078125L273.768 0.00878906V1.00879H269.771V0.00878906H265.774V1.00879L261.777 1.00977V0.00878906H257.78V0.00976562L257.781 1.00977H253.784V0.00878906H249.787V1.00977H245.791V0.00878906H241.794V1.00977H237.798V0.00976562H233.801V1.00977H229.805V0.00976562H225.808V1.01074H221.812V0.00976562H217.814V1.01074H213.818V0.00976562H209.821V1.01074H205.825V0.0107422H201.828V1.01074H197.832V0.0107422H193.835V1.01172H189.839V0.0107422H185.842V1.01172H181.846V0.0107422H177.849V1.01172H173.853V0.0107422L169.855 0.0117188V1.01172H165.859V0.0117188H161.862V1.01172L157.866 1.0127V0.0117188H153.869V1.0127H149.873V0.0117188H145.876V1.0127H141.88V0.0117188H137.883V1.0127H133.887V0.0126953H129.89V1.0127L125.893 1.01367V0.0126953H121.896V1.01367H117.899V0.0126953H113.903V1.01367H109.906V0.0126953H105.91V1.01367H101.913V0.0136719H97.917V1.01367H93.9199V0.0136719H89.9238V1.01465H85.9268V0.0136719H81.9307V1.01465H77.9336V0.0136719H73.9375V1.01465H69.9404V0.0136719L65.9443 0.0146484V1.01465H61.9473V0.0146484H57.9512V1.01562H53.9541V0.0146484H49.958V1.01562H45.9609V0.0146484H41.9639V0.015625L41.9648 1.01562H37.9678V0.0146484L33.9707 0.015625V1.01562H29.9746V0.015625H25.9775V1.0166H21.9814V0.015625H17.9844V1.0166H13.9883V0.015625H9.99121V1.0166H5.99512V0.015625H1.99805V1.0166H1.01367C1.01797 1.34824 1.02218 1.67994 1.02637 2.01172L0.0263672 2.02441H0.0244141C0.0412909 3.36251 0.057252 4.70173 0.0722656 6.04199H0.0742188L1.07422 6.03027C1.08921 7.36883 1.10299 8.70924 1.11621 10.0498L0.116211 10.0596H0.115234C0.128431 11.3978 0.139855 12.737 0.151367 14.0771H0.15332L1.15332 14.0684C1.16482 15.407 1.17565 16.7465 1.18555 18.0869L0.185547 18.0947H0.18457C0.194454 19.4328 0.202563 20.7717 0.210938 22.1113H0.212891L1.21289 22.1055C1.22126 23.4442 1.22841 24.7838 1.23535 26.124L0.235352 26.1289C0.242288 27.4677 0.247333 28.8073 0.25293 30.1475H0.253906L1.25391 30.1426C1.2595 31.4814 1.26519 32.8211 1.26953 34.1611L0.269531 34.165C0.273862 35.5033 0.276136 36.8422 0.279297 38.1816H0.280273L1.28027 38.1797C1.28343 39.5186 1.28601 40.8584 1.28809 42.1982H0.289062C0.291133 43.5373 0.290926 44.8769 0.291992 46.2168H0.292969L1.29297 46.2158C1.29403 47.5549 1.29478 48.8946 1.29492 50.2344H0.293945C0.294089 51.5733 0.293665 52.9125 0.292969 54.252H0.293945L1.29395 54.2529C1.29325 55.5919 1.29247 56.9311 1.29102 58.2705L0.291016 58.2695L0.290039 58.2686C0.288585 59.6076 0.287287 60.9468 0.285156 62.2861V62.2871L1.28516 62.2891C1.28303 63.6281 1.28105 64.9674 1.27832 66.3066L0.27832 66.3047L0.277344 66.3037C0.274618 67.6428 0.271795 68.9821 0.268555 70.3213V70.3223L1.26855 70.3242C1.26531 71.6635 1.26246 73.0035 1.25879 74.3428L0.258789 74.3398L0.256836 74.3389C0.253162 75.6781 0.249144 77.0173 0.245117 78.3564L0.24707 78.3574L1.24707 78.3604C1.24304 79.6997 1.23867 81.0389 1.23438 82.3779L0.234375 82.375L0.233398 82.374C0.229098 83.7134 0.226172 85.0526 0.22168 86.3916V86.3926L1.22168 86.3955C1.21719 87.7349 1.21261 89.0743 1.20801 90.4131L0.208008 90.4102V90.4092C0.203401 91.749 0.198972 93.0886 0.194336 94.4277H0.193359L1.19336 94.4307C1.18872 95.7702 1.18427 97.1095 1.17969 98.4482L0.180664 98.4443Z" stroke="#6E6E6E" stroke-width="2" stroke-dasharray="4 4"/>
</svg>
