<svg width="1850" height="1028" viewBox="0 0 1850 1028" fill="none" xmlns="http://www.w3.org/2000/svg">
<path d="M1669.77 1028H180.233L158.202 1006.59L53.3393 995.564C41.0064 994.269 31.6626 984.264 31.6626 972.348V713.053C31.6626 700.33 42.2906 689.943 55.5534 689.688L101.32 689.072C106.125 689.008 107.409 682.699 102.981 680.915L31.6626 651.899V385.341L101.852 357.345C106.324 355.56 104.996 349.188 100.147 349.188H24.3558C10.8937 349.188 0 338.716 0 325.822V54.2931C0 42.0368 9.85306 31.8621 22.5845 30.97L163.848 21.1565L184.772 0H1665.23L1686.15 21.1565L1827.42 30.97C1840.15 31.8621 1850 42.0368 1850 54.2931V325.822C1850 338.716 1839.11 349.188 1825.64 349.188H1749.85C1745 349.188 1743.68 355.56 1748.15 357.345L1818.34 385.341V651.899L1747 680.915C1742.59 682.699 1743.88 689.008 1748.68 689.072L1794.45 689.688C1807.71 689.943 1818.34 700.33 1818.34 713.053V972.348C1818.34 984.264 1808.99 994.269 1796.64 995.564L1691.8 1006.59L1669.77 1028Z" fill="white"/>
</svg>
