<svg width="455" height="151" viewBox="0 0 455 151" fill="none" xmlns="http://www.w3.org/2000/svg">
<path d="M204.89 55.8424C203.823 51.3324 201.249 48.2004 197.169 46.4152C194.877 45.4443 192.335 44.9432 189.542 44.9432C184.175 44.9432 179.781 46.9476 176.328 50.9565C172.876 54.9653 171.149 60.9787 171.149 68.9965C171.149 77.0142 173.001 82.8084 176.736 86.1595C180.471 89.5107 184.708 91.2019 189.479 91.2019C194.25 91.2019 197.953 89.8865 200.935 87.2244C203.917 84.5622 205.737 81.117 206.428 76.795H191.048V65.8019H218.762V101.161H209.566L208.154 92.9245C205.486 96.0252 203.069 98.2488 200.935 99.5015C197.263 101.725 192.743 102.853 187.407 102.853C178.588 102.853 171.369 99.8461 165.751 93.8015C159.882 87.7255 156.963 79.4258 156.963 68.8712C156.963 58.3165 159.913 49.6724 165.845 43.2206C171.777 36.8001 179.624 33.5742 189.354 33.5742C197.796 33.5742 204.607 35.7039 209.723 39.9321C214.871 44.1915 217.789 49.4845 218.543 55.811H204.858L204.89 55.8424Z" fill="#6D9B3D"/>
<path d="M252.596 51.3019C252.753 51.3019 253.129 51.3331 253.694 51.3645V64.4247C252.878 64.3307 252.156 64.2681 251.529 64.2368C250.901 64.2055 250.399 64.2054 249.991 64.2054C244.812 64.2054 241.328 65.8654 239.571 69.2166C238.566 71.0957 238.095 73.9771 238.095 77.892V101.162H225.133V52.4607H237.405V60.9482C239.382 57.691 241.108 55.4674 242.584 54.2772C245 52.2728 248.108 51.2705 251.968 51.2705C252.219 51.2705 252.407 51.2705 252.564 51.2705" fill="#6D9B3D"/>
<path d="M271.743 52.4297V81.8073C271.743 84.5947 272.057 86.6618 272.747 88.0712C273.908 90.5454 276.2 91.7669 279.621 91.7669C283.983 91.7669 286.997 90.013 288.597 86.5052C289.445 84.5947 289.853 82.0892 289.853 78.9572V52.461H302.909V101.163H290.418V94.2725C290.418 94.2725 290.01 94.8675 289.507 95.6192C289.037 96.3708 288.472 97.0286 287.781 97.5923C285.772 99.3775 283.827 100.599 281.943 101.257C280.06 101.914 277.863 102.228 275.352 102.228C268.102 102.228 263.206 99.6281 260.663 94.4604C259.251 91.6103 258.561 87.3822 258.561 81.8073V52.4297H271.743Z" fill="#6D9B3D"/>
<path d="M350.994 57.6595C355.011 61.8563 357.02 68.0262 357.02 76.1693C357.02 84.7508 355.074 91.2966 351.151 95.7753C347.227 100.285 342.174 102.509 335.991 102.509C332.068 102.509 328.772 101.538 326.167 99.5961C324.755 98.5313 323.342 96.9653 321.993 94.8982V120.298H309.25V52.3979H321.585V59.6013C322.966 57.4716 324.472 55.8116 326.042 54.5902C328.929 52.4291 332.35 51.333 336.305 51.333C342.08 51.333 346.976 53.4313 350.994 57.6281M341.138 66.8361C339.381 63.9547 336.556 62.514 332.633 62.514C327.925 62.514 324.692 64.7063 322.903 69.0911C321.993 71.4087 321.522 74.3528 321.522 77.9545C321.522 83.6233 323.06 87.6009 326.136 89.8872C327.956 91.2339 330.122 91.8916 332.601 91.8916C336.211 91.8916 338.973 90.5135 340.887 87.7888C342.802 85.0326 343.743 81.3996 343.743 76.827C343.743 73.0686 342.865 69.7488 341.107 66.8674L341.138 66.8361Z" fill="#6D9B3D"/>
<path d="M380.967 71.5342C383.352 71.221 385.078 70.8765 386.114 70.4067C387.966 69.6237 388.876 68.4336 388.876 66.7737C388.876 64.7692 388.154 63.3911 386.742 62.6395C385.329 61.8878 383.227 61.512 380.496 61.512C377.42 61.512 375.223 62.2637 373.936 63.7357C373.026 64.8318 372.398 66.3352 372.116 68.2143H359.687C359.969 63.9549 361.162 60.4471 363.328 57.7223C366.749 53.4315 372.618 51.2705 380.904 51.2705C386.302 51.2705 391.105 52.3354 395.31 54.4338C399.516 56.5635 401.619 60.5411 401.619 66.3978V88.7598C401.619 90.2945 401.619 92.1737 401.713 94.3974C401.807 96.0573 402.058 97.1848 402.466 97.7798C402.874 98.3749 403.534 98.876 404.35 99.2519V101.131H390.351C389.975 100.16 389.692 99.2205 389.535 98.3749C389.378 97.498 389.253 96.5271 389.159 95.4309C387.37 97.3414 385.329 98.9699 382.975 100.285C380.182 101.851 377.044 102.666 373.528 102.666C369.04 102.666 365.336 101.413 362.417 98.876C359.499 96.3705 358.023 92.8 358.023 88.1648C358.023 82.1828 360.377 77.8294 365.085 75.1672C367.659 73.6952 371.457 72.6617 376.447 72.0353L380.873 71.5029L380.967 71.5342ZM388.813 77.4848C387.997 77.9859 387.15 78.3931 386.334 78.7063C385.486 79.0195 384.356 79.3014 382.881 79.5833L379.962 80.1158C377.232 80.5855 375.254 81.1806 374.062 81.8696C372.022 83.0284 371.017 84.8449 371.017 87.2878C371.017 89.4489 371.645 91.0462 372.869 92.0171C374.093 92.988 375.6 93.4578 377.389 93.4578C380.213 93.4578 382.787 92.6435 385.173 91.0462C387.526 89.4489 388.782 86.5049 388.876 82.2454V77.5162L388.813 77.4848Z" fill="#6D9B3D"/>
<path d="M408.117 38.6484H420.766V74.1646L436.993 55.8115H453L435.36 73.9455L453.69 104.294H438.028L426.102 83.4665L420.766 88.9474V104.294H408.117V38.6484Z" fill="#6D9B3D"/>
<path d="M165.061 128.409C164.339 128.973 163.334 129.255 162.016 129.255H159.474V133.452H156.932V121.801H162.173C163.366 121.801 164.339 122.114 165.061 122.709C165.783 123.304 166.128 124.244 166.128 125.496C166.128 126.875 165.783 127.845 165.061 128.409ZM163.115 124.212C162.801 123.962 162.33 123.837 161.765 123.837H159.474V127.25H161.765C162.361 127.25 162.801 127.125 163.115 126.843C163.429 126.561 163.586 126.123 163.586 125.528C163.586 124.933 163.429 124.494 163.115 124.244V124.212Z" fill="#72716F"/>
<path d="M171.37 128.097C171.809 128.034 172.123 127.971 172.311 127.909C172.657 127.783 172.814 127.564 172.814 127.282C172.814 126.938 172.688 126.687 172.437 126.562C172.186 126.437 171.809 126.374 171.307 126.374C170.742 126.374 170.334 126.499 170.114 126.781C169.957 126.969 169.832 127.251 169.769 127.564H167.509C167.572 126.813 167.792 126.186 168.168 125.716C168.796 124.965 169.863 124.589 171.401 124.589C172.406 124.589 173.284 124.777 174.038 125.153C174.791 125.528 175.199 126.249 175.199 127.282V131.229C175.199 131.51 175.199 131.824 175.199 132.231C175.199 132.513 175.262 132.732 175.325 132.826C175.387 132.92 175.513 133.014 175.67 133.076V133.421H173.096C173.033 133.233 172.971 133.076 172.939 132.92C172.939 132.763 172.876 132.607 172.876 132.387C172.563 132.732 172.186 133.014 171.746 133.233C171.244 133.515 170.648 133.64 170.02 133.64C169.204 133.64 168.514 133.421 167.98 132.982C167.446 132.544 167.164 131.918 167.164 131.103C167.164 130.038 167.603 129.287 168.451 128.817C168.922 128.566 169.612 128.379 170.522 128.253L171.338 128.159L171.37 128.097ZM172.814 129.13C172.814 129.13 172.5 129.287 172.343 129.349C172.186 129.412 171.966 129.443 171.715 129.506L171.181 129.6C170.679 129.694 170.334 129.788 170.114 129.913C169.738 130.132 169.549 130.446 169.549 130.884C169.549 131.26 169.675 131.542 169.895 131.73C170.114 131.886 170.397 131.98 170.711 131.98C171.213 131.98 171.684 131.824 172.123 131.542C172.562 131.26 172.782 130.727 172.782 129.976V129.13H172.814Z" fill="#72716F"/>
<path d="M184.613 125.56C185.335 126.312 185.712 127.408 185.712 128.817C185.712 130.321 185.366 131.479 184.645 132.294C183.923 133.077 183.012 133.484 181.883 133.484C181.161 133.484 180.564 133.327 180.093 132.983C179.842 132.795 179.591 132.513 179.34 132.168V136.647H177.018V124.652H179.277V125.936C179.528 125.56 179.811 125.278 180.093 125.059C180.627 124.683 181.255 124.495 181.977 124.495C183.044 124.495 183.923 124.871 184.676 125.623M182.793 127.189C182.479 126.688 181.945 126.406 181.223 126.406C180.376 126.406 179.78 126.781 179.434 127.564C179.277 127.972 179.183 128.504 179.183 129.13C179.183 130.133 179.466 130.822 180.031 131.229C180.376 131.479 180.753 131.573 181.223 131.573C181.882 131.573 182.385 131.323 182.73 130.853C183.075 130.352 183.264 129.725 183.264 128.911C183.264 128.253 183.106 127.658 182.793 127.157V127.189Z" fill="#72716F"/>
<path d="M193.214 124.871C193.842 125.153 194.375 125.56 194.783 126.155C195.16 126.656 195.38 127.251 195.505 127.94C195.568 128.348 195.6 128.911 195.568 129.663H189.008C189.04 130.54 189.354 131.135 189.95 131.479C190.295 131.699 190.735 131.793 191.237 131.793C191.77 131.793 192.21 131.667 192.555 131.386C192.743 131.229 192.9 131.041 193.026 130.79H195.443C195.38 131.292 195.097 131.824 194.564 132.356C193.748 133.202 192.618 133.609 191.174 133.609C189.981 133.609 188.914 133.265 188.004 132.544C187.094 131.824 186.623 130.696 186.623 129.099C186.623 127.596 187.031 126.468 187.879 125.654C188.695 124.871 189.793 124.464 191.111 124.464C191.896 124.464 192.586 124.589 193.214 124.871ZM189.699 126.813C189.354 127.126 189.165 127.596 189.071 128.16H193.12C193.089 127.565 192.869 127.095 192.492 126.813C192.116 126.5 191.645 126.343 191.111 126.343C190.515 126.343 190.044 126.5 189.699 126.844V126.813Z" fill="#72716F"/>
<path d="M198.832 121.801H196.479V133.452H198.832V121.801Z" fill="#72716F"/>
<path d="M206.365 134.768H206.647C206.867 134.768 207.087 134.768 207.307 134.768C207.526 134.768 207.683 134.674 207.84 134.58C207.966 134.486 208.091 134.298 208.217 134.016C208.342 133.734 208.374 133.546 208.374 133.484L205.078 124.495H207.683L209.66 130.853L211.512 124.495H214.023L210.947 132.951C210.351 134.58 209.88 135.582 209.535 135.989C209.19 136.397 208.499 136.584 207.464 136.584C207.244 136.584 207.087 136.584 206.961 136.584C206.836 136.584 206.647 136.584 206.396 136.584V134.768H206.365Z" fill="#72716F"/>
<path d="M225.134 124.871C225.762 125.153 226.295 125.56 226.703 126.155C227.08 126.656 227.3 127.251 227.425 127.94C227.488 128.348 227.519 128.911 227.488 129.663H220.928C220.96 130.54 221.274 131.135 221.87 131.479C222.215 131.699 222.655 131.793 223.157 131.793C223.69 131.793 224.13 131.667 224.475 131.386C224.663 131.229 224.82 131.041 224.946 130.79H227.362C227.3 131.292 227.017 131.824 226.484 132.356C225.668 133.202 224.538 133.609 223.094 133.609C221.901 133.609 220.834 133.265 219.924 132.544C219.014 131.824 218.543 130.696 218.543 129.099C218.543 127.596 218.951 126.468 219.798 125.654C220.614 124.871 221.682 124.464 223.031 124.464C223.816 124.464 224.506 124.589 225.134 124.871ZM221.619 126.813C221.274 127.126 221.085 127.596 220.991 128.16H225.04C225.009 127.565 224.789 127.095 224.412 126.813C224.036 126.5 223.565 126.343 223.031 126.343C222.435 126.343 221.964 126.5 221.619 126.844V126.813Z" fill="#72716F"/>
<path d="M239.729 124.808C240.105 124.965 240.45 125.215 240.764 125.591C241.015 125.904 241.204 126.249 241.266 126.687C241.329 126.969 241.361 127.408 241.361 127.972V133.39H238.944V127.909C238.944 127.596 238.881 127.314 238.787 127.095C238.567 126.687 238.191 126.5 237.626 126.5C236.967 126.5 236.527 126.75 236.276 127.282C236.151 127.564 236.088 127.878 236.088 128.253V133.39H233.702V128.253C233.702 127.752 233.64 127.376 233.545 127.126C233.357 126.719 232.949 126.5 232.384 126.5C231.725 126.5 231.254 126.719 231.035 127.126C230.909 127.376 230.846 127.721 230.846 128.191V133.358H228.461V124.777H230.752V126.03C231.035 125.591 231.317 125.278 231.568 125.059C232.039 124.714 232.604 124.558 233.357 124.558C234.048 124.558 234.613 124.714 235.021 124.996C235.366 125.278 235.617 125.622 235.805 126.03C236.119 125.529 236.496 125.153 236.967 124.902C237.437 124.652 238.002 124.558 238.599 124.558C239.007 124.558 239.383 124.62 239.76 124.777" fill="#72716F"/>
<path d="M256.583 128.034C257.022 127.971 257.336 127.909 257.524 127.846C257.869 127.721 258.026 127.502 258.026 127.22C258.026 126.875 257.901 126.625 257.65 126.5C257.399 126.374 257.022 126.312 256.52 126.312C255.955 126.312 255.547 126.437 255.327 126.719C255.17 126.907 255.045 127.188 254.982 127.502H252.722C252.785 126.75 253.005 126.124 253.381 125.654C254.009 124.902 255.076 124.526 256.614 124.526C257.618 124.526 258.497 124.714 259.251 125.09C260.004 125.466 260.412 126.186 260.412 127.22V131.166C260.412 131.448 260.412 131.761 260.412 132.168C260.412 132.45 260.475 132.669 260.537 132.763C260.6 132.857 260.726 132.951 260.883 133.014V133.358H258.309C258.246 133.171 258.183 133.014 258.152 132.857C258.152 132.701 258.089 132.544 258.089 132.325C257.775 132.669 257.399 132.951 256.959 133.17C256.457 133.452 255.861 133.578 255.233 133.578C254.417 133.578 253.727 133.358 253.193 132.92C252.659 132.481 252.377 131.855 252.377 131.041C252.377 129.976 252.816 129.224 253.664 128.755C254.135 128.504 254.825 128.316 255.735 128.191L256.551 128.097L256.583 128.034ZM258.026 129.068C258.026 129.068 257.713 129.224 257.556 129.287C257.399 129.35 257.179 129.381 256.928 129.444L256.394 129.537C255.892 129.631 255.516 129.725 255.327 129.851C254.951 130.07 254.762 130.383 254.762 130.822C254.762 131.197 254.888 131.479 255.108 131.667C255.327 131.824 255.61 131.918 255.924 131.918C256.426 131.918 256.897 131.761 257.336 131.479C257.775 131.197 257.995 130.665 258.026 129.913V129.068Z" fill="#72716F"/>
<path d="M287.31 124.871C287.938 125.153 288.471 125.56 288.879 126.155C289.256 126.656 289.475 127.251 289.601 127.94C289.664 128.348 289.695 128.911 289.664 129.663H283.104C283.136 130.54 283.449 131.135 284.046 131.479C284.391 131.699 284.83 131.793 285.333 131.793C285.866 131.793 286.306 131.667 286.651 131.386C286.839 131.229 286.996 131.041 287.122 130.79H289.538C289.476 131.292 289.193 131.824 288.659 132.356C287.843 133.202 286.714 133.609 285.27 133.609C284.077 133.609 283.01 133.265 282.1 132.544C281.19 131.824 280.719 130.696 280.719 129.099C280.719 127.596 281.127 126.468 281.974 125.654C282.79 124.871 283.857 124.464 285.207 124.464C285.992 124.464 286.682 124.589 287.31 124.871ZM283.795 126.813C283.449 127.126 283.261 127.596 283.167 128.16H287.216C287.184 127.565 286.965 127.095 286.588 126.813C286.211 126.5 285.741 126.343 285.207 126.343C284.611 126.343 284.14 126.5 283.795 126.844V126.813Z" fill="#72716F"/>
<path d="M299.928 124.996C300.367 125.216 300.681 125.529 300.963 125.936V121.833H303.349V133.453H301.058V132.262C300.712 132.764 300.336 133.139 299.896 133.39C299.457 133.609 298.923 133.734 298.296 133.734C297.26 133.734 296.35 133.327 295.628 132.513C294.906 131.699 294.561 130.665 294.561 129.381C294.561 127.909 294.906 126.75 295.628 125.905C296.35 125.059 297.291 124.652 298.452 124.652C298.986 124.652 299.488 124.777 299.896 124.996M300.492 131.104C300.838 130.634 301.026 130.007 301.026 129.256C301.026 128.191 300.744 127.439 300.179 127.001C299.833 126.719 299.425 126.594 298.986 126.594C298.296 126.594 297.793 126.844 297.479 127.345C297.166 127.846 297.009 128.473 297.009 129.193C297.009 129.976 297.166 130.634 297.511 131.104C297.825 131.573 298.327 131.824 298.986 131.824C299.645 131.824 300.147 131.573 300.492 131.104Z" fill="#72716F"/>
<path d="M310.849 125.027C311.477 125.309 312.01 125.716 312.418 126.311C312.795 126.813 313.015 127.407 313.14 128.097C313.203 128.504 313.234 129.067 313.203 129.819H306.643C306.675 130.696 306.988 131.291 307.585 131.636C307.93 131.855 308.369 131.949 308.872 131.949C309.405 131.949 309.845 131.824 310.19 131.542C310.378 131.385 310.535 131.197 310.661 130.947H313.077C313.015 131.448 312.732 131.98 312.199 132.513C311.382 133.358 310.253 133.765 308.809 133.765C307.616 133.765 306.549 133.421 305.639 132.7C304.729 131.98 304.258 130.853 304.258 129.255C304.258 127.752 304.666 126.625 305.513 125.81C306.329 125.027 307.428 124.62 308.746 124.62C309.531 124.62 310.221 124.745 310.849 125.027ZM307.334 126.969C306.988 127.282 306.8 127.752 306.706 128.316H310.755C310.723 127.721 310.504 127.251 310.127 126.969C309.75 126.656 309.28 126.499 308.746 126.499C308.15 126.499 307.679 126.656 307.334 127V126.969Z" fill="#72716F"/>
<path d="M324.125 127.784C324.094 127.47 323.968 127.189 323.78 126.907C323.529 126.562 323.09 126.374 322.556 126.374C321.771 126.374 321.206 126.75 320.924 127.502C320.767 127.909 320.704 128.441 320.704 129.099C320.704 129.757 320.767 130.227 320.924 130.634C321.206 131.354 321.74 131.699 322.525 131.699C323.09 131.699 323.466 131.542 323.686 131.26C323.906 130.978 324.063 130.602 324.094 130.164H326.511C326.448 130.853 326.197 131.511 325.726 132.106C325.004 133.077 323.906 133.578 322.431 133.578C320.955 133.578 319.92 133.171 319.229 132.356C318.539 131.542 318.193 130.477 318.193 129.162C318.193 127.69 318.57 126.531 319.323 125.717C320.076 124.902 321.112 124.495 322.462 124.495C323.592 124.495 324.502 124.746 325.224 125.215C325.946 125.717 326.354 126.562 326.511 127.784H324.094H324.125Z" fill="#72716F"/>
<path d="M331.565 128.097C332.005 128.034 332.318 127.971 332.507 127.909C332.852 127.783 333.009 127.564 333.009 127.282C333.009 126.938 332.883 126.687 332.632 126.562C332.381 126.437 332.005 126.374 331.502 126.374C330.937 126.374 330.529 126.499 330.31 126.781C330.153 126.969 330.027 127.251 329.964 127.564H327.705C327.767 126.813 327.987 126.186 328.364 125.716C328.991 124.965 330.059 124.589 331.597 124.589C332.601 124.589 333.48 124.777 334.233 125.153C334.986 125.528 335.394 126.249 335.394 127.282V131.229C335.394 131.51 335.394 131.824 335.394 132.231C335.394 132.513 335.457 132.732 335.52 132.826C335.583 132.92 335.708 133.014 335.865 133.076V133.421H333.291C333.229 133.233 333.166 133.076 333.135 132.92C333.135 132.763 333.072 132.607 333.072 132.387C332.758 132.732 332.381 133.014 331.942 133.233C331.44 133.515 330.843 133.64 330.216 133.64C329.399 133.64 328.709 133.421 328.175 132.982C327.642 132.544 327.359 131.918 327.359 131.103C327.359 130.038 327.799 129.287 328.646 128.817C329.117 128.566 329.808 128.379 330.718 128.253L331.534 128.159L331.565 128.097ZM333.009 129.13C333.009 129.13 332.695 129.287 332.538 129.349C332.381 129.412 332.162 129.443 331.91 129.506L331.377 129.6C330.875 129.694 330.529 129.788 330.31 129.913C329.933 130.132 329.745 130.446 329.745 130.884C329.745 131.26 329.87 131.542 330.09 131.73C330.31 131.886 330.592 131.98 330.906 131.98C331.408 131.98 331.879 131.824 332.318 131.542C332.758 131.26 332.978 130.727 333.009 129.976V129.13Z" fill="#72716F"/>
<path d="M342.237 124.495C342.237 124.495 342.331 124.495 342.425 124.495V126.844C342.425 126.844 342.143 126.844 342.017 126.813C341.892 126.813 341.797 126.813 341.735 126.813C340.793 126.813 340.165 127.126 339.82 127.721C339.632 128.066 339.538 128.567 339.538 129.287V133.484H337.184V124.714H339.443V126.249C339.82 125.654 340.134 125.278 340.385 125.059C340.824 124.714 341.389 124.526 342.111 124.526H342.237V124.495Z" fill="#72716F"/>
<path d="M342.959 126.499V124.902H344.215V122.49H346.537V124.902H348.013V126.499H346.537V131.04C346.537 131.385 346.569 131.604 346.663 131.698C346.757 131.792 347.04 131.823 347.51 131.823C347.573 131.823 347.667 131.823 347.73 131.823C347.824 131.823 347.887 131.823 347.95 131.823V133.515H346.82C345.721 133.577 344.937 133.421 344.529 133.014C344.278 132.763 344.121 132.356 344.121 131.823V126.53H342.865L342.959 126.499Z" fill="#72716F"/>
<path d="M356.611 132.262C355.858 133.17 354.696 133.609 353.159 133.609C351.621 133.609 350.459 133.17 349.706 132.262C348.953 131.354 348.576 130.289 348.576 129.036C348.576 127.783 348.953 126.718 349.706 125.81C350.459 124.902 351.621 124.432 353.159 124.432C354.696 124.432 355.858 124.902 356.611 125.81C357.364 126.718 357.741 127.783 357.741 129.036C357.741 130.289 357.364 131.385 356.611 132.262ZM354.728 131.009C355.104 130.539 355.293 129.882 355.293 129.005C355.293 128.128 355.104 127.47 354.728 127C354.351 126.53 353.818 126.311 353.127 126.311C352.437 126.311 351.903 126.53 351.526 127C351.15 127.47 350.962 128.128 350.962 129.005C350.962 129.882 351.15 130.539 351.526 131.009C351.903 131.479 352.437 131.698 353.127 131.698C353.818 131.698 354.351 131.479 354.728 131.009ZM355.983 121.175L353.472 123.524H351.778L353.347 121.175H355.983Z" fill="#72716F"/>
<path d="M366.53 125.341C367.126 125.811 367.408 126.594 367.408 127.659V133.453H364.992V128.223C364.992 127.784 364.929 127.409 364.803 127.189C364.584 126.751 364.144 126.532 363.485 126.532C362.7 126.532 362.135 126.845 361.853 127.502C361.696 127.847 361.633 128.285 361.633 128.818V133.484H359.279V124.903H361.571V126.156C361.884 125.717 362.167 125.404 362.418 125.185C362.889 124.84 363.516 124.652 364.238 124.652C365.18 124.652 365.933 124.872 366.498 125.341" fill="#72716F"/>
<path d="M379.334 127.941C379.303 127.628 379.177 127.346 378.989 127.064C378.738 126.719 378.299 126.532 377.765 126.532C376.98 126.532 376.415 126.907 376.133 127.659C375.976 128.066 375.913 128.599 375.913 129.256C375.913 129.914 375.976 130.384 376.133 130.791C376.415 131.511 376.949 131.856 377.734 131.856C378.299 131.856 378.675 131.699 378.895 131.417C379.115 131.135 379.272 130.76 379.303 130.321H381.72C381.657 131.01 381.406 131.668 380.935 132.263C380.182 133.234 379.115 133.735 377.64 133.735C376.164 133.735 375.129 133.328 374.438 132.514C373.748 131.699 373.402 130.634 373.402 129.319C373.402 127.847 373.779 126.688 374.532 125.874C375.286 125.06 376.321 124.652 377.671 124.652C378.801 124.652 379.711 124.903 380.433 125.373C381.155 125.874 381.563 126.719 381.72 127.941H379.303H379.334Z" fill="#72716F"/>
<path d="M390.695 132.387C389.942 133.296 388.78 133.734 387.243 133.734C385.705 133.734 384.543 133.296 383.79 132.387C383.037 131.479 382.66 130.414 382.66 129.162C382.66 127.909 383.037 126.844 383.79 125.936C384.543 125.027 385.705 124.558 387.243 124.558C388.78 124.558 389.942 125.027 390.695 125.936C391.448 126.844 391.825 127.909 391.825 129.162C391.825 130.414 391.448 131.511 390.695 132.387ZM388.812 131.166C389.188 130.696 389.377 130.039 389.377 129.162C389.377 128.285 389.188 127.627 388.812 127.157C388.435 126.687 387.902 126.468 387.211 126.468C386.521 126.468 385.987 126.687 385.61 127.157C385.234 127.627 385.045 128.285 385.045 129.162C385.045 130.039 385.234 130.696 385.61 131.166C385.987 131.636 386.521 131.855 387.211 131.855C387.902 131.855 388.435 131.636 388.812 131.166Z" fill="#72716F"/>
<path d="M398.354 124.651C398.354 124.651 398.448 124.651 398.542 124.651V126.969C398.542 126.969 398.26 126.969 398.134 126.938C398.009 126.938 397.915 126.938 397.852 126.938C396.91 126.938 396.283 127.22 395.937 127.815C395.749 128.159 395.655 128.66 395.655 129.349V133.452H393.27V124.839H395.529V126.343C395.906 125.779 396.22 125.372 396.471 125.152C396.91 124.808 397.475 124.62 398.197 124.62H398.323L398.354 124.651Z" fill="#72716F"/>
<path d="M404.758 124.651C404.758 124.651 404.852 124.651 404.947 124.651V126.969C404.947 126.969 404.664 126.969 404.539 126.938C404.413 126.938 404.319 126.938 404.256 126.938C403.314 126.938 402.687 127.22 402.342 127.815C402.153 128.159 402.059 128.66 402.059 129.349V133.452H399.705V124.839H401.965V126.343C402.342 125.779 402.655 125.372 402.906 125.152C403.346 124.808 403.911 124.62 404.633 124.62H404.758V124.651Z" fill="#72716F"/>
<path d="M408.524 127.971V133.17C408.524 133.671 408.587 134.015 408.712 134.266C408.932 134.704 409.34 134.924 409.968 134.924C410.753 134.924 411.318 134.61 411.6 133.984C411.757 133.64 411.82 133.201 411.82 132.637V127.939H414.205V136.552H411.914V135.331C411.914 135.331 411.851 135.425 411.757 135.581C411.663 135.707 411.569 135.832 411.443 135.926C411.066 136.239 410.721 136.458 410.376 136.584C410.031 136.709 409.623 136.772 409.183 136.772C407.865 136.772 406.955 136.302 406.484 135.393C406.233 134.892 406.107 134.141 406.107 133.17V127.971H408.524Z" fill="#72716F"/>
<path d="M420.795 127.971C421.36 128.191 421.831 128.629 422.176 129.224V127.971H424.467V136.146C424.467 137.242 424.279 138.087 423.871 138.651C423.212 139.622 421.925 140.092 420.01 140.092C418.849 140.092 417.908 139.873 417.186 139.434C416.464 138.996 416.056 138.369 415.993 137.492H418.567C418.629 137.743 418.755 137.931 418.88 138.056C419.132 138.276 419.571 138.369 420.167 138.369C421.015 138.369 421.58 138.088 421.862 137.555C422.051 137.211 422.145 136.616 422.145 135.801V135.237C421.925 135.613 421.674 135.895 421.423 136.052C420.952 136.396 420.356 136.553 419.602 136.553C418.441 136.553 417.531 136.177 416.84 135.394C416.15 134.611 415.805 133.578 415.805 132.231C415.805 130.884 416.15 129.882 416.809 129.005C417.468 128.128 418.41 127.689 419.634 127.689C420.073 127.689 420.481 127.752 420.827 127.877M421.611 134.141C421.988 133.734 422.176 133.108 422.176 132.231C422.176 131.417 421.988 130.79 421.642 130.352C421.297 129.913 420.795 129.725 420.199 129.725C419.383 129.725 418.818 130.101 418.504 130.853C418.347 131.26 418.253 131.73 418.253 132.325C418.253 132.826 418.347 133.264 418.504 133.671C418.818 134.392 419.383 134.768 420.199 134.768C420.732 134.768 421.203 134.58 421.58 134.173L421.611 134.141Z" fill="#72716F"/>
<path d="M430.087 131.353C430.526 131.291 430.84 131.228 431.028 131.166C431.373 131.04 431.53 130.821 431.53 130.539C431.53 130.195 431.405 129.944 431.154 129.819C430.903 129.694 430.526 129.631 430.024 129.631C429.459 129.631 429.051 129.756 428.831 130.038C428.674 130.226 428.549 130.508 428.486 130.821H426.226C426.289 130.069 426.509 129.443 426.885 128.973C427.513 128.221 428.58 127.846 430.118 127.846C431.122 127.846 432.001 128.034 432.754 128.409C433.508 128.785 433.916 129.506 433.916 130.539V134.485C433.916 134.767 433.916 135.08 433.916 135.488C433.916 135.77 433.979 135.989 434.041 136.083C434.104 136.177 434.23 136.271 434.387 136.333V136.678H431.813C431.75 136.49 431.687 136.333 431.656 136.177C431.656 136.02 431.593 135.863 431.593 135.644C431.279 135.989 430.903 136.271 430.463 136.49C429.961 136.772 429.365 136.897 428.737 136.897C427.921 136.897 427.23 136.678 426.697 136.239C426.163 135.801 425.881 135.174 425.881 134.36C425.881 133.295 426.32 132.544 427.168 132.074C427.639 131.823 428.329 131.635 429.239 131.51L430.055 131.416L430.087 131.353ZM431.499 132.387C431.499 132.387 431.185 132.544 431.028 132.606C430.871 132.669 430.652 132.7 430.4 132.763L429.867 132.857C429.365 132.951 428.988 133.045 428.8 133.17C428.423 133.389 428.235 133.702 428.235 134.141C428.235 134.517 428.36 134.799 428.58 134.987C428.8 135.143 429.082 135.237 429.396 135.237C429.898 135.237 430.369 135.08 430.809 134.799C431.248 134.517 431.468 133.984 431.499 133.233V132.387Z" fill="#72716F"/>
<path d="M440.508 128.128C440.916 128.347 441.261 128.661 441.543 129.068V124.965H443.929V136.584H441.638V135.394C441.292 135.895 440.916 136.271 440.476 136.522C440.037 136.741 439.503 136.866 438.876 136.866C437.808 136.866 436.93 136.459 436.208 135.645C435.486 134.83 435.141 133.797 435.141 132.513C435.141 131.041 435.486 129.882 436.208 129.036C436.93 128.191 437.871 127.784 439.032 127.784C439.566 127.784 440.068 127.909 440.476 128.128M441.104 134.235C441.449 133.766 441.638 133.139 441.638 132.388C441.638 131.323 441.355 130.571 440.79 130.133C440.445 129.851 440.037 129.725 439.597 129.725C438.907 129.725 438.405 129.976 438.091 130.477C437.777 130.978 437.62 131.605 437.62 132.325C437.62 133.108 437.777 133.766 438.122 134.235C438.436 134.705 438.938 134.956 439.629 134.956C440.319 134.956 440.79 134.705 441.135 134.235H441.104Z" fill="#72716F"/>
<path d="M453.406 135.519C452.653 136.428 451.491 136.866 449.954 136.866C448.416 136.866 447.254 136.428 446.501 135.519C445.748 134.611 445.371 133.546 445.371 132.293C445.371 131.041 445.748 129.976 446.501 129.068C447.254 128.159 448.416 127.689 449.954 127.689C451.491 127.689 452.653 128.159 453.406 129.068C454.159 129.976 454.536 131.041 454.536 132.293C454.536 133.546 454.159 134.642 453.406 135.519ZM451.523 134.298C451.9 133.828 452.088 133.17 452.088 132.293C452.088 131.416 451.9 130.759 451.523 130.289C451.146 129.819 450.613 129.6 449.922 129.6C449.232 129.6 448.698 129.819 448.321 130.289C447.945 130.759 447.756 131.416 447.756 132.293C447.756 133.17 447.945 133.828 448.321 134.298C448.698 134.768 449.232 134.987 449.922 134.987C450.613 134.987 451.146 134.768 451.523 134.298Z" fill="#72716F"/>
<path d="M44.0993 87.7256C56.2144 97.2154 66.4149 107.3 75.9877 119.296C66.4149 131.291 56.2144 141.376 44.0993 150.866C31.9842 141.376 21.7837 131.291 12.2109 119.296C21.7837 107.3 31.9842 97.2154 44.0993 87.7256Z" fill="#72716F"/>
<path d="M77.2419 118.012C77.2419 118.012 64.5305 100.787 45.3535 86.4424L66.602 97.1223L77.2419 118.044V118.012Z" fill="#9DBC6C"/>
<mask id="mask0_1183_19955" style="mask-type:luminance" maskUnits="userSpaceOnUse" x="45" y="86" width="33" height="33">
<path d="M77.2419 118.012C77.2419 118.012 64.5305 100.787 45.3535 86.4424L66.602 97.1223L77.2419 118.044V118.012Z" fill="white"/>
</mask>
<g mask="url(#mask0_1183_19955)">
<path d="M77.2419 86.4424H45.3535V118.012H77.2419V86.4424Z" fill="#9DBC6C"/>
</g>
<path d="M113.556 74.071C103.858 66.3664 95.8228 58.4113 88.0391 48.7963C95.8228 39.2125 103.858 31.2261 113.556 23.5215C123.254 31.2261 131.289 39.1812 139.073 48.7963C131.289 58.38 123.254 66.3664 113.556 74.071Z" fill="#72716F"/>
<path d="M87.0352 49.7988C87.0352 49.7988 97.2043 63.5794 112.552 75.0423L95.5722 66.5234L87.0665 49.7988H87.0352Z" fill="#9DBC6C"/>
<mask id="mask1_1183_19955" style="mask-type:luminance" maskUnits="userSpaceOnUse" x="87" y="49" width="26" height="27">
<path d="M87.0352 49.7988C87.0352 49.7988 97.2043 63.5794 112.552 75.0423L95.5722 66.5234L87.0665 49.7988H87.0352Z" fill="white"/>
</mask>
<g mask="url(#mask1_1183_19955)">
<path d="M112.552 49.7988H87.0352V75.0423H112.552V49.7988Z" fill="#9DBC6C"/>
</g>
<path d="M79.721 39.4625C67.9512 54.4958 55.0201 67.2741 39.8606 78.925C24.701 67.2741 11.7698 54.4645 0 39.4625C11.7698 24.4605 24.701 11.6508 39.8606 0C55.0201 11.6508 67.9512 24.4605 79.721 39.4625Z" fill="#6D9B3D"/>
<path fill-rule="evenodd" clip-rule="evenodd" d="M4.73933 35.9547L4.80207 35.8607L5.02179 35.5789L5.33568 35.1717L5.55531 34.8898V34.8271L5.64946 34.7332L5.96334 34.326C6.37136 33.8249 6.77943 33.3238 7.18745 32.854L7.40718 32.5721L7.81512 32.1024L8.00343 31.8831L8.22316 31.6326L8.63119 31.1628C9.10199 30.5991 9.60414 30.0353 10.0749 29.5029L10.5458 28.9391L11.1107 28.3127C11.5188 27.843 11.9268 27.4045 12.3034 26.966C12.5231 26.7155 12.7428 26.4962 12.9311 26.2457L12.9939 26.1517C13.4647 25.6193 13.9355 25.1182 14.4062 24.6171L14.5318 24.4918L15.1282 23.8341L15.2851 23.6461L15.4734 23.4582L15.5362 23.3642C15.9442 22.9258 16.3522 22.4873 16.7602 22.0489C16.9799 21.7983 17.1996 21.5477 17.4507 21.3285L17.6704 21.1092L18.2354 20.5455L18.3924 20.3576L18.5807 20.1697L18.6434 20.0757L18.7061 19.9818L19.02 19.6686L19.0829 19.606C19.334 19.3554 19.5536 19.1361 19.7733 18.8856L19.9617 18.6977L20.4952 18.1652L20.7149 17.9773L21.2171 17.4763L21.4368 17.257L22.0645 16.6306C22.2842 16.4113 22.5039 16.1921 22.7236 15.9729L22.8806 15.8162L22.9433 15.7223L22.9747 15.691H23.0061V15.6597L23.3199 15.3778L23.6652 15.0646L23.9791 14.7514L24.2616 14.4695L24.6382 14.1251L24.9521 13.8432L25.0462 13.7492L25.2031 13.5926L25.517 13.3107L25.8309 13.0289L26.1448 12.747L26.4586 12.4651L26.741 12.2145L27.0863 11.9013L27.2432 11.7447L27.4944 11.5255L28.0593 10.9931L28.1849 10.8992L28.4987 10.6173L28.7498 10.398L29.1891 10.0222C29.7227 9.52111 30.225 9.08263 30.7271 8.64416C30.9468 8.45624 31.1665 8.26835 31.3548 8.08043C31.7628 7.7046 32.1709 7.36003 32.5475 7.04684L33.1124 6.57706C33.4577 6.26387 33.8344 5.982 34.1482 5.70012C37.5379 2.88138 39.6094 1.378 39.6094 1.34668C39.9233 1.59724 40.2685 1.84786 40.5824 2.09841C41.5553 2.85008 42.4656 3.60172 43.4072 4.32206C43.6897 4.57262 44.0035 4.79189 44.286 5.04244L44.7568 5.44952C45.6042 6.13854 46.4202 6.82758 47.2362 7.51661C47.7384 7.95508 48.2406 8.36224 48.7428 8.80072L48.9311 8.95737L48.9939 9.01997C50.1239 9.99088 51.2223 10.9618 52.2895 11.9327L52.6347 12.2459L53.0114 12.5903L53.5135 13.0289L53.7332 13.2481C54.1412 13.6239 54.5493 13.9997 54.9259 14.3756H54.9573L55.177 14.6262C55.4281 14.8767 55.6792 15.0959 55.9617 15.3465H55.993C56.1813 15.5657 56.3383 15.7223 56.5266 15.8789L56.5894 15.9415L56.8091 16.1608L57.2171 16.5366L57.6252 16.9438L57.9704 17.2883L58.3784 17.6954C58.5981 17.9147 58.8178 18.1026 59.0061 18.3218L59.1003 18.4158C59.2886 18.6037 59.5083 18.823 59.6966 19.0109L59.8536 19.1674C60.0419 19.3554 60.2302 19.5432 60.4185 19.7312L60.5754 19.8878L61.0148 20.3262L61.3287 20.6395L61.6112 20.9527L61.9878 21.3598L62.1761 21.5791L62.3331 21.7356L62.6469 22.0489L63.0549 22.4873L63.2747 22.7379L63.6199 23.1137L63.9337 23.4269L64.1535 23.6461L64.5615 24.0846L64.7498 24.2725L65.1578 24.711L65.4089 24.9929L65.7855 25.4001L66.3191 25.995L66.6016 26.3083L66.8526 26.5901L67.1352 26.9033L67.3862 27.1852L67.606 27.4358L67.9512 27.8116L68.0453 27.9369L68.4219 28.344L68.5789 28.532L68.9241 28.9078L68.987 28.9704L69.3636 29.3776L69.5519 29.5969C69.803 29.8787 70.0541 30.1919 70.2738 30.4738L70.6504 30.9436L70.7132 31.0375C70.9643 31.3194 71.184 31.6326 71.4351 31.8831L71.7803 32.3216L71.8431 32.3842L72.1256 32.76C72.565 33.3238 72.9416 33.8249 73.2869 34.2321L73.3496 34.2948C73.5065 34.4827 73.6635 34.6706 73.7891 34.8585C74.762 36.1426 75.2328 36.8316 75.2642 36.8629C64.1849 30.2232 52.5092 28.0309 41.9006 28.0309C41.116 28.0309 40.3313 28.0308 39.5467 28.0621H39.3269C38.4167 28.0935 37.5379 28.1561 36.6591 28.1874H36.408C35.5292 28.2501 34.6818 28.3441 33.8343 28.4381H33.5833C32.7359 28.5633 31.8884 28.6572 31.0723 28.7512H30.8527C30.0053 28.9078 29.1892 29.0331 28.3732 29.1583H28.1849C27.3688 29.3149 26.5527 29.4715 25.7681 29.6281H25.6112C24.8265 29.816 24.0732 29.9726 23.3199 30.1292H23.1316C22.755 30.2545 22.3783 30.3485 22.0331 30.4111H21.9703C21.6251 30.5051 21.2485 30.599 20.9032 30.693H20.7777C20.401 30.8182 20.0558 30.9122 19.7105 31.0062H19.6791C19.3339 31.1001 18.9887 31.1941 18.6434 31.288H18.5493C18.204 31.4133 17.8588 31.5073 17.5136 31.6012C17.1997 31.6952 16.8544 31.7892 16.5405 31.8831H16.415C16.1012 32.0084 15.7559 32.1024 15.442 32.2277C15.1282 32.3216 14.8457 32.4156 14.5632 32.5095H14.4377C13.8099 32.7601 13.2136 32.948 12.6486 33.136C7.06188 35.0778 3.70353 36.8003 3.60938 36.8316V36.7689C3.89185 36.4557 4.14301 36.1739 4.36271 35.8607" fill="#A4BD6D"/>
<mask id="mask2_1183_19955" style="mask-type:luminance" maskUnits="userSpaceOnUse" x="3" y="1" width="73" height="36">
<path d="M4.73933 35.9547L4.80207 35.8607L5.02179 35.5789L5.33568 35.1717L5.55531 34.8898V34.8271L5.64946 34.7332L5.96334 34.326C6.37136 33.8249 6.77943 33.3238 7.18745 32.854L7.40718 32.5721L7.81512 32.1024L8.00343 31.8831L8.22316 31.6326L8.63119 31.1628C9.10199 30.5991 9.60414 30.0353 10.0749 29.5029L10.5458 28.9391L11.1107 28.3127C11.5188 27.843 11.9268 27.4045 12.3034 26.966C12.5231 26.7155 12.7428 26.4962 12.9311 26.2457L12.9939 26.1517C13.4647 25.6193 13.9355 25.1182 14.4062 24.6171L14.5318 24.4918L15.1282 23.8341L15.2851 23.6461L15.4734 23.4582L15.5362 23.3642C15.9442 22.9258 16.3522 22.4873 16.7602 22.0489C16.9799 21.7983 17.1996 21.5477 17.4507 21.3285L17.6704 21.1092L18.2354 20.5455L18.3924 20.3576L18.5807 20.1697L18.6434 20.0757L18.7061 19.9818L19.02 19.6686L19.0829 19.606C19.334 19.3554 19.5536 19.1361 19.7733 18.8856L19.9617 18.6977L20.4952 18.1652L20.7149 17.9773L21.2171 17.4763L21.4368 17.257L22.0645 16.6306C22.2842 16.4113 22.5039 16.1921 22.7236 15.9729L22.8806 15.8162L22.9433 15.7223L22.9747 15.691H23.0061V15.6597L23.3199 15.3778L23.6652 15.0646L23.9791 14.7514L24.2616 14.4695L24.6382 14.1251L24.9521 13.8432L25.0462 13.7492L25.2031 13.5926L25.517 13.3107L25.8309 13.0289L26.1448 12.747L26.4586 12.4651L26.741 12.2145L27.0863 11.9013L27.2432 11.7447L27.4944 11.5255L28.0593 10.9931L28.1849 10.8992L28.4987 10.6173L28.7498 10.398L29.1891 10.0222C29.7227 9.52111 30.225 9.08263 30.7271 8.64416C30.9468 8.45624 31.1665 8.26835 31.3548 8.08043C31.7628 7.7046 32.1709 7.36003 32.5475 7.04684L33.1124 6.57706C33.4577 6.26387 33.8344 5.982 34.1482 5.70012C37.5379 2.88138 39.6094 1.378 39.6094 1.34668C39.9233 1.59724 40.2685 1.84786 40.5824 2.09841C41.5553 2.85008 42.4656 3.60172 43.4072 4.32206C43.6897 4.57262 44.0035 4.79189 44.286 5.04244L44.7568 5.44952C45.6042 6.13854 46.4202 6.82758 47.2362 7.51661C47.7384 7.95508 48.2406 8.36224 48.7428 8.80072L48.9311 8.95737L48.9939 9.01997C50.1239 9.99088 51.2223 10.9618 52.2895 11.9327L52.6347 12.2459L53.0114 12.5903L53.5135 13.0289L53.7332 13.2481C54.1412 13.6239 54.5493 13.9997 54.9259 14.3756H54.9573L55.177 14.6262C55.4281 14.8767 55.6792 15.0959 55.9617 15.3465H55.993C56.1813 15.5657 56.3383 15.7223 56.5266 15.8789L56.5894 15.9415L56.8091 16.1608L57.2171 16.5366L57.6252 16.9438L57.9704 17.2883L58.3784 17.6954C58.5981 17.9147 58.8178 18.1026 59.0061 18.3218L59.1003 18.4158C59.2886 18.6037 59.5083 18.823 59.6966 19.0109L59.8536 19.1674C60.0419 19.3554 60.2302 19.5432 60.4185 19.7312L60.5754 19.8878L61.0148 20.3262L61.3287 20.6395L61.6112 20.9527L61.9878 21.3598L62.1761 21.5791L62.3331 21.7356L62.6469 22.0489L63.0549 22.4873L63.2747 22.7379L63.6199 23.1137L63.9337 23.4269L64.1535 23.6461L64.5615 24.0846L64.7498 24.2725L65.1578 24.711L65.4089 24.9929L65.7855 25.4001L66.3191 25.995L66.6016 26.3083L66.8526 26.5901L67.1352 26.9033L67.3862 27.1852L67.606 27.4358L67.9512 27.8116L68.0453 27.9369L68.4219 28.344L68.5789 28.532L68.9241 28.9078L68.987 28.9704L69.3636 29.3776L69.5519 29.5969C69.803 29.8787 70.0541 30.1919 70.2738 30.4738L70.6504 30.9436L70.7132 31.0375C70.9643 31.3194 71.184 31.6326 71.4351 31.8831L71.7803 32.3216L71.8431 32.3842L72.1256 32.76C72.565 33.3238 72.9416 33.8249 73.2869 34.2321L73.3496 34.2948C73.5065 34.4827 73.6635 34.6706 73.7891 34.8585C74.762 36.1426 75.2328 36.8316 75.2642 36.8629C64.1849 30.2232 52.5092 28.0309 41.9006 28.0309C41.116 28.0309 40.3313 28.0308 39.5467 28.0621H39.3269C38.4167 28.0935 37.5379 28.1561 36.6591 28.1874H36.408C35.5292 28.2501 34.6818 28.3441 33.8343 28.4381H33.5833C32.7359 28.5633 31.8884 28.6572 31.0723 28.7512H30.8527C30.0053 28.9078 29.1892 29.0331 28.3732 29.1583H28.1849C27.3688 29.3149 26.5527 29.4715 25.7681 29.6281H25.6112C24.8265 29.816 24.0732 29.9726 23.3199 30.1292H23.1316C22.755 30.2545 22.3783 30.3485 22.0331 30.4111H21.9703C21.6251 30.5051 21.2485 30.599 20.9032 30.693H20.7777C20.401 30.8182 20.0558 30.9122 19.7105 31.0062H19.6791C19.3339 31.1001 18.9887 31.1941 18.6434 31.288H18.5493C18.204 31.4133 17.8588 31.5073 17.5136 31.6012C17.1997 31.6952 16.8544 31.7892 16.5405 31.8831H16.415C16.1012 32.0084 15.7559 32.1024 15.442 32.2277C15.1282 32.3216 14.8457 32.4156 14.5632 32.5095H14.4377C13.8099 32.7601 13.2136 32.948 12.6486 33.136C7.06188 35.0778 3.70353 36.8003 3.60938 36.8316V36.7689C3.89185 36.4557 4.14301 36.1739 4.36271 35.8607" fill="white"/>
</mask>
<g mask="url(#mask2_1183_19955)">
<path d="M75.7353 1.40918H3.98633V36.9254H75.7353V1.40918Z" fill="#A4BD6D"/>
</g>
<path d="M41.4609 80.4918C41.4609 80.4918 63.2116 64.7694 81.3215 41.0293L67.8568 67.3062L41.4609 80.4918Z" fill="#72716F"/>
<path d="M86.6895 115.036C94.4732 104.607 103.795 95.3676 114.309 87.6943C124.824 95.3989 134.177 104.638 141.929 115.036C134.145 125.466 124.824 134.705 114.309 142.378C103.795 134.673 94.4419 125.434 86.6895 115.036Z" fill="#6D9B3D"/>
<path d="M113.21 86.5977C113.21 86.5977 98.1443 97.4969 85.5898 113.94L94.9116 95.7116L113.21 86.5664V86.5977Z" fill="#72716F"/>
<mask id="mask3_1183_19955" style="mask-type:luminance" maskUnits="userSpaceOnUse" x="14" y="88" width="60" height="31">
<path d="M15.0663 117.354L15.1291 117.26L15.3175 117.041L15.5685 116.697L15.7568 116.477H15.7882L15.851 116.383L16.1021 116.039C16.4474 115.632 16.7612 115.224 17.1065 114.817L17.2948 114.598L17.6087 114.191L17.7656 114.003L17.9225 113.784L18.2678 113.377C18.6758 112.907 19.0524 112.437 19.4605 111.999L19.8685 111.529L20.3393 110.996C20.6845 110.621 20.9983 110.245 21.3436 109.869C21.5319 109.681 21.6889 109.462 21.8772 109.274L21.9399 109.211C22.3165 108.773 22.7246 108.366 23.1013 107.927L23.1954 107.833L23.6975 107.301L23.8231 107.144L23.9801 106.987L24.0428 106.925C24.3881 106.549 24.7333 106.205 25.0785 105.829C25.2668 105.609 25.4552 105.422 25.6436 105.234L25.8004 105.046L26.2399 104.576L26.3968 104.419L26.5537 104.263L26.6165 104.2L26.6793 104.137L26.9304 103.887H26.9617C27.15 103.636 27.3384 103.448 27.5581 103.26L27.7151 103.104L28.1544 102.665L28.3113 102.509L28.7193 102.102L28.9077 101.914L29.4413 101.413C29.6296 101.225 29.8179 101.037 30.0062 100.88L30.1318 100.755L30.1945 100.692H30.2259V100.661L30.477 100.41L30.7594 100.16L31.0106 99.9093L31.2616 99.6901L31.5755 99.4081L31.8266 99.1576L31.8894 99.095L32.015 98.9697L32.266 98.7505L32.5171 98.5L32.7682 98.2807L33.0192 98.0301L33.239 97.8109L33.5214 97.5603L33.647 97.4351L33.8353 97.2471L34.3061 96.8087L34.4002 96.7147L34.6514 96.4955L34.8397 96.3076L35.1849 95.9943C35.6243 95.5872 36.0324 95.2114 36.4404 94.8669C36.6287 94.7103 36.7856 94.5537 36.9739 94.3971C37.3192 94.1152 37.6645 93.802 37.9783 93.5514L38.4491 93.1443C38.763 92.8937 39.0454 92.6432 39.3279 92.424C42.1213 90.1063 43.8475 88.8536 43.8475 88.8223C44.13 89.0415 44.3811 89.2294 44.6322 89.4486C45.4168 90.075 46.2015 90.67 46.9547 91.2964C47.2058 91.4843 47.457 91.7036 47.6767 91.8915L48.0847 92.2047C48.7752 92.7685 49.4657 93.3635 50.1562 93.9273C50.5642 94.2718 51.0036 94.6477 51.4116 94.9922L51.5685 95.1174L51.6314 95.1801C52.5729 95.9944 53.4831 96.7774 54.3619 97.5917L54.6444 97.8422L54.9583 98.1241L55.3663 98.5L55.5546 98.6879C55.8999 99.0011 56.2137 99.3142 56.5589 99.5961L56.7473 99.8153C56.967 100.003 57.1867 100.222 57.375 100.41H57.4064C57.5633 100.567 57.6888 100.724 57.8458 100.849L57.9086 100.912L58.0969 101.099L58.4421 101.413L58.7874 101.726L59.0699 102.008L59.4151 102.352C59.6034 102.54 59.7604 102.697 59.9487 102.885L60.0428 102.979C60.1998 103.135 60.3567 103.292 60.545 103.448L60.6706 103.574C60.8275 103.73 60.9845 103.887 61.1414 104.043L61.2669 104.169L61.6122 104.545L61.8632 104.795L62.1144 105.046L62.4282 105.39L62.5851 105.578L62.7107 105.703L62.9617 105.954L63.307 106.33L63.4954 106.518L63.7778 106.831L64.0289 107.113L64.2172 107.301L64.5625 107.677L64.7194 107.833L65.0333 108.178L65.253 108.397L65.5669 108.741L66.0062 109.242L66.2574 109.524L66.477 109.744L66.6967 109.994L66.9164 110.245L67.1048 110.433L67.3872 110.746L67.4814 110.84L67.7953 111.184L67.9208 111.341L68.2033 111.654L68.266 111.717L68.5799 112.061L68.7368 112.218C68.9565 112.468 69.1448 112.688 69.3332 112.938L69.647 113.314L69.7098 113.377C69.9295 113.627 70.1178 113.846 70.3061 114.097L70.5886 114.442V114.504L70.8711 114.817C71.2164 115.287 71.5302 115.694 71.8127 116.039V116.101C72.001 116.258 72.0952 116.415 72.2207 116.571C73.0054 117.636 73.4134 118.2 73.4134 118.231C64.2486 112.75 54.613 110.934 45.8249 110.934C45.1658 110.934 44.5381 110.934 43.879 110.934H43.6906C42.9374 110.965 42.2155 110.996 41.4936 111.059H41.2738C40.552 111.122 39.8301 111.184 39.1396 111.247H38.9199C38.2294 111.341 37.5075 111.435 36.8484 111.529H36.6601C35.9696 111.654 35.2791 111.748 34.62 111.873H34.4631C33.7726 111.999 33.1134 112.124 32.4543 112.249H32.3287C31.6696 112.406 31.042 112.531 30.4142 112.688H30.2573C29.9435 112.782 29.6296 112.844 29.3471 112.938H29.3157C29.0332 113.032 28.7194 113.095 28.4369 113.157H28.3427C28.0289 113.251 27.7464 113.345 27.4639 113.408H27.4325C27.15 113.502 26.8676 113.565 26.5851 113.659H26.4909C26.2085 113.752 25.926 113.846 25.6436 113.909C25.3611 114.003 25.11 114.066 24.8589 114.16H24.7647C24.4823 114.285 24.2312 114.348 23.9801 114.442C23.729 114.535 23.4779 114.598 23.2582 114.692H23.1326C22.6304 114.88 22.1282 115.068 21.6574 115.225C17.0437 116.822 14.2503 118.262 14.1875 118.294H14.2189C14.4072 118.012 14.6269 117.761 14.8153 117.511" fill="white"/>
</mask>
<g mask="url(#mask3_1183_19955)">
<path d="M73.7594 88.791H14.4395V118.169H73.7594V88.791Z" fill="#878788"/>
</g>
<path fill-rule="evenodd" clip-rule="evenodd" d="M89.8599 113.439L89.9226 113.376L90.0796 113.189L90.2992 112.907L90.4562 112.719L90.4876 112.625L90.7072 112.343C90.9897 111.998 91.2723 111.654 91.5547 111.309L91.7116 111.121L91.9941 110.777L92.1197 110.62L92.2766 110.432L92.559 110.088C92.9043 109.681 93.2182 109.305 93.5634 108.929L93.9087 108.553L94.2853 108.115C94.5678 107.801 94.8502 107.488 95.1327 107.175C95.2896 107.019 95.4466 106.831 95.5722 106.674L95.6349 106.611C95.9488 106.236 96.294 105.891 96.6079 105.547L96.6706 105.453L97.1101 104.983L97.2356 104.858L97.3611 104.701L97.4239 104.638C97.7064 104.325 97.9889 104.012 98.3028 103.73C98.4597 103.542 98.6166 103.385 98.7735 103.229L98.9304 103.072L99.3071 102.665L99.4326 102.54L99.5582 102.415L99.6209 102.352L99.6838 102.289L99.9035 102.07H99.9348C100.092 101.851 100.249 101.694 100.437 101.538L100.563 101.412L100.939 101.037L101.096 100.911L101.441 100.567L101.598 100.41L102.038 99.9717C102.195 99.8151 102.352 99.6584 102.509 99.5019L102.634 99.3766L102.697 99.3139H102.728L102.948 99.0948L103.168 98.8755L103.387 98.6563L103.607 98.4684L103.858 98.2178L104.078 98.0298L104.141 97.9672L104.266 97.8733L104.486 97.6854L104.706 97.4975L104.925 97.3095L105.145 97.0903L105.333 96.9024L105.584 96.6831L105.71 96.5892L105.867 96.4326L106.275 96.0568L106.369 95.9941L106.589 95.8062L106.746 95.6496L107.028 95.399C107.405 95.0545 107.75 94.7413 108.095 94.4595C108.095 94.4595 108.409 94.2089 108.535 94.0837C108.817 93.8331 109.1 93.5825 109.382 93.3633L109.759 93.0188C110.01 92.7996 110.261 92.6116 110.481 92.3924C112.835 90.4193 114.278 89.3857 114.278 89.3857C114.498 89.5737 114.718 89.7302 114.937 89.9181C115.597 90.4505 116.256 90.9517 116.883 91.4841C117.103 91.6407 117.291 91.8286 117.511 91.9852L117.856 92.2671C118.453 92.7369 119.018 93.238 119.583 93.7078C119.928 94.021 120.273 94.3028 120.618 94.616L120.744 94.7413H120.807V94.7727C121.591 95.4617 122.345 96.1194 123.098 96.8084L123.349 97.0277L123.6 97.2782L123.945 97.5914L124.102 97.748C124.385 97.9985 124.667 98.2804 124.95 98.531L125.107 98.7189C125.295 98.8755 125.452 99.0634 125.64 99.22C125.64 99.22 125.891 99.4705 126.017 99.5958L126.08 99.6585L126.236 99.8151L126.519 100.097L126.801 100.379L127.053 100.629L127.335 100.911C127.335 100.911 127.617 101.193 127.774 101.35L127.837 101.412C127.837 101.412 128.12 101.694 128.245 101.82L128.339 101.914C128.339 101.914 128.622 102.195 128.747 102.321L128.842 102.415L129.155 102.728L129.375 102.947L129.595 103.166L129.877 103.448L130.003 103.605L130.097 103.73L130.317 103.949L130.599 104.262L130.756 104.419L131.007 104.67L131.227 104.889L131.384 105.045L131.666 105.359L131.792 105.484L132.074 105.797L132.263 105.985L132.514 106.267L132.89 106.674L133.11 106.893L133.298 107.081L133.487 107.3L133.675 107.488L133.832 107.645L134.052 107.896L134.114 107.989L134.366 108.271L134.491 108.397L134.742 108.679V108.741L135.056 109.023L135.182 109.18C135.37 109.399 135.527 109.587 135.684 109.775L135.935 110.088L135.998 110.151C136.155 110.37 136.343 110.558 136.5 110.746L136.751 111.059H136.782L137.002 111.341C137.316 111.748 137.567 112.061 137.818 112.374V112.437C137.818 112.437 138.069 112.719 138.163 112.844C138.822 113.752 139.168 114.222 139.168 114.222C131.447 109.618 123.318 108.083 115.942 108.083C115.377 108.083 114.843 108.083 114.31 108.083H114.153C113.525 108.083 112.897 108.146 112.301 108.177H112.144C111.548 108.24 110.951 108.271 110.355 108.334H110.167C109.57 108.428 108.974 108.491 108.409 108.553H108.252C107.656 108.647 107.091 108.741 106.526 108.835H106.4C105.835 108.96 105.27 109.054 104.737 109.148H104.611C104.078 109.274 103.544 109.399 103.011 109.493H102.885C102.634 109.587 102.383 109.649 102.1 109.712H102.069C101.818 109.775 101.567 109.837 101.347 109.9H101.253C101.002 109.994 100.751 110.057 100.5 110.119H100.468C100.217 110.182 99.9976 110.244 99.7465 110.307H99.6838C99.4327 110.401 99.2129 110.464 98.9618 110.526C98.7421 110.589 98.5225 110.652 98.3028 110.714H98.2086C97.9889 110.808 97.7692 110.871 97.5495 110.934C97.3298 110.996 97.1415 111.059 96.9218 111.121H96.8276C96.3882 111.278 95.9802 111.435 95.5722 111.56C91.6803 112.907 89.3263 114.097 89.2949 114.128C89.4519 113.878 89.6402 113.658 89.7971 113.47" fill="#A4BD6D"/>
<mask id="mask4_1183_19955" style="mask-type:luminance" maskUnits="userSpaceOnUse" x="89" y="89" width="51" height="26">
<path d="M89.8599 113.439L89.9226 113.376L90.0796 113.189L90.2992 112.907L90.4562 112.719L90.4876 112.625L90.7072 112.343C90.9897 111.998 91.2723 111.654 91.5547 111.309L91.7116 111.121L91.9941 110.777L92.1197 110.62L92.2766 110.432L92.559 110.088C92.9043 109.681 93.2182 109.305 93.5634 108.929L93.9087 108.553L94.2853 108.115C94.5678 107.801 94.8502 107.488 95.1327 107.175C95.2896 107.019 95.4466 106.831 95.5722 106.674L95.6349 106.611C95.9488 106.236 96.294 105.891 96.6079 105.547L96.6706 105.453L97.1101 104.983L97.2356 104.858L97.3611 104.701L97.4239 104.638C97.7064 104.325 97.9889 104.012 98.3028 103.73C98.4597 103.542 98.6166 103.385 98.7735 103.229L98.9304 103.072L99.3071 102.665L99.4326 102.54L99.5582 102.415L99.6209 102.352L99.6838 102.289L99.9035 102.07H99.9348C100.092 101.851 100.249 101.694 100.437 101.538L100.563 101.412L100.939 101.037L101.096 100.911L101.441 100.567L101.598 100.41L102.038 99.9717C102.195 99.8151 102.352 99.6584 102.509 99.5019L102.634 99.3766L102.697 99.3139H102.728L102.948 99.0948L103.168 98.8755L103.387 98.6563L103.607 98.4684L103.858 98.2178L104.078 98.0298L104.141 97.9672L104.266 97.8733L104.486 97.6854L104.706 97.4975L104.925 97.3095L105.145 97.0903L105.333 96.9024L105.584 96.6831L105.71 96.5892L105.867 96.4326L106.275 96.0568L106.369 95.9941L106.589 95.8062L106.746 95.6496L107.028 95.399C107.405 95.0545 107.75 94.7413 108.095 94.4595C108.095 94.4595 108.409 94.2089 108.535 94.0837C108.817 93.8331 109.1 93.5825 109.382 93.3633L109.759 93.0188C110.01 92.7996 110.261 92.6116 110.481 92.3924C112.835 90.4193 114.278 89.3857 114.278 89.3857C114.498 89.5737 114.718 89.7302 114.937 89.9181C115.597 90.4505 116.256 90.9517 116.883 91.4841C117.103 91.6407 117.291 91.8286 117.511 91.9852L117.856 92.2671C118.453 92.7369 119.018 93.238 119.583 93.7078C119.928 94.021 120.273 94.3028 120.618 94.616L120.744 94.7413H120.807V94.7727C121.591 95.4617 122.345 96.1194 123.098 96.8084L123.349 97.0277L123.6 97.2782L123.945 97.5914L124.102 97.748C124.385 97.9985 124.667 98.2804 124.95 98.531L125.107 98.7189C125.295 98.8755 125.452 99.0634 125.64 99.22C125.64 99.22 125.891 99.4705 126.017 99.5958L126.08 99.6585L126.236 99.8151L126.519 100.097L126.801 100.379L127.053 100.629L127.335 100.911C127.335 100.911 127.617 101.193 127.774 101.35L127.837 101.412C127.837 101.412 128.12 101.694 128.245 101.82L128.339 101.914C128.339 101.914 128.622 102.195 128.747 102.321L128.842 102.415L129.155 102.728L129.375 102.947L129.595 103.166L129.877 103.448L130.003 103.605L130.097 103.73L130.317 103.949L130.599 104.262L130.756 104.419L131.007 104.67L131.227 104.889L131.384 105.045L131.666 105.359L131.792 105.484L132.074 105.797L132.263 105.985L132.514 106.267L132.89 106.674L133.11 106.893L133.298 107.081L133.487 107.3L133.675 107.488L133.832 107.645L134.052 107.896L134.114 107.989L134.366 108.271L134.491 108.397L134.742 108.679V108.741L135.056 109.023L135.182 109.18C135.37 109.399 135.527 109.587 135.684 109.775L135.935 110.088L135.998 110.151C136.155 110.37 136.343 110.558 136.5 110.746L136.751 111.059H136.782L137.002 111.341C137.316 111.748 137.567 112.061 137.818 112.374V112.437C137.818 112.437 138.069 112.719 138.163 112.844C138.822 113.752 139.168 114.222 139.168 114.222C131.447 109.618 123.318 108.083 115.942 108.083C115.377 108.083 114.843 108.083 114.31 108.083H114.153C113.525 108.083 112.897 108.146 112.301 108.177H112.144C111.548 108.24 110.951 108.271 110.355 108.334H110.167C109.57 108.428 108.974 108.491 108.409 108.553H108.252C107.656 108.647 107.091 108.741 106.526 108.835H106.4C105.835 108.96 105.27 109.054 104.737 109.148H104.611C104.078 109.274 103.544 109.399 103.011 109.493H102.885C102.634 109.587 102.383 109.649 102.1 109.712H102.069C101.818 109.775 101.567 109.837 101.347 109.9H101.253C101.002 109.994 100.751 110.057 100.5 110.119H100.468C100.217 110.182 99.9976 110.244 99.7465 110.307H99.6838C99.4327 110.401 99.2129 110.464 98.9618 110.526C98.7421 110.589 98.5225 110.652 98.3028 110.714H98.2086C97.9889 110.808 97.7692 110.871 97.5495 110.934C97.3298 110.996 97.1415 111.059 96.9218 111.121H96.8276C96.3882 111.278 95.9802 111.435 95.5722 111.56C91.6803 112.907 89.3263 114.097 89.2949 114.128C89.4519 113.878 89.6402 113.658 89.7971 113.47" fill="white"/>
</mask>
<g mask="url(#mask4_1183_19955)">
<path d="M139.293 89.3857H89.3262V114.128H139.293V89.3857Z" fill="#A4BD6D"/>
</g>
<mask id="mask5_1183_19955" style="mask-type:luminance" maskUnits="userSpaceOnUse" x="90" y="25" width="46" height="22">
<path d="M91.2715 46.2899L91.3342 46.2273L91.4911 46.0707L91.6794 45.8201L91.805 45.6636L91.8364 45.5695L92.0247 45.319C92.2758 45.0058 92.5269 44.7239 92.8094 44.4107L92.935 44.2542L93.186 43.9723L93.3116 43.847L93.437 43.6904L93.6882 43.4086C94.0021 43.0641 94.2846 42.7195 94.5984 42.375L94.9122 42.0305L95.2575 41.6546C95.5086 41.3727 95.7597 41.0909 96.0107 40.809C96.0107 40.809 96.2932 40.5272 96.4188 40.3706L96.4502 40.3079C96.7327 39.9947 97.0465 39.6815 97.329 39.3684L97.3917 39.3057L97.7684 38.8986L97.8625 38.8046L97.9881 38.6793L98.0508 38.6167C98.3019 38.3348 98.5844 38.0843 98.8355 37.8024C98.8355 37.8024 99.118 37.4891 99.2749 37.3639L99.4005 37.2387L99.7457 36.8941L99.8399 36.8001L99.9654 36.6748L100.028 36.6122L100.091 36.5496L100.279 36.3617H100.311C100.468 36.1738 100.625 36.0484 100.75 35.8918L100.876 35.7666L101.221 35.4534L101.346 35.3281L101.66 35.0149L101.786 34.8897L102.194 34.5138C102.194 34.5138 102.476 34.232 102.602 34.1067L102.696 34.0128L102.759 33.9501L102.947 33.7622L103.167 33.5742L103.355 33.3863L103.543 33.1984L103.763 32.9792L103.951 32.7913L104.014 32.7287L104.108 32.6347L104.297 32.4468L104.485 32.2588L104.673 32.1022L104.862 31.9143L105.05 31.7578L105.27 31.5699L105.364 31.4758L105.521 31.3506L105.897 31.0374L105.96 30.9748L106.149 30.8181L106.305 30.6928L106.588 30.4737C106.933 30.1605 107.247 29.9098 107.561 29.628C107.561 29.628 107.843 29.4088 107.969 29.2835C108.22 29.0643 108.503 28.845 108.722 28.6571L109.067 28.3752C109.287 28.1873 109.507 27.9994 109.727 27.8428C111.892 26.1203 113.179 25.1807 113.21 25.1807C113.43 25.3373 113.618 25.4938 113.838 25.6504C114.434 26.1202 115.031 26.5587 115.627 27.0285C115.815 27.1851 116.004 27.3103 116.192 27.4669L116.506 27.7175C117.04 28.156 117.573 28.5632 118.075 29.0016C118.389 29.2522 118.734 29.5341 119.048 29.7846L119.174 29.8786H119.205V29.9098C119.927 30.5049 120.618 31.1 121.308 31.6951L121.528 31.883L121.779 32.1022L122.093 32.3841L122.25 32.5094C122.501 32.7286 122.752 32.9792 123.003 33.1984L123.16 33.355C123.317 33.5116 123.474 33.6369 123.662 33.7935C123.662 33.7935 123.882 34.0127 124.007 34.138H124.07L124.227 34.3259L124.478 34.5765L124.729 34.827L124.949 35.0463L125.2 35.2968C125.2 35.2968 125.482 35.5474 125.608 35.6727L125.671 35.7353C125.671 35.7353 125.922 35.9858 126.047 36.0798L126.142 36.1737C126.142 36.1737 126.393 36.4243 126.518 36.5183L126.612 36.6122L126.895 36.8941L127.083 37.082L127.271 37.2699L127.523 37.5205L127.648 37.6457L127.742 37.7397L127.931 37.9277L128.213 38.2096L128.37 38.3661L128.59 38.5854L128.778 38.7733L128.904 38.9298L129.155 39.2117L129.28 39.337L129.531 39.5876L129.688 39.7442L129.939 39.9947L130.285 40.3392L130.473 40.5272L130.63 40.6837L130.818 40.8716L130.975 41.0596L131.101 41.2162L131.32 41.4354L131.383 41.4981L131.603 41.7487L131.697 41.8739L131.917 42.1245H131.948L132.168 42.4376L132.293 42.5629C132.45 42.7508 132.607 42.9075 132.764 43.0954L132.984 43.3772L133.047 43.4398C133.204 43.6278 133.36 43.7844 133.486 43.9723L133.706 44.2228H133.737L133.925 44.4734C134.208 44.8179 134.428 45.0998 134.647 45.3816H134.679C134.773 45.5382 134.867 45.6636 134.961 45.7575C135.589 46.5405 135.871 46.9789 135.903 46.9789C128.872 42.9074 121.465 41.5607 114.717 41.5607C114.215 41.5607 113.713 41.5607 113.21 41.5607H113.053C112.488 41.5607 111.924 41.6233 111.359 41.6546H111.202C110.637 41.7172 110.103 41.7486 109.57 41.8113H109.413C108.879 41.8739 108.346 41.9365 107.812 41.9992H107.686C107.153 42.0931 106.619 42.1557 106.117 42.2497H105.992C105.458 42.3436 104.956 42.4377 104.454 42.5316H104.359C103.857 42.6569 103.387 42.7508 102.884 42.8448H102.759C102.508 42.9074 102.288 42.97 102.068 43.0327H102.037C101.817 43.0953 101.597 43.158 101.378 43.1893H101.315C101.095 43.252 100.844 43.3146 100.625 43.3772C100.405 43.4399 100.185 43.5025 99.9654 43.5651H99.9027C99.683 43.6278 99.4632 43.6904 99.2435 43.7531C99.0238 43.8157 98.8356 43.8783 98.6159 43.941H98.5217C98.302 44.0349 98.1137 44.0975 97.9254 44.1289C97.737 44.1915 97.5486 44.2541 97.3603 44.3168H97.2662C96.8582 44.4734 96.4816 44.5987 96.1363 44.7239C92.5897 45.9141 90.4554 46.9789 90.3926 46.9789C90.5495 46.7597 90.7065 46.5718 90.8634 46.3839" fill="white"/>
</mask>
<g mask="url(#mask5_1183_19955)">
<path d="M136.342 25.1182H90.8008V46.8852H136.342V25.1182Z" fill="#878788"/>
</g>
<path d="M250.306 125.56C251.028 126.312 251.405 127.408 251.405 128.817C251.405 130.321 251.06 131.479 250.338 132.294C249.616 133.077 248.706 133.484 247.576 133.484C246.854 133.484 246.258 133.327 245.787 132.983C245.536 132.795 245.285 132.513 245.033 132.168V136.647H242.711V124.652H244.971V125.936C245.222 125.56 245.504 125.278 245.787 125.059C246.32 124.683 246.948 124.495 247.67 124.495C248.737 124.495 249.616 124.871 250.369 125.623M248.517 127.189C248.203 126.688 247.67 126.406 246.948 126.406C246.101 126.406 245.504 126.781 245.159 127.564C245.002 127.972 244.908 128.504 244.908 129.13C244.908 130.133 245.19 130.822 245.755 131.229C246.101 131.479 246.477 131.573 246.948 131.573C247.607 131.573 248.109 131.323 248.455 130.853C248.8 130.352 248.988 129.725 248.988 128.911C248.988 128.253 248.831 127.658 248.517 127.157V127.189Z" fill="#72716F"/>
<path d="M262.829 125.56C262.076 126.312 261.668 127.408 261.668 128.817C261.668 130.321 262.045 131.479 262.798 132.294C263.551 133.077 264.524 133.484 265.685 133.484C266.439 133.484 267.066 133.327 267.569 132.983C267.851 132.795 268.102 132.513 268.353 132.168V136.647H270.77V124.652H268.416V125.936C268.165 125.56 267.882 125.278 267.569 125.059C267.004 124.683 266.376 124.495 265.623 124.495C264.524 124.495 263.583 124.871 262.829 125.623M264.712 127.189C265.058 126.688 265.591 126.406 266.345 126.406C267.255 126.406 267.851 126.781 268.196 127.564C268.385 127.972 268.447 128.504 268.447 129.13C268.447 130.133 268.165 130.822 267.569 131.229C267.223 131.479 266.815 131.573 266.345 131.573C265.654 131.573 265.121 131.323 264.775 130.853C264.399 130.352 264.242 129.725 264.242 128.911C264.242 128.253 264.399 127.658 264.744 127.157L264.712 127.189Z" fill="#72716F"/>
<path d="M274.284 124.589V129.788C274.284 130.289 274.347 130.634 274.472 130.884C274.692 131.323 275.1 131.542 275.728 131.542C276.512 131.542 277.077 131.229 277.36 130.602C277.517 130.258 277.58 129.819 277.58 129.256V124.558H279.965V133.17H277.674V131.949C277.674 131.949 277.611 132.043 277.517 132.2C277.423 132.325 277.328 132.45 277.203 132.544C276.826 132.857 276.481 133.077 276.136 133.202C275.791 133.327 275.382 133.39 274.943 133.39C273.625 133.39 272.715 132.92 272.244 132.012C271.993 131.511 271.867 130.759 271.867 129.788V124.589H274.284Z" fill="#72716F"/>
</svg>
