<svg width="1065" height="915" viewBox="0 0 1065 915" fill="none" xmlns="http://www.w3.org/2000/svg">
<g clip-path="url(#clip0_1614_14968)">
<path d="M291.39 353.85C286.45 354.34 282.57 350.91 282.06 345.76C281.76 342.77 282.61 340.25 284.43 338.47L287.36 341.13C286.23 342.27 285.68 343.59 285.84 345.15C286.11 347.82 288.14 349.49 290.93 349.21C293.71 348.93 295.39 346.89 295.12 344.23C294.97 342.68 294.17 341.49 292.84 340.59L295.19 337.4C297.32 338.78 298.65 341.09 298.94 344.08C299.45 349.23 296.32 353.36 291.38 353.85H291.39Z" fill="#008D36"/>
<path d="M291.59 336.95C287.79 337.08 284.98 334.17 284.84 330.05C284.69 325.88 287.3 322.83 291.09 322.69C294.91 322.56 297.74 325.42 297.88 329.59C298.02 333.71 295.4 336.81 291.58 336.95H291.59ZM291.25 327.16C289.34 327.23 288.31 328.41 288.36 329.92C288.41 331.41 289.52 332.54 291.44 332.47C293.37 332.4 294.43 331.2 294.38 329.71C294.33 328.2 293.19 327.09 291.26 327.16H291.25Z" fill="#008D36"/>
<path d="M290.6 307L297.82 307.21L297.69 311.64L291.19 311.45C289.37 311.4 288.58 312.17 288.54 313.45C288.5 314.87 289.35 315.99 291.45 316.05L297.56 316.23L297.43 320.66L284.8 320.3L284.92 316.08L286.29 316.12C285.27 315.09 284.78 313.65 284.82 312.07C284.9 309.11 286.67 306.9 290.59 307.01L290.6 307Z" fill="#008D36"/>
<path d="M296.85 305.589L293.95 303.999C294.77 302.899 295.36 301.249 295.49 299.709C295.62 298.219 295.34 297.709 294.8 297.659C293.1 297.509 294.38 305.109 289.34 304.669C286.97 304.459 285.35 302.119 285.7 298.169C285.85 296.399 286.4 294.489 287.2 293.289L290.08 294.879C289.27 296.069 288.93 297.309 288.83 298.419C288.7 299.909 289.07 300.479 289.54 300.519C291.28 300.669 290.05 293.099 295.04 293.539C297.36 293.739 298.99 296.039 298.63 300.119C298.44 302.259 297.72 304.419 296.84 305.579L296.85 305.589Z" fill="#008D36"/>
<path d="M295.84 278.759L294.53 287.849C295.85 287.659 296.75 286.689 296.98 285.069C297.16 283.849 296.93 282.989 296.31 282.029L299.04 280.069C300.21 281.459 300.64 283.319 300.3 285.689C299.66 290.139 296.5 292.629 292.76 292.089C289 291.549 286.75 288.229 287.31 284.289C287.84 280.599 290.63 277.939 294.76 278.529C295.08 278.579 295.49 278.679 295.83 278.759H295.84ZM292.21 287.579L292.95 282.459C291.6 282.499 290.63 283.349 290.43 284.709C290.23 286.069 290.93 287.139 292.21 287.579Z" fill="#008D36"/>
<path d="M290.43 266.83L294.34 267.6C294.22 267.98 294.14 268.25 294.08 268.57C293.73 270.33 294.38 271.72 296.56 272.15L302.26 273.27L301.4 277.62L289 275.17L289.82 271.03L291.31 271.32C290.37 270.21 290.08 268.65 290.44 266.82L290.43 266.83Z" fill="#008D36"/>
<path d="M294.45 251.359L305.42 259.509L304.3 263.939L290.78 265.889L291.89 261.479L300.11 260.429L293.41 255.449L294.44 251.359H294.45Z" fill="#008D36"/>
<path d="M303.74 240.599L310.43 242.709L309.19 246.649L307.63 246.159C308.6 247.119 308.82 248.509 308.27 250.269C307.36 253.159 305.23 254.249 303.14 253.589C300.92 252.889 300.05 250.829 301.23 247.099L301.99 244.699C300.75 244.379 299.8 244.989 299.27 246.649C298.91 247.809 298.9 249.219 299.28 250.249L295.96 250.769C295.48 249.099 295.64 246.909 296.23 245.019C297.46 241.109 299.9 239.409 303.73 240.609L303.74 240.599ZM305.23 245.709L304.19 245.379L303.62 247.199C303.19 248.559 303.53 249.199 304.26 249.429C304.97 249.649 305.66 249.239 305.98 248.239C306.27 247.309 306.09 246.339 305.24 245.709H305.23Z" fill="#008D36"/>
<path d="M312.47 217.619L319.17 220.329L317.51 224.429L311.48 221.989C309.79 221.309 308.8 221.709 308.36 222.789C307.88 223.979 308.33 225.169 310.14 225.899L315.95 228.249L314.29 232.359L308.26 229.919C306.57 229.239 305.59 229.619 305.14 230.719C304.65 231.929 305.1 233.119 306.92 233.849L312.73 236.199L311.07 240.309L299.36 235.569L300.94 231.659L302.17 232.159C301.58 230.889 301.6 229.469 302.17 228.079C302.82 226.479 303.95 225.359 305.54 225.039C304.75 223.639 304.66 221.919 305.35 220.229C306.45 217.509 308.84 216.139 312.47 217.609V217.619Z" fill="#008D36"/>
<path d="M314.43 215.82C311.04 214.11 309.98 210.21 311.84 206.52C313.72 202.79 317.47 201.37 320.86 203.08C324.27 204.8 325.38 208.67 323.5 212.4C321.64 216.08 317.85 217.54 314.44 215.82H314.43ZM318.84 207.08C317.13 206.22 315.66 206.76 314.98 208.11C314.31 209.44 314.74 210.97 316.45 211.83C318.18 212.7 319.68 212.15 320.35 210.82C321.03 209.47 320.57 207.95 318.84 207.08Z" fill="#008D36"/>
<path d="M325.99 204.691L324.03 202.021C325.24 201.371 326.47 200.121 327.24 198.791C327.99 197.501 327.95 196.911 327.49 196.641C326.02 195.791 323.96 203.211 319.58 200.681C317.52 199.491 317.05 196.681 319.03 193.251C319.92 191.721 321.22 190.211 322.46 189.471L324.4 192.131C323.16 192.871 322.33 193.841 321.77 194.811C321.02 196.101 321.12 196.781 321.52 197.011C323.03 197.891 325.12 190.511 329.46 193.011C331.48 194.181 331.98 196.941 329.92 200.491C328.85 202.351 327.27 203.991 325.99 204.681V204.691Z" fill="#008D36"/>
<path d="M323.1 178.25L325.58 174.58L339.92 184.25L337.44 187.92L323.1 178.25Z" fill="#008D36"/>
<path d="M335.83 178.849C332.78 176.579 332.41 172.549 334.87 169.239C337.36 165.889 341.3 165.129 344.35 167.399C347.42 169.679 347.84 173.689 345.35 177.029C342.89 180.339 338.9 181.129 335.83 178.839V178.849ZM341.67 170.999C340.14 169.859 338.59 170.139 337.69 171.349C336.8 172.549 336.96 174.119 338.5 175.259C340.05 176.409 341.63 176.129 342.52 174.939C343.42 173.719 343.23 172.149 341.67 170.999Z" fill="#008D36"/>
<path d="M349.12 169.869L347.65 166.909C348.95 166.479 350.38 165.459 351.37 164.279C352.33 163.139 352.39 162.549 351.98 162.209C350.67 161.119 347.37 168.079 343.49 164.839C341.67 163.309 341.68 160.469 344.22 157.429C345.36 156.069 346.9 154.809 348.24 154.289L349.69 157.239C348.35 157.759 347.36 158.569 346.64 159.429C345.68 160.569 345.66 161.259 346.02 161.549C347.36 162.669 350.68 155.759 354.53 158.969C356.32 160.469 356.34 163.279 353.7 166.419C352.32 168.069 350.49 169.419 349.11 169.869H349.12Z" fill="#008D36"/>
<path d="M359.92 140.289L362.78 143.069C362.47 143.319 362.26 143.509 362.03 143.739C360.78 145.029 360.57 146.549 362.16 148.089L366.32 152.129L363.24 155.309L354.18 146.509L357.12 143.479L358.21 144.539C358.02 143.089 358.63 141.629 359.93 140.289H359.92Z" fill="#008D36"/>
<path d="M376.06 135.59L369.34 141.85C370.49 142.53 371.8 142.33 372.99 141.22C373.89 140.38 374.25 139.57 374.38 138.43L377.74 138.62C377.77 140.44 376.95 142.15 375.2 143.79C371.91 146.86 367.88 146.81 365.31 144.05C362.72 141.27 363.05 137.27 365.96 134.56C368.69 132.02 372.53 131.69 375.37 134.75C375.59 134.99 375.84 135.33 376.07 135.6L376.06 135.59ZM367.7 140.19L371.49 136.66C370.41 135.85 369.13 135.9 368.12 136.84C367.11 137.78 366.99 139.04 367.7 140.19Z" fill="#008D36"/>
<path d="M376.38 133.82C373.96 130.89 374.55 126.89 377.82 124.19C380.03 122.36 382.53 121.96 384.59 123.09L383.06 126.62C381.84 126.09 380.83 126.26 380.04 126.91C378.86 127.89 378.6 129.49 379.82 130.96C381.07 132.47 382.68 132.52 383.87 131.54C384.66 130.89 385.02 129.93 384.73 128.63L388.48 127.79C389.21 130.03 388.34 132.41 386.13 134.24C382.86 136.94 378.82 136.77 376.37 133.81L376.38 133.82Z" fill="#008D36"/>
<path d="M395.03 111.391L402.46 121.601L399.05 124.081L398.25 122.991C398.09 124.401 397.3 125.611 396.13 126.461C393.62 128.281 390.75 128.181 388.39 124.941L384.23 119.231L387.81 116.621L391.54 121.751C392.69 123.331 393.77 123.501 394.84 122.721C395.9 121.951 396.26 120.621 395.01 118.911L391.43 113.991L395.01 111.381L395.03 111.391Z" fill="#008D36"/>
<path d="M404.78 104.789L406.95 108.129C406.59 108.309 406.34 108.439 406.07 108.619C404.57 109.599 404.02 111.029 405.23 112.889L408.39 117.759L404.68 120.169L397.8 109.579L401.34 107.279L402.17 108.549C402.31 107.099 403.22 105.809 404.79 104.789H404.78Z" fill="#008D36"/>
<path d="M411.76 114.249L411.38 110.959C412.75 110.999 414.44 110.519 415.77 109.739C417.06 108.989 417.32 108.459 417.05 107.999C416.19 106.529 410.73 111.969 408.17 107.599C406.97 105.549 407.94 102.869 411.37 100.869C412.9 99.9793 414.78 99.3093 416.22 99.2793L416.59 102.549C415.15 102.579 413.95 103.019 412.98 103.579C411.69 104.329 411.44 104.969 411.68 105.369C412.56 106.879 418.03 101.499 420.56 105.819C421.74 107.829 420.8 110.479 417.26 112.559C415.41 113.639 413.23 114.299 411.77 114.259L411.76 114.249Z" fill="#008D36"/>
<path d="M420.42 103.121C418.69 99.7307 420.14 95.9607 423.82 94.0907C427.54 92.1907 431.4 93.2607 433.13 96.6407C434.87 100.051 433.47 103.821 429.75 105.721C426.07 107.591 422.16 106.531 420.42 103.121ZM429.14 98.6707C428.27 96.9707 426.77 96.5307 425.42 97.2207C424.09 97.9007 423.54 99.3807 424.41 101.091C425.29 102.811 426.83 103.261 428.15 102.581C429.5 101.891 430.02 100.401 429.14 98.6707Z" fill="#008D36"/>
<path d="M436.33 100.96V97.6497C437.69 97.8397 439.42 97.5697 440.83 96.9497C442.2 96.3497 442.51 95.8497 442.3 95.3597C441.62 93.7997 435.56 98.5697 433.53 93.9397C432.57 91.7597 433.85 89.2197 437.48 87.6197C439.1 86.9097 441.05 86.4597 442.48 86.5997V89.8897C441.04 89.7597 439.79 90.0497 438.77 90.4997C437.4 91.0997 437.08 91.6997 437.27 92.1297C437.97 93.7297 444.02 89.0097 446.04 93.5997C446.98 95.7297 445.74 98.2597 441.99 99.9097C440.03 100.77 437.78 101.17 436.34 100.96H436.33Z" fill="#008D36"/>
<path d="M465.81 83.0008L468.13 89.8408L463.93 91.2608L461.84 85.1008C461.26 83.3808 460.26 82.9008 459.05 83.3108C457.7 83.7708 456.95 84.9608 457.62 86.9408L459.58 92.7308L455.38 94.1508L451.33 82.1808L455.33 80.8308L455.77 82.1308C456.38 80.8108 457.56 79.8508 459.06 79.3408C461.86 78.3908 464.55 79.2808 465.81 82.9908V83.0008Z" fill="#008D36"/>
<path d="M480.16 79.2895L481.98 86.0595L478 87.1295L477.58 85.5495C477.29 86.8795 476.24 87.8195 474.46 88.2995C471.53 89.0895 469.47 87.8795 468.9 85.7595C468.29 83.5095 469.56 81.6695 473.34 80.6495L475.77 79.9995C475.37 78.7795 474.35 78.3095 472.66 78.7595C471.49 79.0695 470.29 79.8295 469.64 80.7095L467.42 78.1895C468.57 76.8895 470.5 75.8395 472.42 75.3195C476.38 74.2495 479.13 75.3995 480.17 79.2695L480.16 79.2895ZM476.65 83.2995L476.37 82.2395L474.52 82.7395C473.15 83.1095 472.79 83.7395 472.98 84.4795C473.17 85.1995 473.9 85.5595 474.91 85.2895C475.86 85.0395 476.57 84.3595 476.64 83.2995H476.65Z" fill="#008D36"/>
<path d="M492.94 83.1696C492.29 83.8096 491.22 84.2796 490.08 84.5196C486.91 85.1996 484.73 84.0496 484.05 80.8796L483.16 76.7296L481.36 77.1196L480.66 73.8796L482.46 73.4896L481.77 70.2796L486.1 69.3496L486.79 72.5596L489.62 71.9496L490.32 75.1896L487.49 75.7996L488.37 79.8996C488.57 80.8096 489.2 81.1996 489.97 81.0296C490.45 80.9296 490.9 80.6896 491.21 80.3596L492.93 83.1596L492.94 83.1696Z" fill="#008D36"/>
<path d="M505.64 68.8008L507.62 81.2808L503.45 81.9408L503.24 80.6008C502.46 81.7908 501.2 82.5008 499.78 82.7308C496.72 83.2108 494.21 81.8208 493.58 77.8608L492.47 70.8808L496.85 70.1908L497.84 76.4508C498.15 78.3808 499.03 79.0208 500.34 78.8208C501.63 78.6208 502.55 77.6008 502.22 75.5008L501.27 69.4908L505.65 68.8008H505.64Z" fill="#008D36"/>
<path d="M517.32 67.3594L517.73 71.3194C517.33 71.3194 517.05 71.3194 516.73 71.3494C514.95 71.5394 513.81 72.5694 514.04 74.7694L514.64 80.5394L510.24 80.9994L508.93 68.4394L513.13 67.9994L513.29 69.5094C514.08 68.2794 515.48 67.5494 517.33 67.3594H517.32Z" fill="#008D36"/>
<path d="M531.61 72.3407L531.99 79.3407L527.87 79.5607L527.78 77.9307C527.22 79.1707 525.99 79.8707 524.16 79.9707C521.13 80.1307 519.37 78.5207 519.25 76.3407C519.13 74.0107 520.75 72.4807 524.66 72.2707L527.17 72.1307C527.03 70.8507 526.13 70.1807 524.39 70.2707C523.18 70.3307 521.85 70.8307 521.03 71.5507L519.38 68.6307C520.77 67.6007 522.88 66.9707 524.86 66.8607C528.96 66.6407 531.4 68.3307 531.62 72.3307L531.61 72.3407ZM527.35 75.5407L527.29 74.4507L525.38 74.5507C523.96 74.6307 523.48 75.1707 523.52 75.9307C523.56 76.6707 524.19 77.1807 525.24 77.1207C526.22 77.0707 527.05 76.5607 527.35 75.5407Z" fill="#008D36"/>
<path d="M534.34 62.07L538.77 62L539.05 79.29L534.62 79.36L534.34 62.07Z" fill="#008D36"/>
<path d="M554.75 74.5006L545.57 74.1806C545.9 75.4706 546.97 76.2606 548.6 76.3106C549.84 76.3506 550.66 76.0306 551.55 75.3206L553.8 77.8206C552.54 79.1306 550.75 79.7706 548.35 79.6806C543.85 79.5206 541.04 76.6506 541.17 72.8806C541.3 69.0806 544.36 66.4806 548.34 66.6206C552.07 66.7506 555.01 69.2306 554.87 73.4006C554.86 73.7306 554.8 74.1406 554.76 74.4906L554.75 74.5006ZM545.58 71.8506L550.75 72.0306C550.56 70.6906 549.61 69.8206 548.24 69.7706C546.86 69.7206 545.88 70.5306 545.58 71.8506Z" fill="#008D36"/>
<path d="M555.55 78.6801L557.15 75.7801C558.25 76.6001 559.9 77.2001 561.43 77.3401C562.92 77.4701 563.43 77.1901 563.48 76.6601C563.63 74.9701 556.03 76.2201 556.49 71.1801C556.7 68.8101 559.05 67.2001 563 67.5601C564.76 67.7201 566.68 68.2701 567.87 69.0801L566.28 71.9501C565.09 71.1401 563.86 70.7901 562.74 70.6901C561.25 70.5601 560.68 70.9201 560.64 71.3901C560.48 73.1301 568.06 71.9201 567.6 76.9101C567.39 79.2301 565.09 80.8501 561.01 80.4801C558.88 80.2901 556.72 79.5501 555.56 78.6801H555.55Z" fill="#008D36"/>
<path d="M366.26 387.469C403 387.469 438.4 396.189 470.1 412.619C440.95 391.779 421.9 357.679 421.9 319.189C421.9 255.899 473.39 204.399 536.69 204.399C599.99 204.399 651.48 255.889 651.48 319.189C651.48 357.669 632.43 391.779 603.28 412.619C634.99 396.189 670.38 387.469 707.12 387.469C722 387.469 736.65 388.899 750.93 391.689C758.71 368.639 762.76 344.229 762.76 319.189C762.76 258.799 739.24 202.029 696.54 159.329C653.84 116.629 597.07 93.1094 536.68 93.1094C476.29 93.1094 419.52 116.629 376.82 159.329C334.12 202.029 310.6 258.799 310.6 319.189C310.6 344.229 314.66 368.639 322.43 391.689C336.71 388.899 351.37 387.469 366.24 387.469H366.26Z" fill="url(#paint0_linear_1614_14968)"/>
<path d="M740.63 416.981C754.84 387.401 762.81 354.261 762.81 319.251C762.81 194.371 661.57 93.1309 536.69 93.1309C411.81 93.1309 310.56 194.361 310.56 319.241C310.56 354.251 318.54 387.391 332.74 416.971H740.62L740.63 416.981Z" fill="url(#paint1_radial_1614_14968)" style="mix-blend-mode:multiply"/>
<path d="M697.99 266.901L700.29 264.131L700.26 264.011L699.69 261.951L696.84 262.741L696.18 260.371L706.41 257.531L707.64 261.961C708.4 264.691 707.46 266.801 705.16 267.431C703.62 267.861 702.28 267.391 701.34 266.221L698.69 269.431L697.98 266.891L697.99 266.901ZM705.68 262.381L705.14 260.451L701.57 261.441L702.11 263.371C702.51 264.821 703.39 265.361 704.5 265.051C705.63 264.741 706.08 263.821 705.68 262.381Z" fill="white"/>
<path d="M704.07 277.852L702.72 271.832C701.78 272.272 701.36 273.252 701.63 274.472C701.82 275.312 702.21 275.862 702.85 276.302L701.79 277.832C700.78 277.282 700.09 276.272 699.77 274.832C699.15 272.082 700.49 269.902 702.85 269.372C705.23 268.842 707.36 270.272 707.9 272.702C708.42 275.042 707.26 277.202 704.7 277.772C704.52 277.812 704.26 277.842 704.07 277.862V277.852ZM704.06 271.502L704.94 275.422C705.91 275.032 706.39 274.132 706.16 273.102C705.92 272.052 705.12 271.442 704.06 271.502Z" fill="white"/>
<path d="M713.57 286.292L702.49 288.262L702.09 286.032L703.02 285.872C702.21 285.412 701.72 284.622 701.53 283.552C701.13 281.282 702.43 279.242 704.95 278.802C707.47 278.352 709.4 279.812 709.8 282.082C709.97 283.072 709.8 283.962 709.26 284.662L713.16 283.972L713.57 286.302V286.292ZM706.1 285.262C707.49 285.012 708.17 283.972 707.96 282.822C707.75 281.652 706.76 280.912 705.37 281.152C703.98 281.402 703.3 282.442 703.51 283.612C703.71 284.762 704.71 285.512 706.1 285.262Z" fill="white"/>
<path d="M711.98 297.401L703.89 298.471L703.6 296.241L704.56 296.111C703.77 295.591 703.28 294.731 703.14 293.741C702.87 291.711 703.83 290.131 706.32 289.801L710.89 289.201L711.2 291.551L706.97 292.111C705.62 292.291 705.09 292.971 705.23 294.011C705.37 295.091 706.17 295.781 707.66 295.591L711.66 295.061L711.97 297.411L711.98 297.401Z" fill="white"/>
<path d="M708.11 299.582C710.56 299.372 712.46 301.102 712.69 303.752C712.84 305.462 712.22 306.872 710.94 307.572L709.8 305.832C710.53 305.332 710.82 304.652 710.76 303.912C710.66 302.722 709.74 301.852 708.32 301.982C706.9 302.102 706.15 303.112 706.25 304.312C706.31 305.052 706.7 305.672 707.53 306.042L706.69 307.952C705.34 307.472 704.47 306.202 704.32 304.492C704.09 301.852 705.66 299.812 708.11 299.592V299.582Z" fill="white"/>
<path d="M708.86 308.491C711.32 308.401 713.12 310.241 713.22 312.891C713.28 314.601 712.59 315.981 711.27 316.621L710.22 314.821C710.98 314.351 711.3 313.691 711.28 312.951C711.24 311.751 710.37 310.841 708.95 310.891C707.53 310.941 706.73 311.911 706.77 313.111C706.8 313.851 707.15 314.491 707.96 314.901L707.02 316.771C705.7 316.231 704.89 314.901 704.83 313.191C704.74 310.541 706.41 308.581 708.87 308.501L708.86 308.491Z" fill="white"/>
<path d="M713.169 318.161L713.139 320.531L704.979 320.421L705.009 318.051L713.169 318.161ZM715.629 317.901C716.369 317.901 716.939 318.511 716.929 319.391C716.919 320.271 716.359 320.851 715.639 320.841C714.849 320.831 714.279 320.231 714.289 319.351C714.299 318.471 714.889 317.891 715.629 317.901Z" fill="white"/>
<path d="M709.07 322.14C711.52 322.27 713.17 324.25 713.03 326.85C712.89 329.44 711.05 331.23 708.6 331.1C706.14 330.97 704.5 329 704.64 326.41C704.78 323.82 706.62 322.02 709.07 322.14ZM708.72 328.7C710.13 328.77 711.02 327.92 711.09 326.74C711.15 325.56 710.35 324.6 708.94 324.53C707.53 324.46 706.64 325.32 706.57 326.5C706.51 327.68 707.31 328.62 708.72 328.69V328.7ZM716.1 327.64L715.97 330.19L713.93 327.33L714.03 325.48L716.11 327.64H716.1Z" fill="white"/>
<path d="M708.13 341.091L703.49 340.581L703.75 338.231L708.03 338.701C709.34 338.841 710.01 338.311 710.12 337.271C710.24 336.141 709.64 335.251 708.15 335.091L704.14 334.651L704.4 332.301L712.51 333.191L712.26 335.441L711.31 335.341C711.93 336.051 712.21 337.041 712.09 338.141C711.88 340.051 710.61 341.381 708.13 341.111V341.091Z" fill="white"/>
<path d="M712.22 356.2L701.16 354.09L701.42 352.72L702.67 352.96C701.9 352.15 701.64 351.05 701.86 349.89C702.3 347.58 704.25 346.2 706.66 346.66C709.08 347.12 710.37 349.11 709.92 351.42C709.71 352.54 709.1 353.44 708.13 353.94L712.48 354.77L712.21 356.2H712.22ZM705.37 353.43C707.05 353.75 708.36 352.81 708.65 351.3C708.94 349.78 708.07 348.42 706.38 348.1C704.69 347.78 703.37 348.72 703.09 350.24C702.8 351.75 703.69 353.1 705.37 353.42V353.43Z" fill="white"/>
<path d="M702.27 364.521L703.84 358.191C702.43 358.031 701.24 358.911 700.86 360.451C700.63 361.361 700.75 362.211 701.24 362.941L700.13 363.491C699.48 362.581 699.3 361.391 699.63 360.101C700.25 357.581 702.33 356.321 704.66 356.891C706.97 357.461 708.22 359.541 707.67 361.791C707.11 364.041 705.09 365.251 702.69 364.651C702.57 364.621 702.4 364.561 702.27 364.511V364.521ZM704.86 358.441L703.62 363.451C704.97 363.631 706.14 362.871 706.48 361.501C706.82 360.151 706.15 358.921 704.86 358.441Z" fill="white"/>
<path d="M690.46 275.021L690.94 277.341L682.95 279.001L682.47 276.681L690.46 275.021ZM692.81 274.231C693.54 274.081 694.22 274.541 694.4 275.401C694.58 276.261 694.16 276.951 693.45 277.101C692.68 277.261 691.99 276.801 691.82 275.941C691.64 275.081 692.09 274.381 692.81 274.231Z" fill="white"/>
<path d="M690.25 293.861L685.64 294.601L685.26 292.261L689.51 291.581C690.81 291.371 691.32 290.691 691.17 289.751C691 288.701 690.21 288.081 688.77 288.311L684.73 288.961L684.35 286.631L688.6 285.951C689.9 285.741 690.41 285.091 690.26 284.121C690.09 283.091 689.3 282.461 687.86 282.691L683.82 283.341L683.44 281.001L691.49 279.701L691.85 281.931L690.92 282.081C691.71 282.571 692.21 283.411 692.38 284.441C692.56 285.561 692.28 286.591 691.49 287.301C692.42 287.811 693.08 288.781 693.28 289.991C693.59 291.911 692.7 293.461 690.25 293.861Z" fill="white"/>
<path d="M690.79 305.002C688.24 305.262 686.43 303.662 686.2 301.382C686.1 300.372 686.33 299.512 686.93 298.842L683.14 299.232L682.9 296.882L693.95 295.752L694.18 298.002L693.24 298.102C694.01 298.622 694.45 299.462 694.56 300.542C694.79 302.822 693.34 304.752 690.79 305.012V305.002ZM690.55 302.622C691.95 302.482 692.71 301.502 692.59 300.322C692.47 299.142 691.53 298.342 690.13 298.482C688.73 298.622 687.97 299.602 688.09 300.782C688.21 301.962 689.15 302.762 690.55 302.622Z" fill="white"/>
<path d="M691.83 313.712L687.18 313.942L687.07 311.732L688.09 311.682C687.33 311.282 686.89 310.452 686.83 309.252C686.73 307.342 687.74 306.152 689.15 306.082C690.59 306.012 691.64 306.972 691.77 309.462L691.86 311.342C692.88 311.292 693.44 310.652 693.37 309.382C693.33 308.522 692.99 307.642 692.49 307.072L694.1 306.142C694.78 307.002 695.2 308.302 695.26 309.612C695.38 312.092 694.31 313.592 691.84 313.722L691.83 313.712ZM689.64 311.462L690.47 311.422L690.39 309.802C690.33 308.692 689.91 308.372 689.36 308.392C688.77 308.422 688.4 308.942 688.44 309.772C688.48 310.562 688.88 311.222 689.63 311.462H689.64Z" fill="white"/>
<path d="M691.29 315.461C693.75 315.491 695.46 317.421 695.43 320.071C695.41 321.781 694.64 323.121 693.3 323.701L692.34 321.851C693.12 321.421 693.48 320.771 693.49 320.031C693.51 318.831 692.69 317.881 691.26 317.861C689.83 317.841 688.99 318.771 688.97 319.971C688.97 320.711 689.28 321.371 690.07 321.821L689.04 323.641C687.74 323.031 687 321.671 687.03 319.961C687.07 317.311 688.84 315.431 691.3 315.471L691.29 315.461Z" fill="white"/>
<path d="M687.1 330.261C686.78 329.761 686.65 329.031 686.7 328.311C686.81 326.391 687.86 325.321 689.8 325.441L693.15 325.631L693.22 324.371L695.04 324.471L694.97 325.731L696.95 325.841L696.82 328.201L694.84 328.091L694.72 330.121L692.9 330.021L693.02 327.991L689.71 327.801C689.01 327.761 688.61 328.121 688.58 328.751C688.56 329.101 688.65 329.451 688.83 329.721L687.13 330.261H687.1Z" fill="white"/>
<path d="M690.77 331.001C693.21 331.251 694.76 333.311 694.5 335.891C694.24 338.471 692.31 340.171 689.87 339.921C687.43 339.671 685.88 337.631 686.14 335.051C686.4 332.471 688.33 330.761 690.77 331.011V331.001ZM690.11 337.541C691.51 337.681 692.45 336.881 692.57 335.701C692.69 334.521 691.94 333.531 690.53 333.391C689.13 333.251 688.19 334.071 688.07 335.241C687.95 336.421 688.71 337.391 690.11 337.531V337.541Z" fill="white"/>
<path d="M686.46 340.281L688.02 341.311C687.45 341.961 686.96 343.011 686.81 344.001C686.65 345.081 686.87 345.531 687.32 345.601C688.64 345.801 688.03 340.721 691.25 341.211C692.78 341.441 693.65 342.991 693.29 345.341C693.12 346.451 692.68 347.641 692.11 348.341L690.56 347.311C691.13 346.581 691.4 345.811 691.51 345.081C691.67 344.031 691.41 343.531 690.99 343.471C689.61 343.261 690.21 348.341 687.03 347.861C685.53 347.631 684.68 346.081 685.04 343.661C685.25 342.291 685.83 340.971 686.44 340.301L686.46 340.281Z" fill="white"/>
<path d="M549.92 140.281C550.33 137.171 553 135.201 556.21 135.621C557.83 135.831 559.18 136.571 560 137.781L558.9 138.601C558.2 137.641 557.26 137.121 556.1 136.961C553.72 136.651 551.74 138.131 551.43 140.471C551.12 142.801 552.66 144.751 555.04 145.061C556.2 145.211 557.25 144.941 558.17 144.181L559.02 145.261C557.92 146.221 556.43 146.601 554.79 146.391C551.6 145.971 549.52 143.391 549.93 140.281H549.92Z" fill="white"/>
<path d="M560.28 142.981C560.72 140.621 562.78 139.281 565.15 139.731C567.52 140.171 568.94 142.171 568.5 144.521C568.06 146.871 566.01 148.241 563.64 147.791C561.27 147.351 559.84 145.331 560.28 142.981ZM567.05 144.251C567.37 142.571 566.44 141.261 564.92 140.981C563.4 140.701 562.05 141.571 561.73 143.251C561.41 144.931 562.35 146.251 563.88 146.541C565.4 146.821 566.74 145.931 567.06 144.251H567.05Z" fill="white"/>
<path d="M578.09 146.21L576.99 150.7L575.58 150.35L576.64 146.02C577.02 144.49 576.43 143.55 575.09 143.22C573.59 142.85 572.4 143.51 571.98 145.2L570.99 149.22L569.58 148.87L571.5 141.07L572.85 141.4L572.56 142.58C573.33 141.93 574.44 141.72 575.68 142.02C577.58 142.49 578.65 143.91 578.09 146.2V146.21Z" fill="white"/>
<path d="M578.71 150.301L579.62 149.371C580.13 150.031 581.08 150.681 582.08 150.981C583.37 151.371 584.03 151.141 584.22 150.481C584.74 148.751 579.42 148.791 580.34 145.731C580.75 144.351 582.27 143.791 584.24 144.381C585.24 144.681 586.3 145.281 586.83 145.921L585.9 146.851C585.34 146.191 584.62 145.801 583.86 145.571C582.64 145.201 581.91 145.481 581.73 146.091C581.19 147.911 586.51 147.891 585.61 150.881C585.19 152.271 583.65 152.781 581.6 152.161C580.32 151.781 579.18 151.011 578.69 150.311L578.71 150.301Z" fill="white"/>
<path d="M596.35 148.5L593.67 156.08L592.37 155.62L592.78 154.48C591.94 155.07 590.84 155.18 589.77 154.8C587.81 154.11 586.89 152.57 587.68 150.34L589.22 145.98L590.59 146.47L589.1 150.67C588.57 152.16 589.05 153.16 590.35 153.62C591.78 154.13 593.01 153.56 593.59 151.93L594.98 148.01L596.35 148.5Z" fill="white"/>
<path d="M610.18 158.071L608.32 162.311L606.99 161.721L608.78 157.641C609.41 156.201 609.03 155.181 607.82 154.651C606.49 154.061 605.24 154.531 604.54 156.121L602.87 159.911L601.54 159.321L603.33 155.241C603.96 153.801 603.58 152.781 602.37 152.251C601.04 151.661 599.79 152.131 599.09 153.721L597.42 157.511L596.09 156.921L599.32 149.561L600.6 150.121L600.12 151.221C600.98 150.701 602.06 150.681 603.17 151.171C604.29 151.661 605.04 152.521 605.13 153.651C606.05 153.061 607.31 152.981 608.56 153.531C610.35 154.321 611.12 155.881 610.17 158.051L610.18 158.071Z" fill="white"/>
<path d="M611.79 159.611C612.91 157.491 615.27 156.821 617.4 157.941C619.53 159.071 620.3 161.391 619.18 163.511C618.06 165.631 615.71 166.321 613.57 165.201C611.44 164.071 610.67 161.731 611.79 159.611ZM617.88 162.831C618.68 161.311 618.18 159.801 616.81 159.081C615.44 158.361 613.89 158.791 613.09 160.311C612.29 161.831 612.8 163.361 614.17 164.091C615.54 164.821 617.08 164.361 617.88 162.841V162.831Z" fill="white"/>
<path d="M634.83 164.561L628.82 174.081L627.64 173.331L628.32 172.251C627.28 172.671 626.17 172.511 625.17 171.871C623.18 170.611 622.61 168.301 623.93 166.221C625.24 164.141 627.57 163.671 629.56 164.931C630.52 165.541 631.14 166.431 631.25 167.521L633.62 163.771L634.85 164.551L634.83 164.561ZM629.75 169.911C630.67 168.461 630.27 166.901 628.97 166.081C627.66 165.251 626.08 165.571 625.17 167.021C624.25 168.471 624.64 170.041 625.95 170.871C627.25 171.691 628.83 171.361 629.75 169.911Z" fill="white"/>
<path d="M638.95 176.861L633.63 173.091C632.96 174.351 633.35 175.771 634.65 176.691C635.42 177.231 636.24 177.431 637.1 177.241L637.21 178.471C636.12 178.741 634.96 178.471 633.87 177.701C631.75 176.201 631.33 173.801 632.72 171.851C634.1 169.911 636.49 169.501 638.38 170.841C640.27 172.181 640.66 174.501 639.23 176.521C639.16 176.621 639.04 176.761 638.95 176.861ZM634.23 172.231L638.44 175.211C639.1 174.021 638.82 172.651 637.67 171.841C636.53 171.031 635.15 171.201 634.23 172.231Z" fill="white"/>
<path d="M649.53 185.511L644.77 181.581C644.3 182.511 644.57 183.541 645.53 184.331C646.2 184.881 646.84 185.081 647.61 185.031L647.71 186.881C646.58 187.061 645.41 186.691 644.27 185.751C642.1 183.951 641.81 181.421 643.36 179.551C644.91 177.671 647.47 177.501 649.39 179.081C651.24 180.611 651.64 183.021 649.97 185.051C649.85 185.191 649.67 185.371 649.53 185.511ZM645.63 180.491L648.73 183.051C649.26 182.151 649.09 181.141 648.27 180.471C647.44 179.781 646.43 179.791 645.63 180.491Z" fill="white"/>
<path d="M657.75 191.331L654.58 194.761L652.84 193.161L655.76 190.001C656.65 189.031 656.62 188.171 655.85 187.461C655.02 186.691 653.94 186.651 652.92 187.751L650.18 190.711L648.44 189.111L653.97 183.121L655.63 184.651L654.98 185.351C655.92 185.271 656.88 185.641 657.69 186.391C659.11 187.701 659.41 189.511 657.73 191.331H657.75Z" fill="white"/>
<path d="M664.06 199.581L659.76 195.151C659.19 196.021 659.34 197.071 660.21 197.971C660.81 198.591 661.43 198.861 662.2 198.891L662.1 200.741C660.95 200.801 659.83 200.301 658.81 199.241C656.85 197.211 656.84 194.661 658.59 192.971C660.34 191.271 662.91 191.391 664.64 193.171C666.31 194.891 666.44 197.341 664.56 199.171C664.43 199.301 664.22 199.451 664.07 199.581H664.06ZM660.74 194.161L663.54 197.051C664.16 196.211 664.11 195.191 663.37 194.431C662.62 193.661 661.61 193.551 660.75 194.161H660.74Z" fill="white"/>
<path d="M672.15 201.38L670.52 202.83C670.4 202.67 670.31 202.55 670.19 202.41C669.32 201.43 668.22 201.26 667.05 202.29L664.17 204.84L662.6 203.07L668.71 197.66L670.21 199.35L669.4 200.06C670.37 199.97 671.32 200.42 672.16 201.37L672.15 201.38Z" fill="white"/>
<path d="M678.4 209.211L673.11 213.481C670.75 215.381 668.63 214.981 666.79 212.691C665.82 211.491 665.17 210.081 665.15 208.871L667.06 208.541C667.06 209.441 667.49 210.551 668.15 211.361C669.2 212.661 670.24 212.751 671.39 211.831L671.66 211.611C670.74 211.551 669.92 211.071 669.25 210.241C667.83 208.481 667.91 206.081 669.76 204.591C671.61 203.101 673.97 203.531 675.39 205.291C676.1 206.181 676.4 207.151 676.18 208.131L677 207.471L678.41 209.221L678.4 209.211ZM673.96 209.791C674.89 209.041 674.96 207.841 674.18 206.871C673.4 205.901 672.2 205.701 671.27 206.451C670.34 207.201 670.28 208.421 671.06 209.381C671.84 210.351 673.03 210.541 673.96 209.791Z" fill="white"/>
<path d="M679.84 211.171L681.25 213.071L674.69 217.921L673.28 216.021L679.84 211.171ZM683.53 210.731L685.05 212.781L681.66 211.871L680.56 210.381L683.53 210.731Z" fill="white"/>
<path d="M683.86 222.96L680.01 225.58L678.76 223.75L679.6 223.18C678.74 223.24 677.93 222.76 677.26 221.77C676.18 220.19 676.42 218.65 677.58 217.86C678.77 217.05 680.17 217.32 681.57 219.38L682.63 220.93C683.47 220.36 683.62 219.52 682.9 218.47C682.41 217.76 681.67 217.18 680.95 216.96L681.84 215.33C682.87 215.71 683.9 216.6 684.64 217.68C686.04 219.73 685.9 221.57 683.86 222.97V222.96ZM680.81 222.17L681.5 221.7L680.59 220.36C679.97 219.45 679.43 219.39 678.98 219.7C678.49 220.03 678.45 220.67 678.92 221.36C679.36 222.01 680.05 222.37 680.82 222.18L680.81 222.17Z" fill="white"/>
<path d="M598.73 164.971L600.88 165.951L596.21 176.181L594.06 175.201L598.73 164.961V164.971Z" fill="white"/>
<path d="M601.74 169.762L603.87 170.802L600.3 178.142L598.17 177.102L601.74 169.762ZM602.56 167.432C602.89 166.762 603.67 166.502 604.46 166.892C605.25 167.282 605.54 168.032 605.23 168.682C604.89 169.392 604.1 169.652 603.31 169.262C602.52 168.882 602.24 168.102 602.56 167.432Z" fill="white"/>
<path d="M616.5 181.59L614.22 185.67L612.15 184.52L614.25 180.76C614.89 179.61 614.67 178.79 613.84 178.32C612.91 177.8 611.93 178.04 611.22 179.31L609.22 182.89L607.15 181.74L609.25 177.98C609.89 176.83 609.7 176.02 608.84 175.54C607.93 175.03 606.94 175.26 606.23 176.53L604.23 180.11L602.16 178.96L606.14 171.83L608.11 172.93L607.65 173.75C608.52 173.44 609.49 173.56 610.41 174.07C611.4 174.62 612.04 175.48 612.1 176.55C613.08 176.14 614.25 176.22 615.32 176.82C617.02 177.77 617.69 179.43 616.47 181.6L616.5 181.59Z" fill="white"/>
<path d="M625.49 188.261C624.08 190.401 621.7 190.791 619.78 189.531C618.93 188.971 618.41 188.251 618.27 187.351L616.18 190.531L614.2 189.231L620.31 179.961L622.2 181.201L621.68 181.991C622.57 181.721 623.49 181.911 624.4 182.511C626.31 183.771 626.89 186.111 625.48 188.261H625.49ZM623.49 186.941C624.27 185.761 623.99 184.561 623 183.911C622.01 183.261 620.8 183.481 620.02 184.651C619.24 185.821 619.52 187.031 620.51 187.681C621.5 188.331 622.71 188.111 623.49 186.941Z" fill="white"/>
<path d="M629.17 185.931L631.09 187.311L626.32 193.931L624.4 192.551L629.17 185.931ZM630.37 183.771C630.8 183.171 631.62 183.051 632.33 183.561C633.04 184.071 633.2 184.861 632.78 185.451C632.32 186.091 631.5 186.211 630.79 185.701C630.08 185.191 629.93 184.371 630.37 183.771Z" fill="white"/>
<path d="M636.6 195.941L633.73 199.611L631.98 198.251L632.6 197.451C631.8 197.771 630.88 197.551 629.94 196.821C628.43 195.641 628.19 194.111 629.06 192.991C629.95 191.851 631.37 191.691 633.33 193.221L634.81 194.381C635.43 193.581 635.32 192.741 634.32 191.951C633.64 191.421 632.76 191.091 632 191.101L632.35 189.271C633.45 189.321 634.7 189.861 635.73 190.661C637.69 192.191 638.12 193.991 636.6 195.941ZM633.45 196.121L633.96 195.461L632.68 194.461C631.81 193.781 631.28 193.891 630.94 194.321C630.58 194.791 630.73 195.411 631.39 195.921C632.01 196.411 632.77 196.541 633.45 196.121Z" fill="white"/>
<path d="M404.99 207.75L400.4 203.83L401.38 202.68L405.92 206.56C407.71 208.09 409.21 207.96 410.45 206.5C411.69 205.04 411.59 203.53 409.8 202L405.26 198.12L406.21 197L410.8 200.92C413.14 202.92 413.28 205.25 411.46 207.39C409.65 209.51 407.31 209.75 404.97 207.75H404.99Z" fill="white"/>
<path d="M414.87 202.031L414.45 200.801C415.27 200.641 416.28 200.091 417 199.331C417.93 198.351 418.02 197.661 417.53 197.191C416.22 195.951 413.85 200.711 411.53 198.501C410.49 197.511 410.67 195.901 412.09 194.411C412.81 193.651 413.82 192.981 414.64 192.791L415.05 194.041C414.21 194.241 413.53 194.711 412.99 195.281C412.11 196.201 412.03 196.981 412.49 197.421C413.87 198.731 416.25 193.961 418.52 196.121C419.58 197.121 419.33 198.731 417.85 200.281C416.93 201.251 415.72 201.921 414.88 202.041L414.87 202.031Z" fill="white"/>
<path d="M418.05 194.101C416.39 192.371 416.5 189.921 418.24 188.251C419.98 186.581 422.43 186.591 424.08 188.331C425.73 190.071 425.65 192.521 423.91 194.181C422.17 195.851 419.7 195.831 418.05 194.101ZM423.02 189.341C421.84 188.101 420.24 188.101 419.12 189.171C418 190.241 417.92 191.851 419.11 193.081C420.29 194.321 421.91 194.321 423.03 193.251C424.15 192.181 424.2 190.571 423.03 189.341H423.02Z" fill="white"/>
<path d="M429.56 178.021L430.96 179.691C430.8 179.801 430.67 179.891 430.53 180.011C429.53 180.851 429.32 181.951 430.33 183.151L432.8 186.101L430.99 187.621L425.75 181.361L427.48 179.911L428.17 180.741C428.11 179.771 428.59 178.831 429.55 178.021H429.56Z" fill="white"/>
<path d="M440.03 176.05L435.13 179.81C435.93 180.48 436.99 180.45 437.98 179.69C438.67 179.16 439 178.58 439.12 177.82L440.95 178.14C440.87 179.29 440.25 180.34 439.08 181.24C436.84 182.96 434.3 182.67 432.83 180.74C431.34 178.8 431.75 176.27 433.73 174.76C435.63 173.3 438.08 173.45 439.68 175.53C439.79 175.67 439.92 175.9 440.03 176.06V176.05ZM434.27 178.73L437.46 176.28C436.7 175.56 435.68 175.5 434.84 176.15C433.99 176.81 433.77 177.79 434.27 178.73Z" fill="white"/>
<path d="M442.27 177.721L441.95 175.871C442.82 175.841 443.91 175.471 444.73 174.901C445.63 174.281 445.8 173.811 445.54 173.431C444.78 172.331 441.51 176.261 439.65 173.581C438.77 172.311 439.29 170.621 441.25 169.261C442.17 168.621 443.34 168.121 444.24 168.061L444.55 169.891C443.63 169.971 442.88 170.311 442.27 170.731C441.4 171.331 441.21 171.871 441.45 172.221C442.24 173.371 445.53 169.451 447.36 172.091C448.22 173.341 447.68 175.031 445.67 176.421C444.54 177.211 443.17 177.691 442.26 177.711L442.27 177.721Z" fill="white"/>
<path d="M455.28 165.271C456.63 167.451 455.98 169.771 454.04 170.981C453.18 171.511 452.3 171.681 451.43 171.431L453.43 174.671L451.42 175.921L445.58 166.481L447.5 165.291L448 166.091C448.13 165.171 448.69 164.411 449.62 163.841C451.57 162.631 453.94 163.091 455.29 165.271H455.28ZM453.24 166.531C452.5 165.331 451.29 165.081 450.28 165.701C449.27 166.321 448.96 167.521 449.7 168.711C450.44 169.901 451.65 170.161 452.66 169.541C453.67 168.921 453.98 167.731 453.24 166.531Z" fill="white"/>
<path d="M456.21 164.731C455.04 162.571 455.87 160.131 458.15 158.901C460.43 157.661 462.91 158.291 464.09 160.451C465.26 162.611 464.45 165.041 462.17 166.281C459.89 167.521 457.39 166.891 456.22 164.741L456.21 164.731ZM461.97 161.601C461.3 160.361 460.1 160.041 459.07 160.611C458.04 161.181 457.64 162.361 458.31 163.591C458.98 164.821 460.19 165.141 461.23 164.571C462.27 164.001 462.65 162.831 461.97 161.591V161.601Z" fill="white"/>
<path d="M472.85 155.611L474.85 159.841L472.71 160.851L470.87 156.951C470.31 155.761 469.5 155.471 468.55 155.911C467.52 156.401 467.08 157.381 467.72 158.741L469.45 162.391L467.31 163.401L463.82 156.021L465.86 155.051L466.27 155.911C466.55 155.011 467.25 154.261 468.25 153.781C469.99 152.961 471.79 153.351 472.85 155.601V155.611Z" fill="white"/>
<path d="M475.68 158.661L475.76 156.791C476.61 156.951 477.76 156.821 478.68 156.441C479.69 156.021 479.96 155.601 479.79 155.181C479.28 153.951 475.24 157.081 474 154.071C473.41 152.641 474.29 151.101 476.49 150.191C477.53 149.761 478.78 149.531 479.66 149.661L479.57 151.521C478.65 151.411 477.85 151.571 477.17 151.851C476.19 152.251 475.89 152.741 476.06 153.131C476.59 154.421 480.63 151.301 481.86 154.271C482.44 155.671 481.54 157.201 479.28 158.131C478 158.651 476.57 158.841 475.68 158.661Z" fill="white"/>
<path d="M489.3 149.271L490.86 153.661L488.77 154.401L488.43 153.441C488.26 154.291 487.6 154.941 486.47 155.351C484.67 155.991 483.24 155.371 482.77 154.041C482.29 152.681 482.91 151.401 485.25 150.561L487.02 149.931C486.68 148.971 485.91 148.621 484.71 149.041C483.89 149.331 483.15 149.901 482.75 150.541L481.4 149.271C482.03 148.371 483.16 147.601 484.39 147.161C486.73 146.331 488.48 146.931 489.31 149.261L489.3 149.271ZM487.76 152.021L487.48 151.231L485.95 151.771C484.91 152.141 484.71 152.641 484.9 153.161C485.1 153.721 485.7 153.921 486.49 153.641C487.23 153.381 487.75 152.801 487.76 152.011V152.021Z" fill="white"/>
<path d="M500.12 146.611C500.84 149.071 499.6 151.141 497.4 151.791C496.35 152.101 495.41 152.011 494.64 151.491L494.9 152.391L492.73 153.031L489.56 142.231L491.83 141.561L492.95 145.361C493.34 144.551 494.06 144.011 495.03 143.721C497.23 143.071 499.39 144.151 500.11 146.611H500.12ZM497.82 147.291C497.42 145.941 496.32 145.371 495.19 145.711C494.06 146.041 493.44 147.111 493.83 148.461C494.23 149.811 495.33 150.381 496.46 150.041C497.6 149.711 498.21 148.641 497.82 147.291Z" fill="white"/>
<path d="M499.99 139.291L502.29 138.721L505.01 149.651L502.71 150.221L499.99 139.291Z" fill="white"/>
<path d="M514.13 144.17L508.09 145.42C508.52 146.37 509.49 146.8 510.71 146.55C511.56 146.37 512.11 146 512.55 145.36L514.06 146.44C513.49 147.44 512.47 148.12 511.03 148.42C508.27 148.99 506.11 147.63 505.62 145.25C505.12 142.86 506.59 140.76 509.03 140.25C511.38 139.76 513.51 140.96 514.05 143.53C514.09 143.71 514.11 143.97 514.13 144.16V144.17ZM507.77 144.08L511.7 143.26C511.33 142.28 510.43 141.79 509.4 142C508.35 142.22 507.72 143.01 507.77 144.07V144.08Z" fill="white"/>
<path d="M435.43 192.791L442.85 201.261L441.8 202.181L440.96 201.221C441.07 202.331 440.59 203.361 439.7 204.141C437.93 205.691 435.55 205.571 433.93 203.731C432.31 201.891 432.52 199.521 434.29 197.971C435.15 197.221 436.18 196.881 437.25 197.091L434.33 193.761L435.43 192.801V192.791ZM439.12 199.191C437.99 197.901 436.38 197.841 435.23 198.851C434.07 199.871 433.92 201.471 435.05 202.761C436.18 204.051 437.8 204.121 438.96 203.111C440.11 202.101 440.25 200.491 439.12 199.201V199.191Z" fill="white"/>
<path d="M448.38 192.371L443.25 196.391C444.26 197.391 445.74 197.431 446.99 196.441C447.73 195.861 448.15 195.121 448.22 194.251L449.43 194.491C449.38 195.611 448.79 196.651 447.74 197.471C445.7 199.071 443.28 198.791 441.8 196.901C440.33 195.031 440.62 192.621 442.45 191.191C444.28 189.761 446.61 190.051 448.13 192.001C448.21 192.101 448.31 192.251 448.38 192.361V192.371ZM442.6 195.571L446.66 192.391C445.71 191.421 444.32 191.301 443.21 192.171C442.11 193.031 441.88 194.411 442.6 195.571Z" fill="white"/>
<path d="M445.55 184.901L446.73 184.041L453.34 193.151L452.16 194.011L445.55 184.901Z" fill="white"/>
<path d="M462.04 181.761L464.55 185.691L462.68 186.881L462.13 186.021C462.16 186.881 461.66 187.671 460.64 188.321C459.03 189.351 457.5 189.071 456.74 187.881C455.96 186.671 456.28 185.271 458.38 183.941L459.96 182.931C459.41 182.071 458.58 181.901 457.51 182.591C456.78 183.061 456.18 183.781 455.94 184.491L454.33 183.551C454.74 182.531 455.67 181.531 456.77 180.821C458.87 179.481 460.7 179.681 462.03 181.761H462.04ZM461.16 184.791L460.71 184.091L459.34 184.961C458.41 185.561 458.33 186.091 458.63 186.551C458.95 187.051 459.58 187.111 460.29 186.661C460.96 186.241 461.33 185.561 461.17 184.791H461.16Z" fill="white"/>
<path d="M469.65 173.361L472.99 179.281C474.48 181.921 473.74 183.941 471.17 185.391C469.82 186.151 468.33 186.561 467.13 186.381V184.441C468 184.591 469.17 184.351 470.08 183.831C471.53 183.011 471.8 181.991 471.07 180.711L470.9 180.411C470.69 181.311 470.08 182.041 469.15 182.561C467.18 183.671 464.83 183.201 463.66 181.131C462.49 179.061 463.31 176.801 465.28 175.691C466.27 175.131 467.28 175.001 468.2 175.381L467.69 174.471L469.65 173.371V173.361ZM469.49 177.841C468.9 176.801 467.73 176.531 466.64 177.151C465.56 177.761 465.16 178.911 465.75 179.951C466.34 180.991 467.53 181.251 468.61 180.641C469.69 180.031 470.08 178.891 469.49 177.851V177.841Z" fill="white"/>
<path d="M479.27 168.592L482.85 175.922L480.83 176.902L480.4 176.032C480.15 176.942 479.5 177.682 478.6 178.122C476.76 179.022 474.96 178.612 473.86 176.352L471.84 172.212L473.96 171.172L475.83 175.002C476.43 176.232 477.24 176.512 478.18 176.052C479.16 175.572 479.56 174.602 478.91 173.252L477.14 169.632L479.27 168.592Z" fill="white"/>
<path d="M489.58 167.971L491.39 172.261L489.35 173.121L488.95 172.181C488.83 173.041 488.2 173.731 487.1 174.201C485.34 174.941 483.88 174.411 483.33 173.111C482.77 171.781 483.32 170.461 485.61 169.501L487.34 168.771C486.94 167.831 486.15 167.521 484.98 168.021C484.18 168.361 483.47 168.971 483.11 169.631L481.68 168.441C482.26 167.501 483.34 166.671 484.54 166.161C486.83 165.191 488.61 165.691 489.57 167.971H489.58ZM488.21 170.811L487.88 170.041L486.38 170.671C485.36 171.101 485.2 171.611 485.41 172.121C485.64 172.661 486.26 172.831 487.02 172.511C487.75 172.201 488.23 171.601 488.2 170.811H488.21Z" fill="white"/>
<path d="M370.4 372.4C367.15 373.3 364.15 371.46 363.22 368.13C362.71 366.28 362.96 364.55 363.91 363.2L365.83 364.38C365.2 365.33 365.02 366.35 365.32 367.42C365.88 369.42 367.69 370.45 369.72 369.89C371.75 369.33 372.77 367.51 372.22 365.51C371.92 364.44 371.24 363.66 370.2 363.17L371.24 361.17C372.77 361.83 373.87 363.19 374.39 365.06C375.31 368.38 373.68 371.5 370.43 372.4H370.4Z" fill="white"/>
<path d="M361.87 362.101C361.11 362.281 360.38 361.811 360.17 360.911C359.96 360.011 360.38 359.281 361.13 359.111C361.94 358.921 362.67 359.391 362.88 360.281C363.09 361.181 362.64 361.921 361.87 362.091V362.101ZM364.32 361.221L363.76 358.811L372.13 356.871L372.69 359.281L364.32 361.221Z" fill="white"/>
<path d="M362.06 351.212L364.31 350.762C364.33 350.972 364.35 351.122 364.39 351.312C364.66 352.652 365.57 353.392 367.18 353.072L371.16 352.282L371.64 354.712L363.22 356.382L362.76 354.062L363.87 353.842C362.94 353.412 362.32 352.502 362.06 351.212Z" fill="white"/>
<path d="M366.23 349.55C363.68 349.95 361.56 348.27 361.13 345.53C360.85 343.76 361.41 342.24 362.7 341.42L364.02 343.16C363.29 343.74 363.03 344.47 363.15 345.24C363.34 346.48 364.36 347.31 365.84 347.08C367.32 346.85 368.04 345.74 367.84 344.5C367.72 343.73 367.27 343.11 366.38 342.79L367.13 340.73C368.58 341.13 369.59 342.4 369.86 344.17C370.29 346.91 368.78 349.15 366.23 349.55Z" fill="white"/>
<path d="M359.57 331.47L368.11 330.59L368.35 332.92L367.33 333.02C368.14 333.59 368.64 334.5 368.74 335.54C368.96 337.67 367.91 339.29 365.27 339.56L360.45 340.06L360.2 337.6L364.66 337.14C366.09 336.99 366.66 336.3 366.55 335.21C366.43 334.07 365.62 333.33 364.05 333.49L359.83 333.92L359.58 331.46L359.57 331.47Z" fill="white"/>
<path d="M356.17 329.11L356.02 326.64L367.84 325.92L367.99 328.39L356.17 329.11Z" fill="white"/>
<path d="M362.62 316.311L367.52 316.191L367.58 318.501L366.51 318.531C367.3 318.971 367.74 319.851 367.77 321.101C367.82 323.101 366.73 324.311 365.25 324.351C363.74 324.391 362.66 323.351 362.59 320.751L362.54 318.781C361.47 318.811 360.87 319.451 360.9 320.791C360.92 321.691 361.25 322.621 361.76 323.231L360.04 324.161C359.35 323.241 358.95 321.871 358.92 320.511C358.86 317.911 360.03 316.371 362.63 316.311H362.62ZM364.87 318.731L363.99 318.751L364.03 320.451C364.06 321.611 364.5 321.961 365.07 321.951C365.69 321.931 366.09 321.401 366.07 320.531C366.05 319.711 365.65 319.001 364.86 318.731H364.87Z" fill="white"/>
<path d="M359.06 308.461L361.36 308.561C361.34 308.771 361.31 308.921 361.31 309.111C361.25 310.471 361.96 311.411 363.6 311.481L367.65 311.651L367.54 314.121L358.96 313.751L359.06 311.391L360.19 311.441C359.39 310.801 359 309.771 359.05 308.451L359.06 308.461Z" fill="white"/>
<path d="M356.75 306.84C355.97 306.77 355.42 306.11 355.5 305.19C355.58 304.27 356.2 303.71 356.97 303.77C357.8 303.84 358.35 304.51 358.27 305.42C358.19 306.33 357.54 306.9 356.76 306.84H356.75ZM359.35 306.76L359.56 304.29L368.11 305.01L367.9 307.48L359.35 306.76Z" fill="white"/>
<path d="M357.58 292.771L369.33 294.201L369.05 296.551L368.07 296.431C368.74 297.131 369 298.081 368.86 299.211C368.57 301.601 366.64 303.241 363.96 302.911C361.28 302.591 359.79 300.531 360.08 298.141C360.21 297.101 360.65 296.261 361.42 295.731L357.29 295.231L357.59 292.771H357.58ZM364.78 296.091C363.31 295.911 362.31 296.751 362.16 297.961C362.01 299.191 362.78 300.241 364.26 300.421C365.73 300.601 366.73 299.761 366.88 298.531C367.03 297.321 366.26 296.261 364.78 296.091Z" fill="white"/>
<path d="M365.95 283.821L370.79 284.561L370.44 286.851L369.38 286.691C370.08 287.261 370.36 288.201 370.17 289.441C369.87 291.421 368.58 292.431 367.12 292.201C365.62 291.971 364.74 290.761 365.13 288.191L365.43 286.251C364.37 286.091 363.66 286.621 363.46 287.941C363.32 288.831 363.48 289.811 363.88 290.491L362.03 291.111C361.51 290.081 361.35 288.661 361.56 287.321C361.95 284.751 363.38 283.441 365.95 283.831V283.821ZM367.73 286.601L366.86 286.471L366.6 288.151C366.43 289.301 366.8 289.721 367.36 289.811C367.98 289.901 368.46 289.451 368.6 288.581C368.72 287.761 368.45 287.001 367.72 286.601H367.73Z" fill="white"/>
<path d="M361 271.691L372.66 273.741L372.25 276.071L371.28 275.901C371.91 276.641 372.12 277.591 371.92 278.721C371.5 281.101 369.48 282.621 366.83 282.161C364.17 281.691 362.8 279.571 363.22 277.191C363.4 276.161 363.89 275.341 364.68 274.851L360.58 274.131L361.01 271.691H361ZM368.01 275.391C366.55 275.131 365.5 275.921 365.29 277.121C365.08 278.341 365.79 279.431 367.25 279.691C368.71 279.951 369.76 279.161 369.97 277.951C370.18 276.751 369.47 275.661 368 275.401L368.01 275.391Z" fill="white"/>
<path d="M363.98 256.75L375.57 259.14L375.28 260.57L373.97 260.3C374.77 261.16 375.02 262.31 374.77 263.53C374.27 265.94 372.21 267.34 369.68 266.82C367.15 266.3 365.82 264.2 366.32 261.79C366.56 260.63 367.21 259.69 368.24 259.19L363.68 258.25L363.99 256.76L363.98 256.75ZM371.13 259.76C369.36 259.4 367.98 260.36 367.65 261.93C367.32 263.51 368.22 264.95 369.98 265.31C371.74 265.67 373.15 264.72 373.48 263.13C373.8 261.56 372.89 260.13 371.13 259.76Z" fill="white"/>
<path d="M374.25 248.151L372.73 254.801C374.22 254.951 375.45 254.001 375.82 252.381C376.04 251.421 375.9 250.541 375.37 249.791L376.52 249.191C377.22 250.131 377.43 251.371 377.12 252.731C376.51 255.381 374.35 256.741 371.9 256.181C369.46 255.621 368.1 253.471 368.64 251.101C369.18 248.731 371.28 247.441 373.81 248.021C373.93 248.051 374.12 248.111 374.25 248.151ZM371.66 254.561L372.86 249.301C371.44 249.141 370.22 249.951 369.9 251.391C369.57 252.811 370.3 254.091 371.66 254.561Z" fill="white"/>
<path d="M383.58 362.361L383.27 361.391L393.13 358.191L393.44 359.161L383.58 362.361Z" fill="white"/>
<path d="M388.94 357.311C386.84 357.901 384.91 356.751 384.3 354.621C383.7 352.501 384.75 350.511 386.85 349.921C388.95 349.331 390.89 350.461 391.49 352.591C392.09 354.721 391.03 356.711 388.93 357.301L388.94 357.311ZM387.14 350.921C385.49 351.391 384.71 352.841 385.15 354.391C385.59 355.941 387.02 356.781 388.67 356.321C390.32 355.851 391.1 354.381 390.66 352.841C390.22 351.291 388.8 350.461 387.14 350.931V350.921Z" fill="white"/>
<path d="M389.37 348.231L388.5 347.961C388.81 347.271 388.94 346.201 388.7 345.161C388.38 343.761 387.78 343.301 387.08 343.461C385.21 343.891 387.78 348.311 384.95 348.971C383.78 349.241 382.67 348.411 382.24 346.531C382.02 345.581 382.04 344.491 382.31 343.781L383.19 344.031C382.9 344.771 382.9 345.581 383.07 346.341C383.37 347.671 384.01 348.141 384.69 347.981C386.62 347.541 384.07 343.111 386.82 342.471C388.06 342.191 389.12 343.121 389.56 345.031C389.84 346.251 389.73 347.511 389.36 348.221L389.37 348.231Z" fill="white"/>
<path d="M381.74 324.732L386 324.152L386.3 326.372L382.37 326.902C381.17 327.062 380.69 327.692 380.81 328.592C380.94 329.582 381.66 330.202 382.99 330.022L386.73 329.522L387.03 331.742L383.1 332.272C381.89 332.432 381.41 333.032 381.54 333.962C381.67 334.942 382.39 335.552 383.72 335.372L387.46 334.872L387.76 337.092L380.31 338.092L380.02 335.972L380.88 335.852C380.17 335.372 379.72 334.562 379.59 333.582C379.45 332.512 379.73 331.552 380.47 330.902C379.63 330.392 379.03 329.462 378.88 328.312C378.63 326.492 379.48 325.042 381.75 324.742L381.74 324.732Z" fill="white"/>
<path d="M381.24 315.781L385.52 315.521L385.65 317.611L384.72 317.671C385.43 318.041 385.84 318.821 385.91 319.951C386.02 321.751 385.11 322.891 383.81 322.971C382.49 323.051 381.51 322.151 381.36 319.801L381.25 318.031C380.32 318.091 379.81 318.691 379.88 319.901C379.93 320.721 380.25 321.541 380.71 322.081L379.24 322.981C378.6 322.171 378.21 320.951 378.13 319.721C377.99 317.371 378.96 315.951 381.24 315.811V315.781ZM383.29 317.891L382.52 317.941L382.61 319.471C382.67 320.511 383.07 320.821 383.57 320.791C384.11 320.761 384.45 320.261 384.4 319.481C384.35 318.741 383.98 318.111 383.28 317.901L383.29 317.891Z" fill="white"/>
<path d="M385.04 308.622C385.37 309.072 385.53 309.752 385.54 310.432C385.57 312.252 384.67 313.332 382.88 313.352L379.79 313.402L379.81 314.592L378.13 314.622L378.11 313.432L376.28 313.462L376.25 311.222L378.08 311.192L378.05 309.272L379.73 309.242L379.76 311.162L382.82 311.112C383.46 311.112 383.81 310.742 383.8 310.132C383.8 309.802 383.69 309.472 383.51 309.232L385.04 308.602V308.622Z" fill="white"/>
<path d="M382.48 300.121L382.31 305.951C383.25 305.761 383.85 304.961 383.89 303.791C383.91 302.971 383.69 302.381 383.22 301.831L384.51 300.681C385.28 301.421 385.67 302.511 385.63 303.901C385.55 306.571 383.86 308.251 381.63 308.191C379.38 308.121 377.81 306.311 377.88 303.961C377.95 301.691 379.48 299.991 381.9 300.061C382.07 300.061 382.3 300.101 382.48 300.121ZM381.03 305.951L381.14 302.151C380.18 302.281 379.55 302.991 379.52 304.001C379.49 305.021 380.07 305.771 381.03 305.951Z" fill="white"/>
<path d="M378.5 293.441L380.51 293.591C380.48 293.771 380.46 293.921 380.44 294.091C380.35 295.321 380.94 296.181 382.38 296.291L385.92 296.561L385.75 298.791L378.26 298.221L378.42 296.091L379.41 296.171C378.73 295.571 378.42 294.631 378.51 293.441H378.5Z" fill="white"/>
<path d="M376.49 291.982C375.81 291.912 375.34 291.292 375.43 290.472C375.52 289.642 376.08 289.142 376.75 289.212C377.47 289.292 377.94 289.902 377.85 290.732C377.76 291.562 377.17 292.062 376.49 291.982ZM378.77 291.952L379.01 289.722L386.49 290.522L386.25 292.752L378.77 291.952Z" fill="white"/>
<path d="M383.46 281.182L387.7 281.812L387.39 283.882L386.46 283.742C387.08 284.252 387.32 285.102 387.15 286.222C386.88 288.012 385.76 288.932 384.47 288.742C383.16 288.542 382.39 287.462 382.73 285.132L382.99 283.372C382.06 283.232 381.44 283.722 381.26 284.912C381.14 285.722 381.28 286.592 381.62 287.212L380 287.782C379.54 286.862 379.41 285.582 379.59 284.362C379.94 282.032 381.19 280.842 383.44 281.182H383.46ZM385.02 283.682L384.26 283.572L384.03 285.092C383.88 286.132 384.2 286.512 384.7 286.582C385.24 286.662 385.67 286.252 385.78 285.472C385.89 284.732 385.65 284.052 385.02 283.692V283.682Z" fill="white"/>
<path d="M377.87 277.981L378.29 275.781L388.48 277.721L388.06 279.921L377.87 277.981Z" fill="white"/>
<path d="M387.5 267.741L386.17 273.431C387.13 273.431 387.88 272.771 388.14 271.621C388.33 270.821 388.23 270.201 387.87 269.571L389.37 268.701C389.98 269.581 390.15 270.721 389.83 272.081C389.22 274.681 387.23 276.001 385.06 275.491C382.87 274.981 381.69 272.891 382.23 270.601C382.75 268.391 384.59 267.031 386.94 267.581C387.1 267.621 387.33 267.701 387.5 267.761V267.741ZM384.92 273.161L385.79 269.461C384.83 269.401 384.06 269.971 383.83 270.951C383.6 271.941 384.02 272.791 384.92 273.161Z" fill="white"/>
<path d="M390.06 267.622L388.76 266.472C389.37 265.932 389.94 265.002 390.2 264.102C390.49 263.112 390.34 262.662 389.94 262.552C388.76 262.212 388.67 267.032 385.79 266.202C384.42 265.802 383.82 264.262 384.45 262.102C384.74 261.082 385.3 260.022 385.9 259.432L387.18 260.582C386.57 261.192 386.22 261.892 386.03 262.562C385.75 263.522 385.93 264.022 386.3 264.132C387.54 264.492 387.63 259.672 390.48 260.492C391.82 260.882 392.41 262.432 391.77 264.652C391.41 265.902 390.71 267.072 390.06 267.632V267.622Z" fill="white"/>
<path d="M492.48 265.4H495.74L503.8 287.98L511.94 265.4H515.2V292.56H511.94V266.72L504.06 288.67L502.7 292.56H502.19L492.99 266.87V292.56H492.48V265.4Z" fill="#3AAA35"/>
<path d="M518.62 284.791C518.62 279.291 522.47 275.631 527.23 275.631C531.59 275.631 535.07 279.481 535.15 284.681H522.43C522.58 290.581 524.34 292.451 527.23 292.451C529.69 292.451 532.29 291.531 533.79 288.201L534.34 288.311C533.02 291.171 530.56 292.961 527.52 292.961C522.28 292.961 518.83 289.701 518.61 284.791H518.62ZM531.33 284.161C531.29 278.851 529.97 276.171 527.22 276.171C523.7 276.171 522.42 278.811 522.42 284.161H531.33Z" fill="#3AAA35"/>
<path d="M537.71 284.24C537.71 279.07 541.19 275.59 546.62 275.59C548.27 275.59 549.81 276.1 550.94 277.06V265.4H554.28V292.56H550.94V291.53C549.8 292.45 548.27 292.92 546.62 292.92C541.2 292.92 537.71 289.44 537.71 284.23V284.24ZM550.94 290.83V277.71C549.69 276.43 547.94 276.1 546.32 276.1C543.39 276.1 541.56 278.12 541.52 284.24C541.56 290.4 543.39 292.41 546.32 292.41C547.93 292.41 549.69 292.08 550.94 290.83Z" fill="#3AAA35"/>
<path d="M558.53 269.251C558.53 268.111 559.48 267.201 560.55 267.201C561.76 267.201 562.68 268.121 562.68 269.251C562.68 270.461 561.76 271.451 560.55 271.451C559.49 271.451 558.53 270.461 558.53 269.251ZM558.94 276.171H562.24V292.551H558.94V276.171Z" fill="#3AAA35"/>
<path d="M566.09 284.311C566.09 279.221 570.27 275.701 574.81 275.621C579.39 275.621 583.5 279.211 583.5 284.311C583.5 289.411 580.05 292.921 574.81 292.961C569.53 292.921 566.09 289.441 566.09 284.311ZM579.68 284.091C579.68 277.931 577.66 276.171 574.8 276.171C571.94 276.171 569.89 277.931 569.89 284.091C569.89 288.821 570.7 292.451 574.8 292.451C577.88 292.451 579.68 290.431 579.68 284.091Z" fill="#3AAA35"/>
<path d="M473.45 304.29L474.92 300.4H475.51L486.07 328.26H482.55L478.3 317.12H469.1L464.85 328.26H464.34L473.47 304.29H473.45ZM478.14 316.57L473.7 305.02L469.3 316.57H478.13H478.14Z" fill="#3AAA35"/>
<path d="M488.74 311.88H492V313.79C493.06 312.4 494.46 311.52 496.25 311.52C499 311.52 500.98 312.69 501.86 314.93C502.81 312.95 504.32 311.6 506.59 311.6C510.47 311.6 512.71 314.02 512.71 318.2V328.28H509.56V317.14C509.56 314.06 508.83 312.08 506.55 312.08C504.97 312.08 503.84 312.81 503.1 314.02C502.55 314.94 502.37 316.15 502.37 318.82V328.28H499.25V317.03C499.25 312.93 497.97 311.97 496.25 311.97C494.34 311.97 492.95 313.07 492 314.68V328.28H488.74V311.9V311.88Z" fill="#3AAA35"/>
<path d="M520.26 327.27V328.26H517V301.1H520.26V312.79C521.47 311.87 522.97 311.32 524.69 311.32C530 311.32 533.56 314.8 533.56 320.01C533.56 325.22 530 328.66 524.69 328.66C522.97 328.66 521.47 328.22 520.26 327.27ZM529.72 320.01C529.68 313.89 527.89 311.87 524.96 311.87C523.27 311.87 521.59 312.16 520.27 313.45V326.61C521.59 327.89 523.28 328.15 524.96 328.15C527.89 328.15 529.69 326.13 529.72 320.01Z" fill="#3AAA35"/>
<path d="M536.98 304.95C536.98 303.81 537.93 302.9 539 302.9C540.21 302.9 541.13 303.82 541.13 304.95C541.13 306.16 540.21 307.15 539 307.15C537.94 307.15 536.98 306.16 536.98 304.95ZM537.38 311.88H540.68V328.26H537.38V311.88Z" fill="#3AAA35"/>
<path d="M544.53 320.49C544.53 314.99 548.38 311.33 553.14 311.33C557.5 311.33 560.98 315.18 561.06 320.38H548.34C548.49 326.28 550.25 328.15 553.14 328.15C555.6 328.15 558.2 327.23 559.7 323.9L560.25 324.01C558.93 326.87 556.48 328.66 553.43 328.66C548.19 328.66 544.74 325.4 544.52 320.49H544.53ZM557.25 319.87C557.21 314.56 555.89 311.88 553.14 311.88C549.62 311.88 548.34 314.52 548.34 319.87H557.25Z" fill="#3AAA35"/>
<path d="M564.47 311.879H567.73V313.749C568.79 312.319 570.19 311.439 571.98 311.439C575.9 311.439 578.1 313.819 578.1 318.039V328.269H574.98V316.939C574.98 313.419 573.95 311.919 571.98 311.919C570.01 311.919 568.68 313.019 567.73 314.629V328.259H564.47V311.879Z" fill="#3AAA35"/>
<path d="M582.91 323.311V312.391H579.98V311.881H582.91V306.641H586.17V311.881H591.37V312.391H586.17V324.231C586.17 326.101 586.54 328.041 587.97 328.041C589.47 328.041 590.79 326.501 591.27 324.781L591.75 324.931C591.16 327.171 589.37 328.671 587.43 328.671C583.91 328.671 582.92 326.731 582.92 323.321L582.91 323.311Z" fill="#3AAA35"/>
<path d="M593.54 320.49C593.54 314.99 597.39 311.33 602.15 311.33C606.51 311.33 609.99 315.18 610.07 320.38H597.35C597.5 326.28 599.26 328.15 602.15 328.15C604.61 328.15 607.21 327.23 608.71 323.9L609.26 324.01C607.94 326.87 605.49 328.66 602.44 328.66C597.2 328.66 593.75 325.4 593.53 320.49H593.54ZM606.25 319.87C606.21 314.56 604.89 311.88 602.14 311.88C598.62 311.88 597.34 314.52 597.34 319.87H606.25Z" fill="#3AAA35"/>
<path d="M555.41 368.89C554.79 367.27 554.01 365.71 553.08 364.21C554.39 362.58 554.93 360.44 554.35 358.32C558.38 346.77 549.83 334.58 537.5 334.58C527.64 334.58 519.66 342.56 519.66 352.42C519.66 362.28 527.64 370.26 537.5 370.26C541.39 370.26 545.09 369.02 548.16 366.73C549.32 366.69 550.42 366.32 551.38 365.72C552.15 367 552.8 368.33 553.32 369.69C553.54 370.27 554.19 370.56 554.77 370.34C555.35 370.12 555.64 369.47 555.42 368.89H555.41ZM522.5 356.72C521.6 353.56 521.7 350.11 522.89 346.94L523.83 349.45C522.61 357.07 522.86 355.91 522.5 356.71V356.72ZM533.61 360.06L532.61 367.24C528.67 365.94 525.51 363.16 523.66 359.64C524.34 358.12 524.86 356.95 524.87 356.93C524.96 356.74 524.85 357.32 526.09 349.52C526.15 349.12 526.17 349.31 524.25 344.18C526.05 341.3 528.75 339.08 531.89 337.87C531.87 339.55 533.11 340.94 534.72 341.15L535.34 341.23C536 341.32 536.46 341.93 536.36 342.59L536.11 344.33C535.92 345.65 535.03 346.78 533.79 347.27C529 349.2 530.02 348.48 527.45 351.38C525.6 353.47 526.59 356.8 529.28 357.54L532.55 358.44C533.25 358.63 533.71 359.32 533.61 360.05V360.06ZM534.81 367.79L535.84 360.37C536.09 358.53 534.94 356.78 533.15 356.29L529.88 355.39C528.79 355.09 528.38 353.74 529.14 352.89L530.69 351.13C531.03 350.74 531.08 350.8 534.64 349.37C536.62 348.58 538.03 346.77 538.34 344.66L538.59 342.92C538.72 342 538.49 341.09 537.93 340.35C537.01 339.13 535.86 339.04 535.02 338.93C534.33 338.84 533.93 338.09 534.25 337.47L534.42 337.14C545.27 334.97 554.92 344.44 552.82 355.39C549.73 351.25 544.55 349.41 539.65 350.62C539.26 350.72 538.94 351.02 538.84 351.41C537.34 356.88 539.63 362.68 544.39 365.69C544.62 365.83 544.85 365.96 545.08 366.07C541.92 367.83 538.29 368.39 534.83 367.79H534.81ZM545.57 363.78C541.81 361.41 539.96 356.93 540.84 352.66C545.15 351.89 549.48 353.94 551.69 357.76C552.66 359.44 552.41 361.04 551.73 362.21C550.38 360.38 548.78 358.64 546.95 357.01C546.49 356.6 545.78 356.64 545.36 357.1C544.95 357.56 544.99 358.27 545.45 358.69C547.26 360.31 548.83 362.03 550.13 363.85C548.71 364.72 547.05 364.72 545.57 363.79V363.78Z" fill="#95C11F"/>
</g>
<defs>
<linearGradient id="paint0_linear_1614_14968" x1="313.36" y1="330.449" x2="734.41" y2="212.669" gradientUnits="userSpaceOnUse">
<stop stop-color="#A4D035"/>
<stop offset="0.27" stop-color="#AAD231"/>
<stop offset="0.67" stop-color="#BDD729"/>
<stop offset="1" stop-color="#D3DE20"/>
</linearGradient>
<radialGradient id="paint1_radial_1614_14968" cx="0" cy="0" r="1" gradientUnits="userSpaceOnUse" gradientTransform="translate(536.69 319.241) scale(254.43 254.43)">
<stop offset="0.74" stop-color="white"/>
<stop offset="0.77" stop-color="#F9F9F9"/>
<stop offset="0.8" stop-color="#E9E9E9"/>
<stop offset="0.85" stop-color="#CECECE"/>
<stop offset="0.89" stop-color="#A9A9A9"/>
<stop offset="0.94" stop-color="#7A7A7A"/>
<stop offset="0.99" stop-color="#404040"/>
<stop offset="1" stop-color="#2E2E2E"/>
</radialGradient>
<clipPath id="clip0_1614_14968">
<rect width="480.81" height="354.98" fill="white" transform="translate(282 62)"/>
</clipPath>
</defs>
</svg>
