<svg preserveAspectRatio="none" width="100%" height="100%" overflow="visible" style="display: block;" viewBox="0 0 27 20" fill="none" xmlns="http://www.w3.org/2000/svg">
<g id="Icon">
<path id="Vector" d="M20.25 8.33333C20.25 12.4942 15.5765 16.8275 14.0071 18.1658C13.8609 18.2744 13.6829 18.3331 13.5 18.3331C13.3171 18.3331 13.1391 18.2744 12.9929 18.1658C11.4235 16.8275 6.75 12.4942 6.75 8.33333C6.75 6.56522 7.46116 4.86953 8.72703 3.61929C9.9929 2.36905 11.7098 1.66667 13.5 1.66667C15.2902 1.66667 17.0071 2.36905 18.273 3.61929C19.5388 4.86953 20.25 6.56522 20.25 8.33333Z" stroke="var(--stroke-0, #5F9D2F)" stroke-width="1.5" stroke-linecap="round" stroke-linejoin="round"/>
<path id="Vector_2" d="M13.5 10.8333C14.898 10.8333 16.0312 9.71405 16.0312 8.33333C16.0312 6.95262 14.898 5.83333 13.5 5.83333C12.102 5.83333 10.9688 6.95262 10.9688 8.33333C10.9688 9.71405 12.102 10.8333 13.5 10.8333Z" stroke="var(--stroke-0, #5F9D2F)" stroke-width="1.5" stroke-linecap="round" stroke-linejoin="round"/>
</g>
</svg>
