<svg preserveAspectRatio="none" width="100%" height="100%" overflow="visible" style="display: block;" viewBox="0 0 42 53.76" fill="none" xmlns="http://www.w3.org/2000/svg">
<g id="ubi">
<rect width="42" height="42" rx="21" fill="var(--fill-0, #5F9D2F)"/>
<path id="Polygon 2" d="M21 53.76L5.72331 35.49H36.2767L21 53.76Z" fill="var(--fill-0, #5F9D2F)"/>
<g id="Container">
<path id="Vector" d="M32.76 20.1601C32.76 27.4999 24.6177 35.144 21.8835 37.5049C21.6288 37.6964 21.3187 37.8 21 37.8C20.6813 37.8 20.3712 37.6964 20.1165 37.5049C17.3823 35.144 9.24 27.4999 9.24 20.1601C9.24 17.0412 10.479 14.0499 12.6844 11.8445C14.8899 9.63901 17.8811 8.4 21 8.4C24.1189 8.4 27.1101 9.63901 29.3156 11.8445C31.521 14.0499 32.76 17.0412 32.76 20.1601Z" stroke="var(--stroke-0, white)" stroke-width="2" stroke-linecap="round" stroke-linejoin="round"/>
<path id="Vector_2" d="M21 24.5701C23.4356 24.5701 25.41 22.5957 25.41 20.1601C25.41 17.7244 23.4356 15.75 21 15.75C18.5644 15.75 16.59 17.7244 16.59 20.1601C16.59 22.5957 18.5644 24.5701 21 24.5701Z" stroke="var(--stroke-0, white)" stroke-width="2" stroke-linecap="round" stroke-linejoin="round"/>
</g>
</g>
</svg>
