<svg width="1809" height="918" viewBox="0 0 1809 918" fill="none" xmlns="http://www.w3.org/2000/svg">

<path d="M19.3848 0.0253906V0.0263672L19.3838 0.526367L32.3057 0.543945L32.3066 0.0439453V0.0429688L45.2275 0.0605469V0.0615234L45.2266 0.561523L58.1484 0.579102L58.1494 0.0791016V0.078125L71.0703 0.0957031V0.0966797L71.0693 0.59668L83.9912 0.614258L83.9922 0.114258V0.113281L96.9131 0.130859V0.131836L96.9121 0.631836L109.834 0.649414V0.148438L122.756 0.166016V0.166992L122.755 0.666992L135.677 0.68457V0.183594L148.599 0.201172V0.202148L148.598 0.702148L161.52 0.719727V0.21875L174.441 0.236328V0.237305L174.44 0.737305L187.362 0.754883V0.253906L200.284 0.271484V0.272461L200.283 0.772461L213.205 0.790039V0.289062L226.127 0.306641V0.307617L226.126 0.807617L239.048 0.825195V0.324219L251.97 0.341797V0.342773L251.969 0.842773L264.891 0.859375V0.359375L277.812 0.376953V0.876953L290.733 0.894531V0.394531L303.654 0.412109V0.912109L316.576 0.929688V0.429688L329.497 0.447266V0.947266L342.419 0.964844V0.464844L355.34 0.482422V0.982422L368.262 1V0.5L381.183 0.517578V1.01758L394.104 1.03516V0.535156L407.025 0.552734V1.05273L419.947 1.07031V0.570312L432.868 0.587891V1.08789L445.789 1.10547V0.605469L458.712 0.62207V0.623047L458.711 1.12305L471.633 1.14062V0.639648L484.555 0.657227V0.658203L484.554 1.1582L497.475 1.17578L497.476 0.675781V0.674805L510.397 0.692383V0.693359L510.396 1.19336L523.317 1.21094L523.318 0.710938V0.709961L536.24 0.727539V0.728516L536.239 1.22852L549.16 1.24609L549.161 0.746094V0.745117L562.083 0.762695V0.763672L562.082 1.26367L575.003 1.28125L575.004 0.78125V0.780273L587.926 0.797852V0.798828L587.925 1.29883L600.846 1.31641L600.847 0.816406V0.81543L613.769 0.833008V0.833984L613.768 1.33398L626.688 1.35156L626.689 0.851562V0.850586L639.61 0.868164V1.36914L652.531 1.38672L652.532 0.886719V0.885742L665.453 0.90332V1.4043L678.374 1.42188L678.375 0.921875V0.920898L691.296 0.938477V1.43945L704.217 1.45703L704.218 0.957031V0.956055L717.139 0.973633V1.47461L730.06 1.49219L730.061 0.992188V0.991211L742.981 1.00879V1.50977L755.902 1.52734L755.903 1.02734V1.02637L768.824 1.04395V1.54492L781.745 1.56152V1.06152L794.667 1.0791V1.5791L807.588 1.59668V1.09668L820.51 1.11426V1.61426L833.431 1.63184V1.13184L846.353 1.14941V1.64941L859.274 1.66699V1.16699L872.195 1.18457V1.68457L885.117 1.70215V1.20215L898.038 1.21973V1.71973L910.96 1.7373V1.23633L923.882 1.25391V1.25488L923.881 1.75488L936.803 1.77246V1.27148L949.725 1.28906V1.29004L949.724 1.79004L962.646 1.80762L962.646 1.30762V1.30664L975.567 1.32422V1.3252L975.566 1.8252L988.488 1.84277L988.489 1.34277V1.3418L1001.41 1.35938V1.36035L1001.41 1.86035L1014.33 1.87793L1014.33 1.37793V1.37695L1027.25 1.39453V1.89551L1040.17 1.91309L1040.17 1.41309V1.41211L1053.1 1.42969V1.93066L1066.02 1.94824L1066.02 1.44824V1.44727L1078.94 1.46484V1.46582L1078.94 1.96582L1091.86 1.9834L1091.86 1.4834V1.48242L1104.78 1.5V1.50098L1104.78 2.00098L1117.7 2.01855L1117.7 1.51855V1.51758L1130.62 1.53516V1.53613L1130.62 2.03613L1143.55 2.05371V1.55273L1156.47 1.57031V1.57129L1156.47 2.07129L1169.39 2.08887V1.58789L1182.31 1.60547V1.60645L1182.31 2.10645L1195.23 2.12402V1.62305L1208.15 1.64062V1.6416L1208.15 2.1416L1221.07 2.15918L1221.08 1.65918V1.6582L1234 1.67578V1.67676L1234 2.17676L1246.92 2.19434L1246.92 1.69434V1.69336L1259.84 1.71094V2.21191L1272.76 2.22949L1272.76 1.72949V1.72852L1285.68 1.74609V2.24707L1298.6 2.26367V1.76367L1311.52 1.78125V2.28125L1324.45 2.29883V1.79883L1337.37 1.81641V2.31641L1350.29 2.33398V1.83398L1363.21 1.85059V1.85156L1363.21 2.35156L1376.13 2.36914L1376.13 1.86914V1.86816L1389.05 1.88574V1.88672L1389.05 2.38672L1401.97 2.4043V1.90332L1414.9 1.9209V1.92188L1414.9 2.42188L1427.82 2.43945V1.93848L1440.74 1.95605V1.95703L1440.74 2.45703L1453.66 2.47461V1.97363L1466.58 1.99121V1.99219L1466.58 2.49219L1479.5 2.50977L1479.5 2.00977V2.00879L1492.42 2.02637V2.02734L1492.42 2.52734L1505.35 2.54492L1505.35 2.04492V2.04395L1518.27 2.06152V2.5625L1531.19 2.58008L1531.19 2.08008V2.0791L1544.11 2.09668V2.59766L1557.03 2.61523L1557.03 2.11523V2.11426L1569.95 2.13184V2.63281L1582.87 2.65039L1582.88 2.15039V2.14941L1595.8 2.16699V2.16797L1595.8 2.66797L1608.72 2.68555L1608.72 2.18555V2.18457L1621.64 2.20215V2.20312L1621.64 2.70312L1634.56 2.7207L1634.56 2.2207V2.21973L1647.48 2.2373V2.23828L1647.48 2.73828L1660.4 2.75586V2.25488L1673.33 2.27246V2.27344L1673.32 2.77344L1686.25 2.79102V2.29004L1699.17 2.30762V2.30859L1699.17 2.80859L1712.09 2.82617V2.3252L1725.01 2.34277V2.34375L1725.01 2.84375L1737.93 2.86133L1737.93 2.36133V2.36035L1750.85 2.37793V2.37891L1750.85 2.87891L1763.77 2.89648L1763.78 2.39648V2.39551L1776.7 2.41309V2.41406L1776.7 2.91406L1789.62 2.93164L1789.62 2.43164V2.43066L1802.54 2.44824V2.94922L1808.5 2.95605V8.95508L1809 8.95605L1809 21.9512H1808.5L1808.5 34.9463H1809L1808.99 47.9424H1808.49L1808.49 60.9375H1808.99L1808.99 73.9326H1808.49L1808.49 86.9287H1808.99L1808.98 99.9238H1808.48L1808.48 112.919L1808.98 112.92L1808.98 125.915H1808.48L1808.48 138.91H1808.98L1808.98 151.906H1808.48L1808.47 164.901H1808.97L1808.97 177.896H1808.47L1808.47 190.893H1808.97L1808.97 203.888H1808.47L1808.47 216.883L1808.97 216.884L1808.96 229.879H1808.46L1808.46 242.874H1808.96L1808.96 255.87H1808.46L1808.46 268.865H1808.96L1808.96 281.86H1808.46L1808.45 294.856H1808.95L1808.95 307.852H1808.45L1808.45 320.848H1808.95L1808.95 333.843H1808.45L1808.45 346.838H1808.95L1808.94 359.834H1808.44L1808.44 372.829H1808.94L1808.94 385.825H1808.44L1808.44 398.82H1808.94L1808.94 411.815H1808.44L1808.43 424.812H1808.93L1808.93 437.807H1808.43L1808.43 450.803H1808.93L1808.93 463.798H1808.43L1808.43 476.793L1808.93 476.794L1808.92 489.789H1808.42L1808.42 502.784H1808.92L1808.92 515.78H1808.42L1808.42 528.775H1808.92L1808.92 541.771L1808.42 541.771L1808.41 554.767H1808.91L1808.91 567.762H1808.41L1808.41 580.758H1808.91L1808.91 593.753H1808.41L1808.41 606.749H1808.91L1808.9 619.744H1808.4L1808.4 632.739H1808.9L1808.9 645.735H1808.4L1808.4 658.73H1808.9L1808.9 671.727H1808.4L1808.39 684.722H1808.89L1808.89 697.717H1808.39L1808.39 710.713H1808.89L1808.89 723.708H1808.39L1808.39 736.704H1808.88L1808.88 749.699H1808.38L1808.38 762.694H1808.88L1808.88 775.69H1808.38L1808.38 782.022C1807.28 783.513 1806.15 784.979 1805 786.424L1805.39 786.732C1803 789.724 1800.52 792.627 1797.97 795.472L1797.6 795.14C1795.05 797.99 1792.45 800.784 1789.84 803.558L1790.2 803.898C1787.57 806.693 1784.94 809.466 1782.35 812.249L1781.99 811.908C1779.36 814.724 1776.78 817.556 1774.3 820.438L1774.68 820.764L1774.68 820.765C1772.17 823.678 1769.76 826.641 1767.5 829.692L1767.09 829.395C1766.24 830.553 1765.4 831.725 1764.59 832.911L1763.78 834.104L1763.7 834.23L1763.7 834.383C1763.71 836.69 1763.72 838.935 1763.73 841.118L1764.23 841.116C1764.24 845.843 1764.22 850.284 1764.18 854.457L1763.68 854.452C1763.63 859.226 1763.54 863.647 1763.39 867.74L1763.89 867.757C1763.72 872.655 1763.47 877.087 1763.11 881.094L1762.62 881.052C1762.18 886.063 1761.59 890.399 1760.8 894.147L1761.29 894.249C1760.2 899.456 1758.73 903.553 1756.78 906.76L1756.35 906.501C1753.93 910.482 1750.76 913.05 1746.58 914.665L1746.76 915.13C1743.17 916.52 1738.86 917.213 1733.7 917.479L1733.68 916.981C1730.26 917.158 1726.45 917.146 1722.23 917.023L1720.39 916.965L1720.37 917.462C1716.3 917.319 1711.86 917.092 1707.02 916.843L1707.05 916.344C1702.91 916.131 1698.48 915.902 1693.74 915.699L1693.72 916.199L1693.72 916.2C1689.52 916.021 1685.07 915.861 1680.37 915.75L1680.37 915.749L1680.38 915.249C1678.26 915.199 1676.08 915.158 1673.84 915.13L1673.74 915.054L1673.44 915.46L1672.98 915.124L1673.27 914.718L1673.13 914.619C1672.75 913.926 1672.42 912.812 1672.15 911.34C1671.87 909.821 1671.66 907.972 1671.51 905.92L1671.01 905.956C1670.58 900.367 1670.57 893.353 1670.61 887.518L1671.11 887.521C1671.14 883.709 1671.2 880.381 1671.19 878.298L1671.19 877.805L1670.7 877.801L1664.23 877.749L1664.22 878.249H1664.22C1659.91 878.216 1655.6 878.186 1651.29 878.16L1651.29 877.66C1646.98 877.634 1642.66 877.61 1638.35 877.591L1638.35 878.091L1638.35 878.092C1634.04 878.072 1629.72 878.056 1625.41 878.043L1625.41 878.042L1625.41 877.542C1621.1 877.529 1616.79 877.52 1612.48 877.514L1612.47 878.014C1608.16 878.008 1603.85 878.006 1599.54 878.007V877.506C1595.22 877.507 1590.91 877.51 1586.6 877.518L1586.6 878.018V878.019C1582.29 878.026 1577.98 878.036 1573.66 878.051L1573.66 877.551C1569.35 877.565 1565.04 877.583 1560.72 877.604L1560.73 878.104V878.105C1556.41 878.127 1552.1 878.152 1547.79 878.181V878.18L1547.79 877.68C1543.47 877.708 1539.16 877.74 1534.85 877.775L1534.85 878.275C1530.54 878.311 1526.23 878.35 1521.92 878.393V878.392L1521.91 877.892L1515.44 877.958L1514.95 877.964L1514.95 878.457L1514.92 887.779H1515.42L1515.38 906.425L1514.88 906.424L1514.86 915.249C1512.62 915.253 1510.44 915.27 1508.31 915.301L1508.31 915.801C1503.36 915.873 1498.68 916.012 1494.27 916.187V916.185L1494.25 915.686C1489.25 915.883 1484.59 916.124 1480.23 916.367L1480.26 916.867C1475.17 917.151 1470.51 917.434 1466.23 917.646L1466.2 917.148C1460.97 917.409 1456.33 917.562 1452.21 917.477L1452.2 917.975C1446.74 917.862 1442.18 917.333 1438.36 916.087L1438.51 915.614C1433.96 914.13 1430.5 911.616 1427.85 907.524L1427.43 907.795C1425.3 904.514 1423.69 900.246 1422.45 894.73L1422.94 894.622C1422.06 890.707 1421.37 886.15 1420.83 880.852L1420.33 880.901C1419.9 876.7 1419.56 872.04 1419.29 866.875L1419.79 866.85C1419.56 862.555 1419.39 857.908 1419.24 852.883L1418.74 852.896C1418.62 848.513 1418.52 843.843 1418.43 838.867L1418.93 838.859C1418.89 836.561 1418.86 834.198 1418.82 831.768L1418.82 831.281L1418.33 831.274L1411.87 831.187L1411.86 831.687L1411.86 831.69C1407.62 831.636 1403.23 831.584 1398.71 831.536L1398.71 831.533L1398.72 831.033C1394.46 830.988 1390.07 830.944 1385.58 830.904L1385.57 831.404L1385.57 831.407C1381.29 831.369 1376.91 831.332 1372.43 831.299L1372.43 831.297L1372.43 830.797C1368.14 830.765 1363.75 830.734 1359.28 830.706L1359.28 831.206L1359.28 831.208C1354.97 831.181 1350.58 831.155 1346.12 831.131L1346.12 831.13L1346.12 830.63C1341.8 830.607 1337.4 830.586 1332.95 830.566L1332.95 831.066H1332.95C1328.63 831.047 1324.26 831.03 1319.83 831.014L1319.83 831.013L1319.84 830.513C1315.51 830.497 1311.14 830.483 1306.72 830.47L1306.72 830.97L1306.72 830.971C1302.38 830.958 1298 830.946 1293.58 830.936L1293.58 830.934L1293.58 830.434C1289.23 830.423 1284.84 830.415 1280.42 830.406L1280.42 830.906H1280.42C1276.07 830.898 1271.68 830.891 1267.27 830.885H1267.27L1267.27 830.385C1262.93 830.379 1258.55 830.373 1254.15 830.369L1254.15 830.869V830.87C1249.8 830.866 1245.41 830.863 1241.01 830.86V830.359C1236.65 830.357 1232.26 830.355 1227.85 830.354V830.854C1223.49 830.853 1219.11 830.853 1214.72 830.854V830.354C1210.36 830.354 1205.98 830.355 1201.59 830.356L1201.59 830.856V830.857C1197.22 830.859 1192.83 830.862 1188.44 830.865V830.864L1188.44 830.364C1184.07 830.367 1179.69 830.37 1175.3 830.374L1175.3 830.874V830.877C1170.93 830.881 1166.55 830.884 1162.17 830.889V830.888L1162.16 830.388C1157.78 830.393 1153.4 830.398 1149.02 830.404L1149.02 830.904V830.905C1144.64 830.911 1140.26 830.918 1135.89 830.925V830.923L1135.89 830.423C1131.5 830.43 1127.12 830.437 1122.74 830.444L1122.74 830.944C1118.35 830.952 1113.97 830.96 1109.6 830.968V830.967L1109.6 830.467C1105.21 830.475 1100.83 830.484 1096.46 830.492L1096.46 830.992C1092.07 831.001 1087.69 831.009 1083.33 831.018V830.519C1078.93 830.528 1074.54 830.537 1070.18 830.546L1070.18 831.046C1065.77 831.055 1061.39 831.067 1057.04 831.076V831.074L1057.03 830.574C1052.64 830.584 1048.26 830.594 1043.92 830.604L1043.92 831.104V831.105C1039.5 831.115 1035.12 831.125 1030.77 831.135V831.134L1030.77 830.634C1026.35 830.644 1021.96 830.654 1017.61 830.664L1017.61 831.164C1013.19 831.174 1008.81 831.182 1004.47 831.192L1004.47 830.694C1000.05 830.704 995.674 830.715 991.351 830.725V831.221C986.926 831.231 982.554 831.24 978.238 831.249V830.753C973.785 830.763 969.392 830.772 965.065 830.781V831.277C960.607 831.287 956.218 831.297 951.904 831.306V830.808C947.438 830.816 943.053 830.824 938.755 830.831V831.329C934.277 831.337 929.894 831.343 925.612 831.349V830.852C921.117 830.858 916.733 830.863 912.47 830.867V831.364C907.95 831.369 903.566 831.372 899.325 831.374V830.877C897.131 830.878 894.975 830.879 892.859 830.879L886.608 830.878V831.377L874.105 831.374V830.874L861.603 830.871V831.37L849.1 831.367L849.101 830.868L836.598 830.864V831.364L824.095 831.36V830.861L811.592 830.858V831.357L799.089 831.354L799.09 830.854L786.587 830.852V831.351L774.084 831.348V830.848L761.581 830.845V831.344L749.078 831.341L749.079 830.842L742.828 830.84C740.838 830.837 738.721 830.835 736.515 830.834V831.335C732.529 831.332 728.248 831.331 723.88 831.331V830.831C719.687 830.831 715.415 830.832 711.246 830.834V831.333C706.847 831.335 702.563 831.336 698.611 831.337V830.839L692.3 830.84H692.212L692.13 830.869C689.97 831.648 687.785 832.421 685.577 833.19L685.741 833.662C681.43 835.164 677.035 836.656 672.575 838.166L672.415 837.692C668.079 839.161 663.68 840.649 659.24 842.185L659.404 842.657C655.067 844.157 650.69 845.702 646.292 847.318L646.119 846.85C645.035 847.248 643.949 847.651 642.862 848.059L639.599 849.297C638.831 849.592 638.04 849.787 637.244 849.883L637.303 850.378C635.601 850.584 633.876 850.363 632.287 849.727L632.474 849.263C631.731 848.965 631.019 848.572 630.355 848.086L627.866 846.266C626.99 845.627 626.069 844.956 625.106 844.258L624.812 844.663H624.812C621.672 842.384 618.097 839.804 614.236 837.026L614.237 837.025L614.528 836.619C611.178 834.209 607.612 831.652 603.928 829.016L603.638 829.422H603.637C600.177 826.946 596.611 824.403 593.023 821.845L593.026 821.843L593.317 821.436C589.774 818.909 586.206 816.37 582.693 813.873L582.404 814.281L582.402 814.282C578.769 811.7 575.195 809.162 571.765 806.732L572.055 806.324C568.297 803.662 564.713 801.128 561.414 798.802L561.126 799.21C557.06 796.343 553.428 793.792 550.443 791.706L550.444 791.705L550.73 791.295C548.597 789.803 546.792 788.549 545.395 787.587L544.611 787.048V787.999C544.611 789.742 544.611 791.759 544.609 794H545.106C545.104 797.517 545.101 801.587 545.097 806.019H544.599C544.595 809.802 544.592 813.849 544.588 818.039H545.088C545.084 821.951 545.082 825.989 545.079 830.055H544.578C544.575 834.064 544.573 838.102 544.572 842.074H545.073C545.072 846.185 545.074 850.226 545.076 854.094H544.573C544.574 856.149 544.576 858.155 544.578 860.097C544.58 862.068 544.19 863.949 543.481 865.663L543.942 865.853C542.423 869.531 539.487 872.475 535.813 874.004L535.623 873.544C533.911 874.256 532.032 874.65 530.06 874.651L523.61 874.655V875.155L510.712 875.163V874.664L497.812 874.672V875.171L484.914 875.18V874.68L472.016 874.688V875.188L459.116 875.195V874.696L446.218 874.704V875.204L433.319 875.212V874.713L420.421 874.721V875.22L407.522 875.229L407.521 874.729L394.623 874.737V875.236L381.725 875.244V874.745L368.825 874.753L368.826 875.253L355.927 875.261V874.762L343.028 874.77V875.269L330.129 875.276V874.777L317.23 874.786V875.285L304.332 875.293V874.794L291.433 874.802V875.301L278.534 875.31V874.811L265.636 874.818V875.317L252.736 875.325V874.826L239.838 874.834V875.334L226.939 875.342V874.843L214.041 874.851V875.35L201.143 875.358L201.142 874.858L188.243 874.867V875.366L175.345 875.374V874.875L168.895 874.879C167.364 874.879 165.098 874.879 162.243 874.88V875.38C158.64 875.381 154.098 875.382 148.911 875.384V874.883C144.818 874.884 140.324 874.885 135.572 874.887L135.573 875.387V875.388C131.297 875.389 126.813 875.39 122.226 875.392V874.891C117.844 874.892 113.368 874.894 108.891 874.896L108.892 875.396C104.417 875.397 99.9393 875.398 95.5508 875.399V874.899C90.9767 874.901 86.499 874.902 82.2217 874.903V875.403C77.4806 875.405 72.9854 875.406 68.877 875.407V874.907C66.5227 874.908 64.2954 874.909 62.2217 874.909C60.2558 874.91 58.3837 874.52 56.6777 873.814L56.4863 874.275C52.8216 872.759 49.8952 869.831 48.3809 866.166L48.8418 865.976C48.1809 864.376 47.7987 862.631 47.7549 860.799L47.75 860.432C47.7518 858.39 47.7537 856.213 47.7559 853.934H47.2559C47.2597 849.871 47.2641 845.479 47.2686 840.923L47.7686 840.924L47.7812 827.913H47.2812C47.2855 823.538 47.2891 819.156 47.293 814.903L47.793 814.904C47.7971 810.368 47.8014 805.977 47.8047 801.896H47.3018C47.3057 797.03 47.3087 792.603 47.3105 788.89H47.8135L47.8154 782.388V781.888H47.3154C45.3797 781.888 43.409 781.888 41.4121 781.889V782.391C37.5534 782.393 33.5965 782.395 29.6035 782.398V782.397L29.6025 781.897C25.6818 781.901 21.7263 781.904 17.7949 781.904V782.402C13.8137 782.403 9.85715 782.401 5.98633 782.396L5.9873 781.898C4.16445 781.896 2.36042 781.892 0.582031 781.888V775.867H0.0820312L0.0810547 762.828H0.580078L0.579102 749.788H0.0791016L0.078125 736.748H0.578125L0.576172 723.708H0.0771484L0.0751953 710.669H0.575195L0.573242 697.629H0.0742188L0.0722656 684.589H0.572266L0.571289 671.549H0.0712891L0.0703125 658.51H0.569336L0.568359 645.47H0.0683594L0.0673828 632.43H0.566406L0.56543 619.39H0.0654297L0.0644531 606.351H0.564453L0.5625 593.311H0.0625L0.0615234 580.271H0.561523L0.55957 567.23H0.0605469L0.0585938 554.191H0.558594L0.557617 541.151H0.0576172L0.0556641 528.111H0.555664L0.554688 515.071H0.0546875L0.0537109 502.032H0.552734L0.551758 488.992H0.0517578L0.0507812 475.952H0.549805L0.548828 462.912H0.0488281L0.0478516 449.873H0.547852L0.545898 436.833H0.0458984L0.0449219 423.793H0.544922L0.542969 410.753H0.0439453L0.0419922 397.714H0.541992L0.541016 384.674H0.0410156L0.0390625 371.634H0.539062L0.538086 358.594H0.0380859L0.0371094 345.555H0.536133L0.535156 332.515H0.0351562L0.0341797 319.475H0.53418L0.532227 306.435H0.0322266L0.03125 293.396H0.53125L0.529297 280.355H0.0292969L0.0283203 267.315H0.52832L0.526367 254.275H0.0273438L0.0253906 241.236H0.525391L0.524414 228.196H0.0244141L0.0224609 215.156H0.522461L0.521484 202.116H0.0214844L0.0205078 189.077H0.519531L0.518555 176.037H0.0185547L0.0175781 162.997H0.517578L0.515625 149.957L0.015625 149.958L0.0146484 136.918H0.514648L0.512695 123.878H0.0126953L0.0117188 110.838H0.511719L0.510742 97.7988H0.0107422L0.00878906 84.7588H0.508789L0.507812 71.7188H0.0078125L0.00585938 58.6787H0.505859L0.504883 45.6396H0.00488281L0.00390625 32.5996H0.503906L0.501953 19.5596H0.00195312L0.000976562 6.51953H0.500977L0.5 0.5L6.46289 0.508789L6.46387 0.00878906V0.0078125L19.3848 0.0253906Z" stroke="#6E6E6E" stroke-opacity="0.5" stroke-dasharray="13 13"/>
</svg>