<svg width="1061" height="665" viewBox="0 0 1061 665" fill="none" xmlns="http://www.w3.org/2000/svg">
<mask id="mask0_449_10319" style="mask-type:alpha" maskUnits="userSpaceOnUse" x="0" y="0" width="1061" height="665">
<path d="M1.5 1.46729L1.55959 565.672C12.5044 565.701 24.8215 565.672 35.629 565.672C35.629 575.087 35.6016 600.678 35.5857 617.766C35.578 626.05 42.2709 632.755 50.5551 632.752C73.6755 632.746 114.697 632.732 123.325 632.732L235.233 632.581C243.534 632.57 250.251 625.824 250.247 617.524C250.239 600.741 250.274 579.387 250.274 569.719C259.738 576.234 295.178 601.388 310.285 612.417C313.101 614.473 316.757 614.937 320.019 613.703C332.595 608.946 345.005 605.1 356.442 600.974C366.681 600.974 382.266 600.959 392.888 600.974L501.107 601.002C592.8 600.988 686.11 599.991 777.703 601.287C778.743 678.981 783.555 661.885 847.695 661.842L847.758 634.952C885.084 634.554 922.411 634.525 959.737 634.839C959.762 640.319 959.136 657.7 961.216 661.273L961.892 661.757C1022.3 662.497 1027.64 675.906 1027.19 603.166C1036.07 589.799 1049.43 579.109 1059.41 565.529L1059.5 3.23953L21 1.49995" stroke="#6E6E6E" stroke-width="3" stroke-dasharray="13 13"/>
</mask>
<g mask="url(#mask0_449_10319)">
<path d="M-13.5 -13.5327H1075.5V674.467H-13.5V-13.5327Z" fill="#6E6E6E"/>
</g>
</svg>
